<mxfile host="Electron" agent="Mozilla/5.0 (X11; Linux x86_64) AppleWebKit/537.36 (KHTML, like Gecko) draw.io/25.0.1 Chrome/128.0.6613.186 Electron/32.2.6 Safari/537.36" border="50" scale="3" compressed="false" locked="false" version="25.0.1">
  <diagram id="ZvP087uZZ-V-vC-I_4Ya" name="PSCAT">
    <mxGraphModel dx="4140" dy="1161" grid="1" gridSize="10" guides="1" tooltips="1" connect="1" arrows="1" fold="1" page="0" pageScale="1" pageWidth="850" pageHeight="1100" background="none" math="0" shadow="1">
      <root>
        <mxCell id="0" />
        <mxCell id="1" parent="0" />
        <mxCell id="p1K-NaBIbMb-tByNYBvU-1" value="Map Designer" style="shape=umlActor;verticalLabelPosition=bottom;verticalAlign=top;html=1;outlineConnect=0;sketch=1;hachureGap=4;jiggle=2;curveFitting=1;fontFamily=Architects Daughter;fontSource=https%3A%2F%2Ffonts.googleapis.com%2Fcss%3Ffamily%3DArchitects%2BDaughter;fontSize=16;fontStyle=1;whiteSpace=wrap;" parent="1" vertex="1">
          <mxGeometry x="-691" y="416" width="83" height="115" as="geometry" />
        </mxCell>
        <mxCell id="n5BzA4wGksoVJ3-YeGOq-1" value="&lt;font style=&quot;font-size: 16px;&quot;&gt;&lt;b&gt;I just want to make a build of my&lt;/b&gt;&lt;/font&gt;&lt;div&gt;&lt;font style=&quot;font-size: 16px;&quot;&gt;&lt;b&gt;game as quickly as I&amp;nbsp;&lt;span style=&quot;background-color: initial;&quot;&gt;can -- get&lt;/span&gt;&lt;/b&gt;&lt;/font&gt;&lt;/div&gt;&lt;div&gt;&lt;font style=&quot;font-size: 16px;&quot;&gt;&lt;b&gt;&lt;span style=&quot;background-color: initial;&quot;&gt;out of my&amp;nbsp;&lt;/span&gt;&lt;span style=&quot;background-color: initial;&quot;&gt;way and let me do&lt;/span&gt;&lt;/b&gt;&lt;/font&gt;&lt;/div&gt;&lt;div&gt;&lt;span style=&quot;background-color: initial;&quot;&gt;&lt;font style=&quot;font-size: 16px;&quot;&gt;&lt;b&gt;what I want to do !&lt;/b&gt;&lt;/font&gt;&lt;/span&gt;&lt;/div&gt;&lt;div&gt;&lt;br style=&quot;font-family: Helvetica;&quot;&gt;&lt;/div&gt;&lt;div&gt;&lt;br&gt;&lt;/div&gt;" style="whiteSpace=wrap;html=1;shape=mxgraph.basic.cloud_callout;sketch=1;hachureGap=4;jiggle=2;curveFitting=1;fontFamily=Architects Daughter;fontSource=https%3A%2F%2Ffonts.googleapis.com%2Fcss%3Ffamily%3DArchitects%2BDaughter;flipH=1;align=center;" parent="1" vertex="1">
          <mxGeometry x="-976" y="183" width="304" height="226" as="geometry" />
        </mxCell>
        <mxCell id="n5BzA4wGksoVJ3-YeGOq-2" value="Executes the Launcher" style="html=1;shadow=0;dashed=0;align=center;verticalAlign=middle;shape=mxgraph.arrows2.arrow;dy=0.6;dx=76;notch=0;sketch=1;hachureGap=4;jiggle=2;curveFitting=1;fontFamily=Architects Daughter;fontSource=https%3A%2F%2Ffonts.googleapis.com%2Fcss%3Ffamily%3DArchitects%2BDaughter;fontSize=16;fontStyle=1" parent="1" vertex="1">
          <mxGeometry x="-588" y="439" width="208" height="83" as="geometry" />
        </mxCell>
        <mxCell id="2e5F1GHSX5DQpQCDhNSY-1" value="&lt;img height=&quot;285&quot; width=&quot;520&quot; src=&quot;data:image/png;base64,iVBORw0KGgoAAAANSUhEUgAABLAAAAKSCAYAAADClSLIAAAACXBIWXMAABDrAAAQ6wFQlOh8AAAgAElEQVR4Xuzde1xU173//1dKQoRwJCet1UCI5oAXYiCgkiq19YJEi0ePRmuK0XqSmirmoqn1kNPGJH4139S09sRYQ6y0OV6qR7+aaKxoQrTNqbVBFBHqJQqRhEAxt0YaIZffJL8/YGDYMLBHZmDvPe/n48HjQdZ6z8z+rL1m9rDce+eKiIiILxEREREREREREbGorxgbRERERERERERErEQLWCIiIiIiIiIiYmlawBIREREREREREUvTApaIiIiIiIiIiFiaFrBERERERERERMTStIAlIiIiIiIiIiKWpgUsERERERERERGxNC1giYiIiIiIiIiIpWkBS0RERERERERELE0LWCIiIiIiIiIiYmk2WsCKZt7WAk4VbGVetLGvY9l51VRX55Ft7PBFei5F1dVUu3+Kckk3ZqRR5/aXiIg06LLjl5mM2I5v8yfIjt2a8yIiIrbSjQtY6eQWNXxhKFiT0tycnUd1dRG5rb5B3MmkkTFcGzOSSXca+7rIqZ38d04OOTkvUnrR2Nl9rh37GNv/XMy5isYvYBXnKNi3hjmxxqQfTF/Fnj17WDXd2GFkgf0lIkGk+ZjS9FNZTumft/PY2GuNYQu5ljue2kfBuYqmbT5T8BJPTfHzB7iZ45eZjA/CB89lzb4CzpRXttgfj6SGG6P2Yvo42LHMLacbxqZ8F/dZYlgscOzOzmv5Pjb++HORyc9zXkRERALrSmNDd4i57fukUEihsaOFX7LwZzfz9PAKnnzO2NdFqvbxzPJ9QDq5U6eSYOzvBuETc8l/LoNo1wXO/GkHfzhbT9/U2xl36xQW/eRVNvxgt/EhnRMbz9ChSYQcMnYYWWB/iUjwuVjKi1sOUQNE9E3l9nEjmbchn+vvSWF+vjHc/aKX7WT1rHg+eecQOzaWUt83lbQxycx6ej2fnhrL0rPGR1wmM8cvMxmzYrPZsWshST1qefv4y+wufIuwhIncPmIkcx7+Ac9NXsP7xsfYhenjYEcymZQcycXz53HdlEDabFi7zpjpahY4dh/YQk7oXxp+7zOSmVMToPRFthyqaWi7eJRTzenO8eecFxERkYDr/gWs+nrqY8bw4DSYvdPY2VL52rlMWmtsDWbTWLcyg+jPSnn29vGsKHe3ZxM7diwcPOgZ7nLaXyLS5eor2bV8Oe61qmWZWziyajTpWfMgv9tXB1qZlRJPCKVsGD2DFXWNjeGpjE0q5qC/Fq+6XDTLfn0/SdfU8Or9Y/n+Cx81ti8nfPAQbjpfZN/FK39KT2NQpIvy9b+i9t5VJI/KhHVbjaku1+3H7qObWX608ff0XKZOTYDKXSxfbsEVaBEREelS3XgJYaOLBRw+HUnqXfOMPQ1anUre9n0crh37GC8VnKG8siFXca6AfWvmYLwI46vZL3Gyoprq6krKj75kuJQhnNRHXmq+lKPiHAUvPYLPVzt43lOh4hynCvaxptX1fLHMWbOPglPnqPCs78Tz/Ksh6dW8u0i9DirzHvFYvGpQfvAgTU0dbk/jpTctTstv2ZaeW9Tw+IVJACQt9LJPTO0vwzhXllN6MNfjksds8tyPL36eicOWse9kQ7ay/C88N9HXHSIiwapu6x5KLkJYD/dlhO1/zkc/8QeaLmOf+DzF1dUUPjeKps/Ew0+T2NbzXObn2OdfuIBexI7x+FyrO8zBw+7VrGY+Hb9abU8XSlxCenwI9Ud+w/ymxasGdSeLONlUWvv7wn3s+sOW5ymoqKbyzCs8+eR2zlQ2jOGvGg9Y2XnVVBflMue+7RxtvFyx4uRBcj2L7/A42KC97xKmj4MmJU68mT6UcWLbbk6cdxE5KM3jGGxu/kD72+yp3fnT0bF72ib+Wl3N6S2Znq1ttHflPOxg/pjOiIiIiF10/wIWdeQdOkvord9p+/4PB7aQk5NDTk4O//u2sbNB+MRc8jfMIznyI469mENOzg6O/P06bp22gt/+bIBH8iYy7oikaFsOmw68yee9h7Hgv1bivgNX9I+2s2HBMKLq/8qOnBx2lHxM72EL2LAju9UXwXY13VMhhx1/epPayFuYtuIFNmU2F5iyZgtPTruFyNrTvLqpIZuTk0PO9lfwUmYrifF9COMi5Yfbv/jSzPZ05NTO/27Yvsad8Pb/emxzzhYOuIMm9lfsE3vZtmAY1/39CDtyctj08ln+v3/JYMX/PNf45f0AW3JyeLH0Iny9Nz/4j8mEF20jZ0cRfw/ty+THf8kow3OKiLStJz1Cm/+ro8/5qg8u4SKM8K8Bt/Tmqy4X1319EDCEqD5QX3OaEvz3OfZczstUufowfm0hBzctYcL13j6X2z9+dbw9XWhcHDHA2yd30XoZrllH+8Itrm8d//eRV3mv5y1Mii8ke0Mpn4X1JfVOj8p6jeI/597Im3t/Tc6Oo/z9mkFkrNjE0+4BMnEc7Oi7hOnjoCnR3HlrP6g4wbaqOjYfL4M+CUxuuiWoufnT0TY3a3/+dHjs3vkMf6iEyORJeC5hTZuSzHV8yNGdDWeOdeU8NDN/zGRERETEPrr/EkLg/ZUvcGzWw9yRHc1a47ddj1PJs0dk8e0bW3ZDNNk/Gk80b/D8xDH81H3a0fJYxk7owev7Pa/BqOUP94/igUKAVfzj5TIWJMQyFigkkSXTh3CN6w2en/qvjc/zW/5+4HXuTfo3HkhcyaISj6dqT9M9FRpFP8EfCu8m9buzYWvDJSxjY2OA87y84HssLDIWbU7viB5APXXuazGiv8OD9wwjsvE/Lx79Lc/sqzK1PR2p2vcMy/cB2SPI+vaNfHh8OctXGlOY2F/p/Od3BhJSk8eC2+Y2X+bzyMuULRjKtFGQ/9pRNi8/yoXcqUxNSKJf7RyGzM0HwvlyYBkLEm5kOPCax7OKiLQlfN54EsLgww/KwMznfGkN7zGEa2+E9P59qDl7loh/vpHoaAgDPnz3DH79HNs7l/Q5j7Fx1d0MS3uI3x6ZT/Xx53nweytoeRJWe8cvM9vT/EwBd9VXCAHqa6uMPR5M7IvG5Hund7F78xDmPTUO/vJzdhcN5LF7DHcrCvmUwhXDm25FsOqNXZT+9DZuuysRCktMHAc7/i5Rx9mOj4PpuRRtyKCPoblJ8WqiMlZC9AJSB0JN3l5KALadoOLuGQx1by9m5k80YzvY5mbtzR9MHLsL2XikkmnTkpmUCVu3AkxjSvJ1UJPHxp1g7n3R9ISdZGL+lJjJtHxWERERsTZLLGBRt5Z9J37EIyN/SPQrxs6O/CsJ/UKg8gTb3F/eACjn4H7P/wb4gHeaTlaq43OXZ98IbuwNvFfOH5uep4qdpZXcG9+PAd+Bhm+ZJlw7liW/yOI7CYPp80/AZ19yFZ6XsMDm3Ye4K2Ek3/39G/xrbTVvlZbyx13P8szvimh5wYV3Fz7+BOjNdf/S2HDzNP49q/mLc03e6w0LWCa2p+s0nMUAGWyorjb01XClx5kSDd7lxIvur8F1rBgfxYoW/SIiHsJimLJ0KcOBXgkTuX3EjVxzqZjcx3cC8zr+nF9TwXvAtdcnMiSqFxcO7ePjf4si6WYXkUDN+deAbL9+jn10cBmTk3/O9ROWsPrxTEYMW8C2127gnpT5TYsA7R+/fP1cDbDPv8BFwxh6P3CaOOYWNac79jZ/9biPZt3zRyn76W3cHDcOKDFxHPTlu0Q7Tu3kv3PeavqHpFbOHwAgfFYycXzCm1cNZ+nS4UAYlz6GwbfeSTQltFz68zZ/5vGC6W1ub/6YU/izV3lj2t0ku1ewpk0h+Tqo3LmucZ525Tw0MX9KzGTc7SIiImIH1ljAAtb97jAPrJnAw6c+MHZ1oJZPPgOu6sE/G7u6Q3gmm157irTrPqP63CnK3wX4Z276+j9zjUesat0MErfdxL997yGmTx1KQtI45n8zg3sefIF7v3G/xx8t3pWcrqGefvRLSYd1+ZA/lyFR0HDvjIUNC1kmt6erfVywihnLGr7IN/uMC61uWvwFrs+MbSIiXkQmMDWr8eyczy7x7rk8fvHAg+S2+AO/HXXvcakeekWM46ZeNbxz8G2+PiuZWxK+oBc1FHksqvj3c6yOv+1fxoz9P2fOtmM8+a3hzJwI+XuNOe/Mb0+AvVpG5Y+HEJMwrY3FmG5g6jjop+8SxjO9vJj9jYGE0IP+6Vn097y2Li6ZWeGwssXZd97mj5+22ayqZ/nf09/n3uRJZLKVz6Ykcx0VvLq+5W0MLDMPRURExHEscA+sRjs38npNDGPGtDpvvQP/y7lqF0Tfxr936ubef+HtC0CvWEY33RghmmkJMUAFZ1t8H73Ax58AkdfhPvmpyTfTGNwrhNJ1CQwbO4lJkyYxadFhPjTmAD46z+7nHmT2+G+S1P9mHj38MaExqXje1qNdmw5QWg99xvyYxwZ7qd2X7flKCE3/QBo9mliv10BAWM9oY5NJ+zhbARG3pDH+H8UUF3v+nOJvl3c1pYhIg5o85kRFERUVRVS//iSNnUtu013DzXzOv8mHF6FXn+F8/br3OP/aX3j7Qh8GJVxFCDWcywf/fY6FE97qo7uOU+/WAldzdU9jnze+bE87x68mZjLtKPkdRypchMTPZH22tzsNmdkXvriRW6Y1/1f43cOIA2reOWbyOOj7d4nLPw5mMio+DFfxauLcczUqiqhlr1MfMpARd5t7/cvZ5s6pYuUrpbgiv8F35zVcPug6nc/Pm85i8mUedpaZ+WMm49bJOS8iIiJdwjJnYEE+6/5cSca0GKCmsS2a7zx4D8Maz8UffB3AdSQvXcpSgPP7WL75KCt/+TIZz2Uwfm0hf55zgP2l7wER9E28kv3fXcyOxmdrXwk/31HExB8P4fsv/p5/+n8FkHIHk+NDuFS8mzUtTjMv4U/lHzKjXwr3/f4Zvl7wHr0GJPLRxu/y6IWP+QS4ecZ2nrmigPd6JTDx9hu4ohK4cRKbnqli9YOb6bdqD3dGnqLkrY8B6DVgDN8aFgH1pzj+Z8/XakfdWhb/eiL7FyYxb++fGfWnP/GHs+9BrxHcCHwGYGp7XuD42/Vk3DaOJ3//DEMKIGVMf76oASKTyHpmFn9/cDNHATYXcvr+JOLv+j37er/C4bc+hl5fpS53EatKzO0v9zjf/8pRxh8+3LDNEX1JvHI/3128A4bNYul3bqJPTBgAMVOWsnT4RY7+9hn2dfs/5YuIfZn5nM/nXA1k9OzD1y6epYgS/qXmn5h361fg3eP81fA8nfscG8PaQ88wrL6M4mOHOPse9BowjtGjY+DS67y2253riInt8ch6PX41nfprJtOeQn7yxF5GrJ1M0sIDHB9fyLHCEt76OIK+KSOJOpVFxsMm9oXZf8wBIITk/3id7aP2UkoCk75zG2GuCv78m9fg06kmjoObzX+XaPc42LRB3mVOIjkSyo5vbnmT+00FvPHIcBLSZkPBJRPzp8r8NrfL3LEboG7NXo79MIlb5z5M/XUuzu78tccZdr7Mw84yMX9MZZqfr3NzXkRERLqChRawoPBn+zk95V7iQ9wtNzPt37PIaHEm0I18OyuLbwMUf8byzUepa7wJ7q+XTyX5tulkjWxIfnaplL8NgB0mT1uv+uUM5oT/D/81J5HpWUPgs0tUHn2Wh763knJDdue8bL71+6eYMmQ6DdGPKDwC5P+EJ7Yn8rNJtzI9awiu+mr+uv0x/nzrehbE/Atp02fy1wf3c0X/QaQMG8o33U/42SXerTrEuqU/bH0j+3aUr8xgwhtP8eSS7zB09HSy0gA+49K75/nr6QtQYmZ7NrNy8f8hef1/MG7IdH4YX81ffjmHI5Pzie8TxfDpM0lzL2BVPcYPH4lm/UOjiM+Yza0ArnpeP7eIVSXm9lfVL/+VlOLH+PXy6R7b7KL+3EW+wQ4K0maSldXwvykHSJiaRQI15L2uBSwR6Rwzn/Nvf3QRkuKIK95LPjDq3Y/oMzwa3qimuOl5/PE5doEzZTUkJ8YxenoCDR/fDZc9PvrAg+T6cCzocHs8st6PX75l2lO3dz5jKo6y8hf3kj5gOBmDvgm4qK+t5q1zA4ASU/vCvPPkbfyYsT/6ISPDQvjs72fIW3EviwoBzB0Hj5r9LtHucbAx0470tEFEUsHL2wwHtLrNHC9bSFL8KDLTrjUxf/DT9x9zx26g6Z6ltw2PJqz+CDkrW9bgyzzsLDPzx0zGrbNzXkRERALvioiIiC+NjSIiIiJ2kJ1XzcKkYlZHZbDS2CkiIiIijmGde2CJiIiIiIiIiIi0QQtYIiIiIiIiIiJiaVrAEhERERERERERS9M9sERERERERERExNJ0BpaIiIiIiIiIiFhaFy9gpfN//t8e9qz9AV83djUxkxERERERERERCayvz3qGXXv+H09ODDd2NTGTkc7r0gWs8Pvu465vJhH+/n7eNXY2MpMREREREREREQm0d194A27+JrN+lE20sbORmYx0XhcuYKXwf+8aStiHf+TZx6qMnY3MZEREREREREREukDdWjYd/pCQ+Ak8nGLsbGQmI53WdQtY0x5kXL8QKv/wDDuNfW5mMiIiIiIiIiIiXWTn47t5wxXDhP+ch7eLBM1kpHO6aAErnPtmp3JdfTEv/KzQ2NnITEZEREREREREpAuVP8GOY/VckzKDbG/XCJrJSKdcERER8aWx0e9S1lCwexrXHHiAW2Z7ObeqrUx6LkUbMujTMtmseDVR/9VfGWOfmzLKGPvclFHG2OemjDLGPjdllDH2uSmjjLHPTRlljH1uyihj7HOzYiZjZcPv0zbx1zVpXNr5b3zjAS8n3ZjJyGW70tgQCNMeHEMMlex8xsviFV4yp3by3zlvEdnc0tL5A3CqRBljn5syyhj73JRRxtjnpowyxj43ZZQx9rkpo4yxz00ZZYx9bsooY+xzs2LGbefD7FzwOvdm/JT7sqewtq65q4mZjFy2wJ+BFZ1N3v8uZGDpEyRMWUub+89MRkRERERERESkm4Tft4vSnw6lYv1w0rz8j+fMZOTyBPweWCkP30FS2Icc3uR9YcpMRkRERERERESku9StXcsfakKIn7SMdGNnIzMZuTwBvoRwGg+OicFVsR3vVw+2k9E9sJRpizLKGPvclFHG2OemjDLGPjdllDH2uSmjjLHPTRlljH1uyjgz474HFgD5PLbnNOPvHcN994WT3+Y1gmYycjkCuoAVvWwBo6+r51jOT/B2+7J2M7oHljJtUUYZY5+bMsoY+9yUUcbY56aMMsY+N2WUMfa5KaOMsc9NGWdmDKpWvsCxWT9l6B3ZRK99jLYuEjSTEd8F8B5YKawp2M20aw7wwC2zMZ5c1cBMRkRERERERETEGlLWFLB72jUceOAWZntZyDCTEd8E7B5Y4ZkPMSbGxRu7H/e6MGUmIyIiIiIiIiJiFYU/289p13Wkzr6PcGNnIzMZ8U2AFrCiyZ77La6rP8aOJ8qNnY3MZERERERERERELKRqJdsLLxE2dDo/jTV2NjKTEZ+EhIaGPm5s7LyB3NC3lrIXf8svjlUbOxuZyYiIiIiIiIiIWMnnHDtaCZ/V8cE/TnH0fFs3ajeTEV8E8B5YIiIiIiIiIiIinRegSwhFRERERERERET8QwtYIiIiIiIiIiJiaYFfwEpczMY9e9i4ONHYIyIiIiIiIiLiHFoDCZgrjQ1+1zueW4YOhQu9jT0iIiIiIiIiIs6hNZCACfwZWCIiIiIiIiIiIp2gBSwREREREREREbE0LWCJiIiIiIiIiIilaQFLREREREREREQszRILWOEzN1FSWcmZ7fMIN3Y2UkYZZVpTRhllWlNGGWVaU0YZZVpTRhllWlOm8xkJHEssYMXdFsvXQkLoeUM8ccbORsooo0xryiijTGvKKKNMa8ooo0xryiijTGvKdD4jgRMSGhr6uLHRr2InM29qfzi3i3UvvWnsBeDC/j9Szt/J/6+VHHzvc2M3oIwyyrRFGWWUaU0ZZZRpTRlllGlNGWWUaU2ZzmfMrIHI5bkiIiLiS2OjX6XnUrQhA/LmMGRuvrFXRERERERERMQZtAYSMJa4hFBERERERERERMQbiyxgxTJl8WJmDG7vNmjKKOONMsp4o4wy3iijjDfKKOONMsp4o4wy3igTnBkJmIiIiC8D+jP1f748W1v75dn/mdq6r/EnNbfky9ra2i9rS3K/TG2jXxlllGndr4wyyrTuV0YZZVr3K6OMMq37lVFGmdb9yvgnY2YNRD+X92OJM7DK8k9R5XJR+85pyoydjZRRRpnWlFFGmdaUUUaZ1pRRRpnWlFFGmdaU6XxGAkc3cRcRERERERER8QetgQSMJc7AEhERERERERER8SYkNDT0cWOjX336OVe7qik+8AoFZf8w9oqIiIiIiIiIOIPWQAIm8JcQioiIiIiIiIiIdIIuIRQREREREREREUsL/AJW4mI27tnDxsWJxh4REREREREREefQGkjAXGls8Lve8dwydChc6G3sERERERERERFxDq2BBEzgz8ASERERERERERHpBC1giYiIiIiIiIiIpWkBS0RERERERERELE0LWCIiIiIiIiIiYmmWWMAKn7mJkspKzmyfR7ixU0RERERERESkm2ntontZYgEr7rZYvhYSQs8b4okzdoqIiIiIiIiIdDOtXXSvK40N3aFk0WwWVE4hdH8OJcZOEREREREREZFuprWL7mWJBSwoZ9eqVcZGERERERERERGL0NpFd7LEJYQiIiIiIiIiIiLeWGQBK5YpixczY7BugyYiIiIiIiIiVqS1i+5kiUsIE5/exLMz+sG0GM6kLtK1pCIiIiIiIiJiKVq76F6WOAOrLP8UVS4Xte+cpszYKSIiIiIiIiLSzbR20b0scQZW3d65pMQYW0VERERERERErEFrF93LEmdgiYiIiIiIiIiIeBMSGhr6uLHRrz79nKtd1RQfeIWCsn8Ye0VEREREREREnEFrIAFzRURExJfGRhEREREREREREavQJYQiIiIiIiIiImJpgV/ASlzMxj172Lg40dgjIiIiIiIiIuIcWgMJmMD/Xwh7x3PL0KFwobexR0RERERERETEObQGEjCBPwNLRERERERERESkEwJ/BpajpJNbtIGMPh5Nrno+ePsYO5b+kGUHP1JGmU5mnOxa7nhqK9lT44m5JhRc9dRWn+SlJx/iP3aVKxPUGfGH8MFzWfmLe0kfEEXPsJCmz5dtS/6dFYfrlLFhRqQ9mVtOs2p0JNQf4YmEKaxtY9r4KyOXKTuP6oVJxtZmNXnM2RbFBmXapkzwZobMJd/YLoIWsC7PxVJe3HKIGiCibyq3jxvJvA35XH9PCvPd7zRllOlMxoGil+1k9ax4PnnnEDs2llLfN5W0McnMeno9n54ay9KzygRrRvwgNpsduxaS1KOWt4+/zO7CtwhLmMjtI0Yy5+Ef8NzkNbyvjL0yxn0s0kImk5IjuXj+PK6bEkibDWvXBSojl+3AFnJC/9Lwe5+RzJyaAKUvsuVQTUPbxaOcOvxVZZRRxphp+E2kFS1gXY76SnYtX960KrwscwtHVo0mPWse5L+pjDKdyDj3W+OslHhCKGXD6BmscP/rbngqY5OKOdi4iKFMcGaks6JZ9uv7SbqmhlfvH8v3X/iosX054YOHcNP5It5XxmYZkQ6kpzEo0kX5+l9Re+8qkkdlwrqtgcnI5Tu6meVHG39Pz2Xq1ASo3MXy5e5vgQ2UUUaZ1hmRtljiHljhMzdRUlnJme3zCDd22kDd1j2UXISwHtcau5ooo4w3ZjJO8PkXLqAXsWM83uV1hznocamMMsGZkU5KXEJ6fAj1R37D/KbFkAZ1J4s4WaeM7TIiHUiceDN9KOPEtt2cOO8iclAa6QHKiIhIM7uvXdidJRaw4m6L5WshIfS8IZ44Y6ct9KRHqLHNSJn2KeN0z+W8TJWrD+PXFnJw0xImXN/6I1+Z4MxIJ42LIwZ4++QuvK59KGOvjEi7ornz1n5QcYJtVXVsPl4GfRKYnBKIjIiIeLL/2oW9WWIBq2TRbBasWsWie39CibHTBsLnjSchDD78oMzY1UQZZbwxk3GCur1zSZ+zjqN/v4ZBaQ/x2yOlHH3pEVI91jOUCc6MdNJVXyEEqK+tMvY0U8ZeGZH2RC8gdSDUnNpLCVC17QQVxDD0rkT/Z0REpAW7r13YnUXugVXOrlWrjI3WFRbDlKVLGQ70SpjI7SNu5JpLxeQ+vhPcJ14ro8xlZZzto4PLmJz8c66fsITVj2cyYtgCtr12A/ekzG+6J5gywZmRTvj8C1zAtdcngrevUsrYKyPSjvBZycTxCW9eNZylS4cDYVz6GAbfeifRlFDlx4yIiBjZbO3CYSyygGUzkQlMzUpo+P2zS7x7Lo9fPPAgueXKKOOnjKPV8bf9y5ix/+fM2XaMJ781nJkTIX+vMsrIZXm1jMofDyEmYZr3PzqVsVdGpB2zvzGQEHrQPz2L/ukeHXHJzAqHlXX+y4iIiFiJJS4hhFimLF7MjME2uaakJo85UVFERUUR1a8/SWPnkmu866oyynQm4zjhhLd6e9dx6t1a4Gqu7gnKGCJBk5FOK/kdRypchMTPZH12rLG3gTL2yoh4lcmo+DBcxauJc3+XiIoiatnr1IcMZMTd4X7MiIhIazZbu3AYS5yBlfj0Jp6d0Q+mxXAmdRE6oV7Eacaw9tAzDKsvo/jYIc6+B70GjGP06Bi49Dqv7VYmeDPSeYX85Im9jFg7maSFBzg+vpBjhSW89XEEfVNGEnUqi4yHlbFXRt+ExIvMSSRHQtnxzbT4p69NBbzxyHAS0mbDh6P8k1m7zrNHRETQ2kV3s8QCVln+KaqmxfBP75zG2bexFglWFzhTVkNyYhyjpyeQBk2XTz76wIPk1ikTvBnxh7q98xlTcZSVv7iX9AHDyRj0TcBFfW01b50bAJQoY7OMSFvS0wYRSQUvbzNcfFq3meNlC0mKH8UKP2UyWcfWlr0iIkFPaxfd65QU4IYAACAASURBVIqIiIgvjY1+lZ5L0YYMyJvDkLm6Xa+IiIiIiIiIOJTWQALGIvfAEhERERERERERaVtIaGjo48ZGv/r0c652VVN84BUKyv5h7BURERERERERcQatgQRM4C8hFBERERERERER6QRdQigiIiIiIiIiIpYW+AWsxMVs3LOHjYsTjT0iIiIiIiIiIs6hNZCAudLY4He947ll6FC40NvYIyIiIiIiIiLiHFoDCZjAn4ElIiIiIiIiIiLSCVrA8kk6uUXVVFd7/FSWU/rn7Tw29lpjWOQyWHGOXcsdT+2j4FxF0/acKXiJp6bE+pgR8ca58yd88FzW7CvgTHlli/fzI6nhfs+IvWifSnsyt5xumBflu7jPAlPCattjG9l5Lb/TGX+Kckk3PkbE6fS+kE4I/CWETnSxlBe3HKIGiOibyu3jRjJvQz7X35PC/HxjWOQyWGiORS/byepZ8XzyziF2bCylvm8qaWOSmfX0ej49NZalZ81lRLxx7PyJzWbHroUk9ajl7eMvs7vwLcISJnL7iJHMefgHPDd5De/7K2N8bbE27VNpVyaTkiO5eP48rpsSSJsNa9cZM13JattjIwe2kBP6l4bf+4xk5tQEKH2RLYdqGtouHuVUc1okOOh9IZ2gBazLUV/JruXLca8jLMvcwpFVo0nPmgf5OqKLH1hojs1KiSeEUjaMnsGKusbG8FTGJhVzsHFhwUxGxBtnzp9olv36fpKuqeHV+8fy/Rc+amxfTvjgIdx0voj3/ZYRe9E+lQ6kpzEo0kX5+l9Re+8qkkdlwrqtxlTXsdr22MnRzSw/2vh7ei5TpyZA5S6WL+/if40UsRK9L6QTLHEJYfjMTZRUVnJm+zzseFZy3dY9lFyEsB4tL/EyU5cyynjLePI2x7rC51+4gF7EjvHY0rrDHDzsXmkwl3EzU7sywZXxZf7YRuIS0uNDqD/yG+Y3LVA0qDtZxMk6P2Y8tDfObsp0c8bHfSrBJ3HizfShjBPbdnPivIvIQWltXk7jdY558EfG7PZI53W0L0AZZZyVsSOn1mUXlljAirstlq+FhNDzhnjijJ220JMeocY2c3Upo4y3TEttz7Gu8FzOy1S5+jB+bSEHNy1hwvWtP6rNZNzM1K5McGV8mT+2MS6OGODtk7vwuh7hr4yH9sbZTZluzvi4TyXYRHPnrf2g4gTbqurYfLwM+iQwOcWYa2eOeeh8xvz2SOe1vy8aKKOMkzJ25NS67OJKY0N3KFk0mwWVUwjdn0OJsdMGwueNJyEMPvygrEW7mbqUUcZbxpO3OdYV6vbOJX3OY2xcdTfD0h7it0fmU338eR783grcJ8iYybiZqV2Z4Mr4Mn9s46qvEALU11YZe5r5K+OhvXF2U6abMz7uUwky0QtIHQg1eXsb5s22E1TcPYOhdyVCYcvZ5nWOeeh0xoftkc5rd180UkYZJ2XsyKl12cUVERERXxob/So9l6INGZA3hyFz7X5dazq5RRvICGu+wXavhIncPuJGen5SzOoJGawsNz5GxBdWnmPhXD9hCasfz2TEjT2h6iXuSZnfdJ8u8xkRbxw0f370eyp/PITK7RNIXeTl642/MmIv2qfSjvDsPN5YOIg385/n1TKAG/j27EkMrnqelDE/pauXPa22PbbmqL+JRPzEqe8Lp9ZlAZa4hNB2IhOYmpVFVlYW02/7Kp+cy+PRKdO7cWFBHMeSc6yOv+1fxozhQ3jkTxcJiR7OzImXkxHxxkHz59UyKoGYhGlEG/vc/JURe9E+lXbM/sZAQuhB//SG7wBZWZMYHAHEJTOrG66uttr2iIhIcLPIAlYsUxYvZsZgmxwJa/KYExVFVFQUUf36kzR2Lrlt3nXVTF3KKNMG03Ms0MIJb7WJdZx6txa4mqt7grmMpw5qB5QJpoyv88cmSn7HkQoXIfEzWZ8da+xt4K9MC97G2ZMy3ZrxeZ9K8MhkVHwYruLVxLm/A0RFEbXsdepDBjLibuN88zLHWuhMxtftkc7zti88KaOMN3bM2JFT67IHS9wDK/HpTTw7ox9Mi+FM6iLHXEtqpi5l+injJWMNY1h76BmG1ZdRfOwQZ9+DXgPGMXp0DFx6ndd2m800M1O7Mv2CKOPb/LGPQn7yxF5GrJ1M0sIDHB9fyLHCEt76OIK+KSOJOpVFxsP+yjSPpvdxbqZMv27O+LZPJYhkTiI5EsqOb255g/9NBbzxyHAS0mbD2nVNzd7nWLNOZXzcHuk8r/vCgzL9lHFQxo6cWpddWOIMrLL8U1S5XNS+c5quv0V14JipSxllvGWs4QJnympwfTWO0dMbL2n8VhRfnMvj0SmzWFdnNtPMTO3KBFPGt/ljJ3V75zNm4qPsPHGBsL7DyZidRVbWTMYMuJIeVw3wa8bN+zg3U6b7M77sUwke6WmDiKSCE9sMd5aq28zxMgiLH0WmR3N7c8ytMxlft0c6z9u+8KSMMk7K2JFT67IL3cRdRERERERERMQftAYSMJY4A0tERERERERERMSbkNDQ0MeNjX716edc7aqm+MArFJT9w9grIiIiIiIiIuIMWgMJmMBfQigiIiIiIiIiItIJuoRQREREREREREQsLfALWImL2bhnDxsXJxp7REREREREREScQ2sgAXOlscHvesdzy9ChcKG3sUdERERERERExDm0BhIwgT8DS0REREREREREpBO0gOWTdHKLqqmu9vipLKf0z9t5bOy1xrDDmKndjhk78mdd13LHU/soOFfR9DxnCl7iqSmxxqDNmKnLjhmnsl7t4YPnsmZfAWfKK1u8xx5JDfcpI+KN5k/wytxyumGfl+/iPgftbqfW1SnZeS2/rxl/inJJNz5GxOn0vpBOCPwlhE50sZQXtxyiBojom8rt40Yyb0M+19+Twvx8Y9hhzNRux4wd+aGu6GU7WT0rnk/eOcSOjaXU900lbUwys55ez6enxrL0rPER9mCmLjtmnMpytcdms2PXQpJ61PL28ZfZXfgWYQkTuX3ESOY8/AOem7yG981kjM8r4qb5E8QymZQcycXz53HdlEDabFi7zpixI6fW1UkHtpAT+peG3/uMZObUBCh9kS2HahraLh7lVHNaJDjofSGdoAWsy1Ffya7ly3GvESzL3MKRVaNJz5oH+Q4/Wrdb+5s2zNh4f/mhrlkp8YRQyobRM1hR19gYnsrYpGIOdvWigR+ZqcuOGaeyVu3RLPv1/SRdU8Or94/l+y981Ni+nPDBQ7jpfBHvm8qIeKP5E9TS0xgU6aJ8/a+ovXcVyaMyYd1WY8p+nFpXZx3dzPKjjb+n5zJ1agJU7mL5cpP/0ijiRHpfSCdY4hLC8JmbKKms5Mz2edjxjOO6rXsouQhhPVpevmWmLjtmPHmr3ZNdMmZqt1rGk7e62vP5Fy6gF7FjPF6h7jAHD7tXEZqZ2R6rZMzUZceMW3u1u9kp40vtAZe4hPT4EOqP/Ib5TQsLDepOFnGyzmTGQ3u1uykTRBkf5484S+LEm+lDGSe27ebEeReRg9LavFTG6/zxYKWM2bqkfR2NMyijjLMyduTUuuzCEgtYcbfF8rWQEHreEE+csdMWetIj1Nhmri47Zlpqu/aW7JExU7vVMi21XVd7nst5mSpXH8avLeTgpiVMuN77x7CZ7bFKxkxddsy4tVe7m50yvtQecOPiiAHePrkLr+sIZjIe2qvdTZkgyvg4f8RJornz1n5QcYJtVXVsPl4GfRKYnGLMtTN/PFgnY74uaV/749xAGWWclLEjp9ZlF1caG7pDyaLZLKicQuj+HEqMnTYQPm88CWHw4QdlLdrN1GXHjCdvtXuyS8ZM7VbLePJWV3vq9s4lfc5jbFx1N8PSHuK3R+ZTffx5HvzeCownv5jZHqtkzNRlx4xbe7W72SnjS+0Bd9VXCAHqa6uMPc3MZDy0V7ubMkGU8XH+iINELyB1INTk7W2YE9tOUHH3DIbelQiFLWeS1/njwTIZH+qS9rU7zo2UUcZJGTtyal12cUVERMSXxka/Ss+laEMG5M1hyFy7X9eaTm7RBjLCmm+e3SthIrePuJGenxSzekIGK8uNj3EKM7XbMeNZo10Eoq5wrp+whNWPZzLixp5Q9RL3pMxvur+WfZmpy44Zp7JA7T/6PZU/HkLl9gmkLvLytcRMRsQbzZ+gFZ6dxxsLB/Fm/vO8WgZwA9+ePYnBVc+TMuan2HVJ06l1+Z2j/iYS8ROnvi+cWpcFWOIMLNuJTGBqVkLD759d4t1zefzigQfJ9XnRwIbM1G7HjB35ta46/rZ/GTP2/5w5247x5LeGM3Mi5O815uzGTF12zDiVBWp/tYzKHw8hJmEa0ZS0/YeXmYyIN5o/QWv2NwYSQg/6p2fR3/MGUXHJzAqHlV19xqmfOLUuERGxHkvcAwtimbJ4MTMGd+N9T3xRk8ecqCiioqKI6tefpLFzyW3zrqtm6rJZxkztdswAHdYOWCpjui5vwglv9dR1nHq3Friaq3sa+zrYHsAaGTN12THjyVvtnuyS8bX2ACv5HUcqXITEz2R9dqyxt4GZTAveavekTNBkfJ4/4gyZjIoPw1W8mjj3sTsqiqhlr1MfMpARdxvnkpf504IVMr7WJe3zNs6elFHGGztm7MipddmDJc7ASnx6E8/O6AfTYjiTusgx15KaqcuOGacyU7vVMp0zhrWHnmFYfRnFxw5x9j3oNWAco0fHwKXXeW13y7SZ7bFGxkxddsw08157M/tkfKs98Ar5yRN7GbF2MkkLD3B8fCHHCkt46+MI+qaMJOpUFhkPm8k0V+i99mbK9AuijG/zRxwicxLJkVB2fDMt/qlpUwFvPDKchLTZsHZdU7P3+dPMEhkf65L2eR1nD8r0U8ZBGTtyal12YYkzsMryT1HlclH7zmnM337a+szUZceMU5mp3WqZzrnAmbIaXF+NY/T0LLKyspj+rSi+OJfHo1Nmsc5wMpeZ7bFGxkxddsw08157M/tkfKu9K9Ttnc+YiY+y88QFwvoOJ2N2FllZMxkz4Ep6XDXAdMbNe+3NlAmujC/zR5whPW0QkVRwYpvhotG6zRwvg7D4UWR6NLc3f9yskPG1Lmmft3H2pIwyTsrYkVPrsgvdxF1ERERERERExB+0BhIwljgDS0RERERERERExJuQ0NDQx42NfvXp51ztqqb4wCsUlP3D2CsiIiIiIiIi4gxaAwmYwF9CKCIiIiIiIiIi0gm6hFBERERERERERCwt8AtYiYvZuGcPGxcnGntERERERERERJxDayABc6Wxwe96x3PL0KFwobexR0RERERERETEObQGEjCBPwNLRERERERERESkE7SA5ZN0couqqa72+Kksp/TP23ls7LU+ZOxIddmL2bqu5Y6n9lFwrqIpc6bgJZ6aEuuRsaNgrsupGf8JHzyXNfsKOFNe2eK98UhquDFqK2bqCuaM1dhxm6VjmVtON+zP8l3cp13ZStCNT3ZeQ73efopySTc+xg7M1GUmY3zeYGJmfMxkjM9rB06tS7pESGho6OPGRr+Kncy8qf3h3C7WvfSmsddmYpk8byr9XaW8+PwL/PHoUc68H85NSbcx6o4p9P/ren7/ppmM8XntQHXZi7m6opftZefdt3DVu3/hpd/t5dj74dww+Fa+mfFNrs3bwB8+MD6vPQRzXU7N+E1sNrt//5+MjbqCCyV/4KXdr3Lus2gG3JJActwltm49Qp3xMXZgpq5gzhjHq7vZcZvFhEx+smIy//y389T1iiXy78+w7ZgxE8yCcHw+vYLwj8o4evQoR9/pwYD43nxa+iLPv/DHhraCA7xSUMY/jI+zOjN1/W85ro4ydqzdX4J5DM3Ubse6PDlqDcRaAn8PLCeqr2TX8uXkN/7nsswtHFk1mvSseZDfOEHbzaxrbLUh1WUvHdQ1KyWeEErZMHoGK9x/LYWnMjapmINn3U9iP8Fcl1Mz/hHNsl/fT9I1Nbx6/1i+/8JHje3LCR88hJvOF/F+i7xdmKkrmDNWY8dtFlPS0xgU6aJ8/a+ovXcVyaMyYd1WYyp4BeP4HN3M8qONv6fnMnVqAlTuYvly9zczmzJZl5lM0ArmMTRZu0hbLHEJYfjMTZRUVnJm+zzseDZx3dY9lFyEsB7eLznzljFTu9UynrzVZXfe6jIzPlbLeDLW9fkXLqAXsWM8Hl13mIOHW//bv5nXskrGl7rsxExdTs34ReIS0uNDqD/yG+Y3LRo0qDtZxEnDy7U3x9wskTFTVzBnPHgdQw8Bz/i4zWIfiRNvpg9lnNi2mxPnXUQOSmvzMhivc8ODEzNmxyeYdTSGYL2Mv5h5Ladm/MXMa1ktY0dOrcsuLLGAFXdbLF8LCaHnDfHEGTttoSc9Qo1tRm1nzNRutUxLbddlf23XZWZ8rJZpqWVdz+W8TJWrD+PXFnJw0xImXO/9Y9jMa1kl40tddmKmLqdm/GJcHDHA2yd3mbo8q7055maJjJm6gjnjwesYegh4xsdtFruI5s5b+0HFCbZV1bH5eBn0SWByijHXztzw4LyM+fEJZu2PYQOrZfzFzGs5NeMvZl7Lahk7cmpddnGlsaE7lCyazYLKKYTuz6HE2GkD4fPGkxAGH35QZuxq4i1jpnarZTx5q8vuvNVlZnyslvFkrKtu71zS5zzGxlV3MyztIX57ZD7Vx5/nwe+twHjyi5nXskrGl7rsxExdTs34xVVfIQSor60y9rSpvTnmZomMmbqCOePB6xh6CHjGx20Wm4heQOpAqMnb27C/t52g4u4ZDL0rEQpbzhKvc8OD4zI+jE8wa3cMG1kt4y9mXsupGX8x81pWy9iRU+uyiysiIiK+NDb6VXouRRsyIG8OQ+ba/brWdHKLNpARVsqLWw5RA/RKmMjtI26k5yfFrJ6QwcpyMxnj89qB6rIXX+sK5/oJS1j9eCYjbuwJVS9xT8r8pntn2Vcw1+XUTCf86PdU/ngIldsnkLrIQV85zNQVzBmrseM2S4fCs/N4Y+Eg3sx/nlfLAG7g27MnMbjqeVLG/JRgX67U+OCwv4k8mKnLTCaYmRkfMxk7Ul3iI0tcQmg7kQlMzcoiKyuL6bd9lU/O5fHolOktFwTMZOxIddmL6brq+Nv+ZcwYPoRH/nSRkOjhzJxozNhRMNfl1EwnvFpGJRCTMI1oY5+dmakrmDNWY8dtlg7N/sZAQuhB//SGY25W1iQGRwBxycwK0FXRdqLxERERf7DIAlYsUxYvZsZgmxzBavKYExVFVFQUUf36kzR2LrnGu66ayQDmardQxnRdNmO6rg7GB7BUpt26wglv9bA6Tr1bC1zN1T2NfR28FmCNjK912YWZupya8ZOS33GkwkVI/EzWZ8cae9vgbY55skDGTF3BnGnByxi2EOCMz9ss1pfJqPgwXMWriXMfc6OiiFr2OvUhAxlxt3GeeJkbLTgp4+v4BDNvY+jJahl/MfNaTs34i5nXslrGjpxalz1Y4h5YiU9v4tkZ/WBaDGdSFwXVtaRmardaJpiZGR+rZbwbw9pDzzCsvoziY4c4+x70GjCO0aNj4NLrvLa7ZdrMa1kj41td9mGmLqdm/KWQnzyxlxFrJ5O08ADHxxdyrLCEtz6OoG/KSKJOZZHxcPNM8j7HmlkjY6auYM5YbZ/6ts1iA5mTSI6EsuObafFPX5sKeOOR4SSkzYa165qavc+NZo7K+Dg+wczrGHqwWsZfzLyWUzP+Yua1rJaxI6fWZReWOAOrLP8UVS4Xte+cxlm3Au+YmdqtlglmZsbHahnvLnCmrAbXV+MYPb3xMsNvRfHFuTwenTKLdYYT0My8ljUyvtVlH2bqcmrGf+r2zmfMxEfZeeICYX2HkzE7i6ysmYwZcCU9rhrQIut9jjWzSsZMXcGccWtvDN26IuPLNov1pacNIpIKTmwz3MmpbjPHyyAsfhSZHs3tzQ03J2V8HZ9g5m0MPVkt4y9mXsupGX8x81pWy9iRU+uyC93EXURERERERETEH7QGEjCWOANLRERERERERETEm5DQ0NDHjY1+9ennXO2qpvjAKxSU/cPYKyIiIiIiIiLiDFoDCZjAX0IoIiIiIiIiIiLSCbqEUERERERERERELC3wC1iJi9m4Zw8bFycae0REREREREREnENrIAFzpbHB73rHc8vQoXCht7FHRERERERERMQ5tAYSMIE/A0tERERERERERKQTAn8GlrQhndyiDWT08Why1fPB28fYsfSHLDv4kUeHVdhxm80I9rqu5Y6ntpI9NZ6Ya0LBVU9t9UleevIh/mNXuceD7capdUlHwgfPZeUv7iV9QBQ9w0Ka5v22Jf/OisN1xrhtOLUufzEzPnbMiLVkbjnNqtGRUH+EJxKmsFa7KSAcNc7ZeVQvTDK2NqvJY862KDbYLTNkLvnG9sthZnz89VpdqSvrMvNaZvap1TL+Gh9xHC1gdaeLpby45RA1QETfVG4fN5J5G/K5/p4U5lv1HWvHbTYjSOuKXraT1bPi+eSdQ+zYWEp931TSxiQz6+n1fHpqLEvPGp/QHpxal3QgNpsduxaS1KOWt4+/zO7CtwhLmMjtI0Yy5+Ef8NzkNbxvfIwdOLUufzEzPnbMGOuUbpbJpORILp4/j+umBNJmw9p1xox0nsPG+cAWckL/0vB7n5HMnJoApS+y5VBNQ9vFo5w6/FX7ZRp+6zwz49Octo+urMvMa5nZp1bLNPwm0soVERERXxob/So9l6INGZA3hyFz7bwS4E+NZ8fQcnU5PHMLR1aNJuz1ZcTeYbWjtR232Yzgris7r5qFSaU8GzeeFe5/4QxPZWxSMQdtfAaAU+uS9kSz7MDr3Bv/Hq/eP5bvv9B89mT44CHcdL6Ik7bc9U6ty1/MjI8dM01NYhXpuRRtGE/1L/6D2ntXkXx8MfEztxpT0llOHmczfxPZMeMvXflaXakr6zLzWnbM2JFT67IAS9wDK3zmJkoqKzmzfR7hxs4gUrd1DyUXIazHtS3azYxPV2Y8edtmu/NWl5nxsVrGk7Guz79wAb2IHePx6LrDbS7ymHktq2R8qUscInEJ6fEh1B/5DfM9FgQA6k62XhBob/64WSLjY11Bx8z42DEjlpM48Wb6UMaJbbs5cd5F5KA00o0h2nkve1DGe8bsOEtw6mj+gPUy4jza793LEgtYcbfF8rWQEHreEE+csTOo9KRHqLHN3Ph0ZaaltrfZ/tquy8z4WC3TUsu6nst5mSpXH8avLeTgpiVMuN77x7CZ17JKxpe6xCHGxREDvH1yF2b+/m9v/rhZIuNjXUHHzPjYMSMWE82dt/aDihNsq6pj8/Ey6JPA5BRjrp33sgdlvGXMj7MEp/bnTwOrZcR5tN+715XGhu5Qsmg2CyqnELo/hxJjZxAJnzeehDD48IOyFu1mxqcrM568bbPdeavLzPhYLePJWFfd3rmkz3mMjavuZljaQ/z2yHyqjz/Pg99bgfFkJTOvZZWML3WJQ1z1FUKA+toqY0+b2ps/bpbI+FhX0DEzPnbMiLVELyB1INTk7W14f247QcXdMxh6VyIUtnxXe30ve1DGS8aHcZbg1O78aWS1jDiP9nv3ssQCFpSza9UqY6PzhcUwZelShgO9EiZy+4gbueZSMbmP7zQEzYxPF2VMb7PNmK6rg/EBLJUxUddHB5cxOfnnXD9hCasfz2TEsAVse+0G7kmZb/i/f3TwWoCVMubrEkf4/AtcwLXXJ4KprxPtz58GFsj4XFeQMTM+dsyIpYTPSiaOT3jzquEsXTocCOPSxzD41juJpoSWS5Fe3sstKNMW38ZZgpP3+dPMahlxHu337mSRBawgFZnA1KyEht8/u8S75/L4xQMPklveMmYpdtxmM4K+rjr+tn8ZM/b/nDnbjvHkt4YzcyLk7zXm7MapdUkrr5ZR+eMhxCRMc9YfOk6ty1/MjI8dM2Ips78xkBB60D89i/7pHh1xycwKh5U6s9cvNM4iItIRS9wDC2KZsngxMwYH2X1qavKYExVFVFQUUf36kzR2Lrlt3r3VzPh0Ucb0NtuM6bo6GB/AUpl26wonvNXD6jj1bi1wNVf3NPZ18FqANTK+1iWOUPI7jlS4CImfyfrsWGNvG7zNH08WyPhcV5AxMz52zIiFZDIqPgxX8Wri3MfTqCiilr1OfchARtxtfF97eS+3oEzrjK/jLMHJ2/zxZLWMOI/2e3eyxBlYiU9v4tkZ/WBaDGdSF+mEegMz49OVmWBmZnyslvFuDGsPPcOw+jKKjx3i7HvQa8A4Ro+OgUuv89rulmkzr2WNjG91iVMU8pMn9jJi7WSSFh7g+PhCjhWW8NbHEfRNGUnUqSwyHm6eJd7nTzNrZHyrK/iYGR87ZoJ5n1pM5iSSI6Hs+OaWN93fVMAbjwwnIW02rF3X1Oz9vdxMmX6tMz6OswQnr/PHg9Uy4jza793LEmdgleWfosrlovad0zjrVuD+YWZ8ujITzMyMj9Uy3l3gTFkNrq/GMXp6FllZWUz/VhRfnMvj0SmzWGc4Ac3Ma1kj41td4hx1e+czZuKj7DxxgbC+w8mYnUVW1kzGDLiSHlcNaJH1Pn+aWSXjS13ByMz42DEj1pCeNohIKjixzXCxZ91mjpdBWPwoMj2a23svuynTOuPrOEtw8jZ/PFktI86j/d69roiIiPjS2OhX6bkUbciAvDkMmatbJ4uIiIiIiIiIQ2kNJGAscQaWiIiIiIiIiIiINyGhoaGPGxv96tPPudpVTfGBVygo+4exV0RERERERETEGbQGEjCBv4RQRERERERERESkE3QJoYiIiIiIiIiIWFrgF7ASF7Nxzx42Lk409oiIiIiIiIiIOIfWQALmSmOD3/WO55ahQ+FCb2OPiIiIiIiIiIhzaA0kYAJ/BpaIiIiIiIiIiEgnaAGrW6STW1RNdbXHT2U5pX/ezmNjrzWGLcKO22xGsNd1LXc8tY+CcxVNmTMFL/HUlFiPjB05ta7gFj54FDmh+gAAIABJREFULmv2FXCmvLLFnH4kNdwYtRWn1iViJ5lbTje8/8p3cZ+D3nqqSywtO6/ld1XjT1Eu6cbH2IFT6xKxgMBfQijeXSzlxS2HqAEi+qZy+7iRzNuQz/X3pDA/3xi2CDtusxlBWlf0sp2snhXPJ+8cYsfGUur7ppI2JplZT6/n01NjWXrW+IT24NS6glpsNjt2LSSpRy1vH3+Z3YVvEZYwkdtHjGTOwz/guclreN/4GDtwal0itpLJpORILp4/j+umBNJmw9p1xowdqS6xuANbyAn9S8PvfUYyc2oClL7IlkM1DW0Xj3KqOW0fTq1LxAK0gNWd6ivZtXw57vWRZZlbOLJqNOlZ8yDfokdiO26zGUFa16yUeEIoZcPoGayoawyFpzI2qZiDNl7kcWpdwSuaZb++n6Rranj1/rF8/4WPGtuXEz54CDedL7LpIo9T6xKxmfQ0BkW6KF//K2rvXUXyqExYt9WYsh/VJVZ3dDPLjzb+np7L1KkJULmL5cvt/K/HOLcuEQuwxCWE4TM3UVJZyZnt8wjms4Drtu6h5CKE9Wh56ZqZ8enKjCdv22x33uoyMz5Wy3gy1vX5Fy6gF7FjPB5dd5iDh92rPs3MvJZVMr7UJTaQuIT0+BDqj/yG+U2LPA3qThZx0rBb25sbbpbI+FiXiARG4sSb6UMZJ7bt5sR5F5GD0tq8vMfre9mDlTLBXpc4T0dzA6yXEefRfu9elljAirstlq+FhNDzhnjijJ1BpSc9Qo1t5sanKzMttb3N9td2XWbGx2qZllrW9VzOy1S5+jB+bSEHNy1hwvXeP4bNvJZVMr7UJTYwLo4Y4O2TuzCzptPe3HCzRMbHukQkEKK589Z+UHGCbVV1bD5eBn0SmJxizLXzXvZgnYzqEudpf240sFpGnEf7vXtdaWzoDiWLZrOgcgqh+3MoMXYGkfB540kIgw8/KGvRbmZ8ujLjyds22523usyMj9Uynox11e2dS/qcx9i46m6GpT3Eb4/Mp/r48zz4vRUYT1Yy81pWyfhSl9jAVV8hBKivrTL2tKm9ueFmiYyPdYlIAEQvIHUg1OTtbXh/bjtBxd0zGHpXIhS2fFd7fS97sExGdYkDtTs3GlktI86j/d69roiIiPjS2OhX6bkUbciAvDkMmavrfhukk1u0gYyw5hts90qYyO0jbqTnJ8WsnpDBynLjY7qbHbfZDNXVIJzrJyxh9eOZjLixJ1S9xD0p85vunWVfTq0ryPzo91T+eAiV2yeQushBXxWcWpeIjYRn5/HGwkG8mf88r5YB3MC3Z09icNXzpIz5KXZdXlZdYjtO/ZvRqXVJ+7TfA8YSZ2AFrcgEpmYlNPz+2SXePZfHLx54kFwrL5jYcZvNCPq66vjb/mXM2P9z5mw7xpPfGs7MiZC/15izG6fWFWReLaPyx0OISZhGNCXO+QPFqXWJ2MjsbwwkhB70T8+iv+eNlOKSmRUOK2161q7qEhERJ7LEPbAglimLFzNjcJDdp6YmjzlRUURFRRHVrz9JY+eS2+Zde82MTxdlTG+zzZiuq4PxASyVabeucMJbPayOU+/WAldzdU9jXwevBVgj42tdYnklv+NIhYuQ+Jmsz4419rbB29zwZIGMz3WJiH9lMio+DFfxauLcx8qoKKKWvU59yEBG3G18X3t5L7dghYzqEqfyNjc8WS0jzqP93p0scQZW4tObeHZGP5gWw5nURbqW1MDM+HRlJpiZGR+rZbwbw9pDzzCsvoziY4c4+x70GjCO0aNj4NLrvLa7ZdrMa1kj41tdYgeF/OSJvYxYO5mkhQc4Pr6QY4UlvPVxBH1TRhJ1KouMh/9/9u4+OKoq7xf912kISZtKuEcpoCOClfCSwY4JGAdycMgLDdyk4IJScZJJhsLBgnYcYQYpPA4iOXFqSmeoKzoMMsTh8GKocFUCDBENcB6fBxlDIK8HjNKRaJtMUMdHonZ0eNq5f3Sa7N5kN2ubfll79/dTlaq49rc767fW2nlZ7L0dXAHaa2OQHBl9dRFRiJUsQlYy4GreF/g/UtjbgPc2zoK9oBzYtuNas/a5PEiKDOsik9JcGwqyZch8OO/RJcUVWK76C+j2etH38bsw16PAQ0NkfCKZiWUi4yNbRttldLh64b0lDbnLnHA6nVh2rw3fXazDpiVl2KG6AE3ka8mR0VcXGYPn6GrkFW3Cq62XkTBxFgrLnXA6S5E3ZQTiR04JyGqvjUGyZPTURUSh5SiYhmR0obVGdQOvZx+aXUBC+lyUKJqDnct+MmRYF5mV1tpQki1D5sN5jy4+xJ2IiIiIiIiIKBS4BxI2UlyBRUREREREREREpMUSFxe3Wd0YUt9exShvD1pOvIkG15fqo0RERERERERE5sA9kLAJ/y2EREREREREREREw8BbCImIiIiIiIiISGrh38DKWIc9R45gz7oM9REiIiIiIiIiIvPgHkjYjFA3hNzYdNw5cyZweaz6CBERERERERGReXAPJGzCfwUWERERERERERHRMHADKyocqGrqQU+P4sPdifa3D+Cp/NHqsCRE+mzEjBFFuq7RuO/Z19Fwseva1+poOIxnl6SqgxIR6XMkMxQK1ukr8cLrDejodAes+405VnXUUMxaF5EsSqrf9Z1bnbX4hYlOq1DVFar3kY1Z6zKVDXWBv8+qP5qq4FC/xgjMWheRBMJ/CyFpu9KOg9Wn0AsgcWIO5s+bg1W76zH+wWysrleHJSHSZyNmjChCdaVUvIqtZen45uNTeGVPO/on5qAgLwtlz+3Etxfy8eT76ldEn0ifI5mhEEjdgFdq1yAzvg8fNb+BQ40fIsFehPmz52D54z/Hi4tfwGfq1xiBWesikkYJFmUl48qlS/DeYUdBObBthzpjRKGqK1TvIxuz1mUyJ6qxPe5vvs/HzUHpUjvQfhDVp3p9bVfO4sJg2jjMWheRBLiBFU39btRWVsK/11BRUo0zW3LhcK4C6iX9KRu0zx8YMCPpOIuIUF1l2emwoB27c4vxtGeg0ZqD/MwWnJR0c0akz5HM0HCloOLPjyDz5l4cfyQfP3vti4H2Slinz8Adl5oMuslj1rqIJOIowLRkLzp3/hF9D21B1twSYMd+dcp4QlVXqN5HNmaty2zO7kPl2YHPHVVYutQOuGtRWRnCf4mNBrPWRSQBKW4htJbuRZvbjY4DqxDLV/h69h9B2xUgIT7wNjCR8YlkRkmrz0pGyYjULltGSauu4br6nRfAGKTmKXrhOY2Tp/27NYNE+hyJjEifI5mhYcpYD0e6Bf1nXsLqa5s8Pp7zTTivGupga8NPiozOuohIv4yiH2IcXGitOYTWS14kTysY8tYdzfNUQaaMaF03Ivo+N+oPIFdGtC4ylhvNOyBfhsyH8x5dUmxgpd2TilstFiTdlo409cGYkoT4OHWb2PhEMhNo6D4HMkZGpHbZMoGGrmu4Xtz+Brq947BgWyNO7l2PheO1v1WL9DkSGZE+RzJDwzQvDRMAfHS+FiJ7OsHWhp8UGZ11EZFeKXjgrklAVytquj3Y1+wCxtmxOFudC3KeKsiTEa8rOPH3Cd4fH3ky4nWRsQSfdx/ZMmQ+nPfoGqFuiIa2teV42L0Ecce2o019MIZYVy2APQH4/B+ugHaR8YlkRkmrz0pGyYjULltGSauu4fIcXQnH8qewZ8sK3F3wK/zlzGr0NO/Coz95GuqLjET6HImMSJ8jmaFhGvkDWAD093Wrjwwp2NrwkyKjsy4i0inlYeRMBXrrjvrOvZpWdK0oxsyfZgCNgWes5nmqIE1GR11B6XifoP0ZIE1GR11kLEHnfYBsGTIfznt03ZSYmPgvdWNIOarQtLsQqFuOGSt536+PA1VNu1GYMPgQ7jH2IsyffTuSvmnB1oWFeKZT/ZpoE+mzETPKGo0iWnVZMX7hemzdXILZtycB3YfxYPbqa8/gkpNInyOZoe/l13+F+7EZcB9YiJy1JvpVwax1EUnCuqEO762Zhg/qd+G4CwBuw4/LF2F69y5k5/0GRt06DlVdoXof2Zi1LtMz69+MZq2LguO8h40UV2DFrGQ7ljrtvs//+TU+uViHP/zyUVSFZfMhRET6bMSMEUW8Lg/+fqwCxcd+j+U15/C7e2ehtAioP6rOyUSkz5HM0Pdy3AX3YzMwwX4/UtBmnj8+zFoXkSTKfzQVFsRjssOJycoHIKVlocwKPGPQq2RDVVeo3kc2Zq2LiIgkeQYWkIol69aheHqMPTumtw7LbTbYbDbYJk1GZv5KVA351F6R8YlQRqTPRswAuGHtAKTKCNc1HFZYr/vyHlz4pA/AKIxKUh+7QZ8BhD8j0udIZmjY2l7GmS4vLOml2LkhVX10CFprQ0mCjO66iEhcCeamJ8DbshVp/p+VNhtsFe+g3zIVs1eoz1mN8zSADBm9dWnR+z5a/VGSIaO3LjIWrXlXki1D5sN5jyYprsDKeG4v/lQ8Cbh/Ajpy1vJeUhWR8YlkxqxEapctE3552Hbqedzd70LLuVN4/1NgzJR5yM2dAHz9Dt46FJgW6XP4MyJ9jmSGhq8RT/z2KGZvW4zMNSfQvKAR5xrb8OFXiZiYPQe2C04UPj64ArTXxiA5MvrqIiIdShYhKxlwNe8L/J8k7G3AextnwV5QDmzbca1Z+zwdJEVGZ12adL6PZn8UpMjorIuMRXPeFWTLkPlw3qNLiiuwXPUX0O31ou/jdxHax0+bg8j4RDJjViK1y5YJv8vocPXCe0sacpc54XQ6sexeG767WIdNS8qwQ3XBl0ifw58R6XMkMxQKnqOrkVe0Ca+2XkbCxFkoLHfC6SxF3pQRiB85JSCrvTYGyZLRUxcRiXMUTEMyutBao7o517MPzS4gIX0uShTNwc5TPxkyeuvSovd9tPqjJENGb11kLFrzriRbhsyH8x5dfIg7EREREREREVEocA8kbKS4AouIiIiIiIiIiEiLJS4ubrO6MaS+vYpR3h60nHgTDa4v1UeJiIiIiIiIiMyBeyBhE/5bCImIiIiIiIiIiIaBtxASEREREREREZHUwr+BlbEOe44cwZ51GeojRERERERERETmwT2QsBmhbgi5sem4c+ZM4PJY9REiIiIiIiIiIvPgHkjYhP8KLCIiIiIiIiIiomHgBlZUOFDV1IOeHsWHuxPtbx/AU/mj1WEyDZF5F8nIaDTue/Z1NFzsutbnjobDeHZJqs6MWYnULltGPtbpK/HC6w3o6HQHnBsbc6zqqKGYtS6iSCipftd33nTW4hcmOmVkq0u2/oSKWesyjA11gb/zqj+aquBQv8YIzFoXkQTCfwshabvSjoPVp9ALIHFiDubPm4NVu+sx/sFsrK5Xh8k0ROZdJCORlIpXsbUsHd98fAqv7GlH/8QcFORloey5nfj2Qj6efF8sY1YitcuWkU7qBrxSuwaZ8X34qPkNHGr8EAn2IsyfPQfLH/85Xlz8Aj5Tv8YIzFoXUUSUYFFWMq5cugTvHXYUlAPbdqgzRiRbXbL1J1TMWpeBnKjG9ri/+T4fNwelS+1A+0FUn+r1tV05iwuDaeMwa11EEuAGVjT1u1FbWQn/fkRFSTXObMmFw7kKqOdPUNMKOu8fCGTkWxtl2emwoB27c4vxtGeg0ZqD/MwWnBzYDBHJmJVI7bJl5JKCij8/gsybe3H8kXz87LUvBtorYZ0+A3dcajLoJo9Z6yKKEEcBpiV70bnzj+h7aAuy5pYAO/arU8YjW12y9SdUzFqXkZzdh8qzA587qrB0qR1w16KyUsJ/rdXDrHURSUCKWwitpXvR5naj48AqxPLVu579R9B2BUiID7xVTGR8mDFWRklr3pVEMtF09TsvgDFIzVNU7DmNk6f9uyNiGT+RMTRSRqR22TJSyVgPR7oF/Wdewuprmzw+nvNNOK/qdrC58JMio7MuIgqUUfRDjIMLrTWH0HrJi+RpBUPelqN5DirIlBGtK1JE+3OjugC5MqJ1kTxuNKeAfBkyH857dEmxgZV2TyputViQdFs60tQHY0oS4uPUbWLjw4yxMoGGnvdAIpnoeXH7G+j2jsOCbY04uXc9Fo6//tu5SMZPZAyNlBGpXbaMVOalYQKAj87XQmRPJ9hc+EmR0VkXESml4IG7JgFdrajp9mBfswsYZ8fibHUuyDmoIE9GvK7IEO9P8Lp85MmI10XyCD6nPrJlyHw479E1Qt0QDW1ry/Gwewnijm1Hm/pgDLGuWgB7AvD5P1wB7SLjw4yxMkpa864kkokmz9GVcCx/Cnu2rMDdBb/CX86sRk/zLjz6k6fhv6hHJOMnMoZGyojULltGKiN/AAuA/r5u9ZEhBZsLPykyOusiIoWUh5EzFeitO+o7r2pa0bWiGDN/mgE0Bp6NmueggjQZHXVFhI7+BK1rgDQZHXWRPILO6QDZMmQ+nPfouikxMfFf6saQclShaXchULccM1byvl8fB6qadqMwYfBB3WPsRZg/+3YkfdOCrQsL8Uyn+jVkfCLzLpJRv69MrBi/cD22bi7B7NuTgO7DeDB79bVneYlnzEqkdtkyEvj1X+F+bAbcBxYiZ62JflUwa11EEWDdUIf31kzDB/W7cNwFALfhx+WLML17F7LzfgOjbgvLVpds/QkVs9ZlaGb9m9GsdVFwnPewkeIWwpiVbMdSpxNOpxPL7rkF31ysw6YlyyTfoKBhE5l3kYyUPPj7sQoUz5qBjf9xBZaUWSgt+j4ZsxKpXbaMBI674AYwwX4/UtTHjMysdRFFQPmPpsKCeEx2+H5WOp2LMD0RQFoWyiS/KzoY2eqSrT+hYta6iIjMTpINrFQsWbcOxdNj7CdGbx2W22yw2WywTZqMzPyVqBryqb0i48OMYTIi8y6SkYYV1utK9eDCJ30ARmFUEiCWUbrBGAIwTkakdtkykml7GWe6vLCkl2LnhlT10SFozYWSBBnddRGRTwnmpifA27IVaf6flTYbbBXvoN8yFbNXqM9HjXMwgAwZvXWFm97+aNWlJENGb10kD605VZItQ+bDeY8mKZ6BlfHcXvypeBJw/wR05KzlvaQqIuPDzCRDZcwlD9tOPY+7+11oOXcK738KjJkyD7m5E4Cv38Fbh0Qzg0TG0DgZkdply8imEU/89ihmb1uMzDUn0LygEeca2/DhV4mYmD0HtgtOFD4+OOLaczFIjoy+uohoQMkiZCUDruZ9gf8DhL0NeG/jLNgLyoFtO641a5+Dg6TI6Kwr7HT2R7MuBSkyOusieWjOqYJsGTIfznt0SXEFlqv+Arq9XvR9/C7kfER1dImMDzPGypjLZXS4euG9JQ25ywZue7zXhu8u1mHTkjLs8IhmBomMoXEyIrXLlpGP5+hq5BVtwqutl5EwcRYKy51wOkuRN2UE4kdOCchqz8UgWTJ66iIiH0fBNCSjC601qicVefah2QUkpM9FiaI52DnoJ0NGb13hprc/WnUpyZDRWxfJQ2tOlWTLkPlw3qOLD3EnIiIiIiIiIgoF7oGEjRRXYBEREREREREREWmxxMXFbVY3htS3VzHK24OWE2+iwfWl+igRERERERERkTlwDyRswn8LIRERERERERER0TDwFkIiIiIiIiIiIpJa+DewMtZhz5Ej2LMuQ32EiIiIiIiIiMg8uAcSNiPUDSE3Nh13zpwJXB6rPkJEREREREREZB7cAwmb8F+BRURERERERERENAzcwIoKB6qaetDTo/hwd6L97QN4Kn+0OiwJkT4zEzxDNzYa9z37Ohoudl0bw46Gw3h2SWoYMhScyBiKZELHOn0lXni9AR2d7oBzbGOOVR01FLPWRTRcJdXv+s6Jzlr8wkSnA+syFrPWJYUNdYG/O6s/mqrgUL/GCMxaF5EEwn8LIWm70o6D1afQCyBxYg7mz5uDVbvrMf7BbKyuV4clIdJnZoJnSFNKxavYWpaObz4+hVf2tKN/Yg4K8rJQ9txOfHshH0++H7oMBScyhiKZkEndgFdq1yAzvg8fNb+BQ40fIsFehPmz52D54z/Hi4tfwGfq1xiBWesiGrYSLMpKxpVLl+C9w46CcmDbDnXGiFiXsZi1LkmcqMb2uL/5Ph83B6VL7UD7QVSf6vW1XTmLC4Np4zBrXUQS4AZWNPW7UVtZCf++RkVJNc5syYXDuQqol/SnY9A+f8BM0IykcyqRsux0WNCO3bnFeNoz0GjNQX5mC04ObIaEKkPBiYyhSCY0UlDx50eQeXMvjj+Sj5+99sVAeyWs02fgjktNBt3kMWtdRCHgKMC0ZC86d/4RfQ9tQdbcEmDHfnXKeFiXsZi1Llmc3YfKswOfO6qwdKkdcNeistLg/+pr1rqIJCDFLYTW0r1oc7vRcWAVYvnKXM/+I2i7AiTEB95yJjI+kcwoafVZiZngGRp09TsvgDFIzVOsPs9pnDzt3x0JXcZPZM3HYkZkDEUyIZGxHo50C/rPvITV1zZ5fDznm3Be9eWC1eUnRUZnXUSxJKPohxgHF1prDqH1khfJ0wqGvOVG8/xSkCkjWpfRiNZ1o/EB5MqI1kWRcaP5AuTLkPlw3qNLig2stHtScavFgqTb0pGmPhhTkhAfp24TG59IZgIN3edAzJCYF7e/gW7vOCzY1oiTe9dj4fjrfyyEKuMnsuZjMSMyhiKZkJiXhgkAPjpfC5E9nWB1+UmR0VkXUexIwQN3TQK6WlHT7cG+Zhcwzo7F2epckPNLQZ6MeF3GIl5X8PHxkScjXhdFRvD58pEtQ+bDeY+uEeqGaGhbW46H3UsQd2w72tQHY4h11QLYE4DP/+EKaBcZn0hmlLT6rMRM8AwN8hxdCcfyp7BnywrcXfAr/OXMavQ078KjP3ka/ot6QpXxE1nzsZgRGUORTEiM/AEsAPr7utVHhhSsLj8pMjrrIooZKQ8jZyrQW3fUd87UtKJrRTFm/jQDaAw80zTPLwVpMjrqMhQddQUdnwHSZHTURZERdL4GyJYh8+G8R9dNiYmJ/1I3hpSjCk27C4G65Zixkvf9+jhQ1bQbhQmDD/weYy/C/Nm3I+mbFmxdWIhnOtWviTaRPjMTPHNtMOmGrBi/cD22bi7B7NuTgO7DeDB79bVni4U2Q8GJjKFIZhh+/Ve4H5sB94GFyFlrol8VzFoX0TBZN9ThvTXT8EH9Lhx3AcBt+HH5Ikzv3oXsvN/AqFu+rMtYzFqXtMz6N6NZ66LgOO9hI8UVWDEr2Y6lTrvv839+jU8u1uEPv3wUVTJvdIj0mZngGRLgwd+PVaD42O+xvOYcfnfvLJQWAfVHw5Gh4ETGUCQzDMddcD82AxPs9yMFbeb5o8GsdRENU/mPpsKCeEx2ODFZ+cChtCyUWYFnQnmFZwSxLmMxa11EREYmxTOwgFQsWbcOxdPD9PwUWfXWYbnNBpvNBtukycjMX4mqIZ/aKzI+EcqI9JmZ4BnSYIX1umXnwYVP+gCMwqgkIHQZpRuseQCxlxEZQ5FMiLS9jDNdXljSS7FzQ6r66BC06lKSIKO7LqJYUIK56QnwtmxFmv/nqc0GW8U76LdMxewV6nNN4/wKIENGb11GobcurfFRkiGjty6KDK35UpItQ+bDeY8mKa7AynhuL/5UPAm4fwI6ctbyXlIVkfGJZIYoPPKw7dTzuLvfhZZzp/D+p8CYKfOQmzsB+PodvHUolJlBIms+9jIiYyiSCZVGPPHbo5i9bTEy15xA84JGnGtsw4dfJWJi9hzYLjhR+Phg77XrGiRHRl9dRDGhZBGykgFX877A/7nB3ga8t3EW7AXlwLYd15q1z69BUmR01mUYOuvSHB8FKTI666LI0JwvBdkyZD6c9+iS4gosV/0FdHu96Pv4XfBR19cTGZ9IZojC4zI6XL3w3pKG3GVOOJ1OLLvXhu8u1mHTkjLs8IQyM0hkzcdeRmQMRTKh4zm6GnlFm/Bq62UkTJyFwnInnM5S5E0ZgfiRUwKy2nUNkiWjpy6iWOAomIZkdKG1RnVTrWcfml1AQvpclCiag51ffjJk9NZlFHrr0hofJRkyeuuiyNCaLyXZMmQ+nPfo4kPciYiIiIiIiIhCgXsgYSPFFVhERERERERERERaLHFxcZvVjSH17VWM8vag5cSbaHB9qT5KRERERERERGQO3AMJm/DfQkhERERERERERDQMvIWQiIiIiIiIiIikFv4NrIx12HPkCPasy1AfISIiIiIiIiIyD+6BhM0IdUPIjU3HnTNnApfHqo8QEREREREREZkH90DCJvxXYBEREREREREREQ0DN7CiwoGqph709Cg+3J1of/sAnsofrQ5Lwoh9JgpmNO579nU0XOy6tp47Gg7j2SWpBs/IJnR9tk5fiRdeb0BHpzvge9DGHKs6aihmrYsomJLqd33rvbMWvzDRUhepi5ngGSMya11ht6HON25aH01VcKhfYwRmrYtIAtzAiqYr7Ti4fTu2b9+OvW+8j/9KmYNVu+vxoszf0YzYZ6IhpFS8iq1ld+G//ecZvDKwnr+6NQtlz+1E5RTjZmQTsj6nbsArtf8T99+ZjC/Ov4G927fjlb99ipG3z8Hyx3+OW9V5ozBrXURBlWBRVjKuXLqEzxPsKChXHzcqkbqYCZ4xIrPWFQEnqrF94O+K7QfbcQXAlfaDg23/61VcUL/GCMxaF5EEwv8MLNLW70ZtZSXqB/6zoqQaZ7bkwuFcBdTvCIhKw4h9JhpCWXY6LGjH7txiPO0ZaLTmID+zBSffN25GNqHpcwoq/vwIMm/uxfFH8vGz174YaK+EdfoM3HGpCZ8F5I3CrHUR3YCjANOSvejc+Uf0PbQFWXNLgB371SnjEamLmeAZIzJrXZFwdh8qzw587qjC0qV2wF2Lykr/XxoGZda6iCQgxRVY1tK9aHO70XFgFWL5qlvP/iNouwIkxAfekicyPpHMKGn1mUh2V7/zAhiD1DzFSvecxsnT/l0WY2b8RM7lSGT09FlTxno40i3oP/MSVl/b5PHxnG/5WdaPAAAgAElEQVTCedVbBeuPnxQZnXURmUVG0Q8xDi601hxC6yUvkqcVDHk7jea5oyBTRqQuZoJngBuPMyBXRrQuGr4bzQUgX4bMh/MeXVJsYKXdk4pbLRYk3ZaONPXBmJKE+Dh1m9j4RDITaOg+E8nuxe1voNs7Dgu2NeLk3vVYOP76H0FGzPiJnMuRyOjps6Z5aZgA4KPztRDZ0wnWHz8pMjrrIjKHFDxw1ySgqxU13R7sa3YB4+xYnK3OBTl3FOTJiNTFTPCMT/Bx9pEnI14XDV/wufCRLUPmw3mPrhHqhmhoW1uOh91LEHdsO9rUB2OIddUC2BOAz//hCmgXGZ9IZpS0+kwkO8/RlXAsfwp7tqzA3QW/wl/OrEZP8y48+pOn4b84yIgZP5FzORIZPX3WNPIHsADo7+tWHxlSsP74SZHRWReRKaQ8jJypQG/dUd/5UNOKrhXFmPnTDKAx8CzSPHcUpMmI1MVM8MyAoOM8QJqMjrpo+ILOxQDZMmQ+nPfouikxMfFf6saQclShaXchULccM1byvl8fB6qadqMwoR0Hq0+hF8AYexHmz74dSd+0YOvCQjzTqX5NtBmxz0QirBi/cD22bi7B7NuTgO7DeDB79bXnvBk3I5th9PnXf4X7sRlwH1iInLUm+lXBrHURBWHdUIf31kzDB/W7cNwFALfhx+WLML17F7LzfgOjbueK1MVM8IwRmbWuqDDr34xmrYuC47yHjRRXYMWsZDuWOu2+z//5NT65WIc//PJRVMm8EWTEPhMF5cHfj1Wg+NjvsbzmHH537yyUFgH1R42ekc0w+nzcBfdjMzDBfj9S0GaePwjMWhdREOU/mgoL4jHZ4cRk5YOC0rJQZgWeEb0yUzIidTETPGNEZq2LiEhWUjwDC0jFknXrUDz9ezwbxch667DcZoPNZoNt0mRk5q9E1ZBP7RUZnwhlhPtMJDMrrNctcQ8ufNIHYBRGJQHGzCjd4FwGEP6M3j5raHsZZ7q8sKSXYueGVPXRIWj1R0mCjO66iIyuBHPTE+Bt2Yo0/+8SNhtsFe+g3zIVs1eozyONcyeADBmRupgJnlHSGmclGTJ666Lh05oLJdkyZD6c92iS4gqsjOf24k/Fk4D7J6AjZy3vJVURGZ9IZoiMLw/bTj2Pu/tdaDl3Cu9/CoyZMg+5uROAr9/BW4eMmhkkci6HP6Ovz9oa8cRvj2L2tsXIXHMCzQsaca6xDR9+lYiJ2XNgu+BE4eODX1W7P4PkyOiri8jwShYhKxlwNe8L/B8X7G3AextnwV5QDmzbca1Z+9wZJEVGpK7P5zITLGPWeVfURcOnORcKsmXIfDjv0SXFFViu+gvo9nrR9/G74KPArycyPpHMEBnfZXS4euG9JQ25y5xwOp1Ydq8N312sw6YlZdjhMWpmkMi5HP6Mvj4H4zm6GnlFm/Bq62UkTJyFwnInnM5S5E0ZgfiRUwKy2v0ZJEtGT11ERucomIZkdKG1RnXDrGcfml1AQvpclCiag507fjJkROp6mpmgGbPOu7IuGj6tuVCSLUPmw3mPLj7EnYiIiIiIiIgoFLgHEjZSXIFFRERERERERESkxRIXF7dZ3RhS317FKG8PWk68iQbXl+qjRERERERERETmwD2QsAn/LYRERERERERERETDwFsIiYiIiIiIiIhIauHfwMpYhz1HjmDPugz1ESIiIiIiIiIi8+AeSNiMUDeE3Nh03DlzJnB5rPoIEREREREREZF5cA8kbMJ/BRYREREREREREdEwcAMrKhyoaupBT4/iw92J9rcP4Kn80eqwJIzYZyKzGY37nn0dDRe7rp2DHQ2H8eySVHXQYMTqsk5fiRdeb0BHpzvge9DGHGtAzmjMWhfFrpLqd31rubMWv+AyJgLA82JIG+oC/7ZQfzRVwaF+jRGYtS4iCYT/FkLSdqUdB6tPoRdA4sQczJ83B6t212P8g9lYXa8OS8KIfSYyiZSKV7G1LB3ffHwKr+xpR//EHBTkZaHsuZ349kI+nnxf/QpjEKordQNeqV2DzPg+fNT8Bg41fogEexHmz56D5Y//HC8ufgGfqd/YCMxaF8WwEizKSsaVS5fgvcOOgnJg2w51hijW8LwY0olqbI/7m+/zcXNQutQOtB9E9aleX9uVs7gwmDYOs9ZFJAFuYEVTvxu1lZXw7/tUlFTjzJZcOJyrgHpJf6oZsc9EJlGWnQ4L2rE7txhPewYarTnIz2zBSYNuXgEidaWg4s+PIPPmXhx/JB8/e+2LgVAlrNNn4I5LTQbd5DFrXRTTHAWYluxF584/ou+hLciaWwLs2K9OEcUWnhdDO7sPlWcHPndUYelSO+CuRWWlwf9V3Kx1EUlAilsIraV70eZ2o+PAKsTyFbWe/UfQdgVIiA+8JU9kfCKZUdLqMxGF3tXvvADGIDVPcXZ6TuPkaf+uzyCRc1mWzA3rylgPR7oF/WdewuprmzwDsfNNOK8qP9jX8pMio7MuIiPIKPohxsGF1ppDaL3kRfK0giFvldE8LxSYYcYsGdHzgoK70TgD8mXIfDjv0SXFBlbaPam41WJB0m3pSFMfjClJiI9Tt4mNTyQzgYbuMxGF3ovb30C3dxwWbGvEyb3rsXC89o9NkXNZlswN65qXhgkAPjpfC5E9nWBfy0+KjM66iOSXggfumgR0taKm24N9zS5gnB2Ls9W5IOeFAjPMmCMjfl5QcMHH2Ue2DJkP5z26RqgboqFtbTkedi9B3LHtaFMfjCHWVQtgTwA+/4croF1kfCKZUdLqMxGFnufoSjiWP4U9W1bg7oJf4S9nVqOneRce/cnTUF+EJXIuy5K5YV0jfwALgP6+btUrhxbsa/lJkdFZF5H0Uh5GzlSgt+6ob63XtKJrRTFm/jQDaAw8QzTPCwVmmDFFRsd5QcEFHecBsmXIfDjv0XVTYmLiv9SNIeWoQtPuQqBuOWas5H2/Pg5UNe1GYcLgA9HH2Iswf/btSPqmBVsXFuKZTvVros2IfSYyKyvGL1yPrZtLMPv2JKD7MB7MXn3t2XTGpVHXr/8K92Mz4D6wEDlrTfSrglnrophl3VCH99ZMwwf1u3DcBQC34cflizC9exey834DbtVSLOJ5IcisfzOatS4KjvMeNlJcgRWzku1Y6rT7Pv/n1/jkYh3+8MtHUSXzRpAR+0xkOh78/VgFio/9HstrzuF3985CaRFQf1SdMxqNuo674H5sBibY70cK2szzy75Z66KYVf6jqbAgHpMdTkxWPuAnLQtlVuAZ3itLMYjnBRFR6EjxDCwgFUvWrUPxdO3nuZhSbx2W22yw2WywTZqMzPyVqBryqb0i4xOhjHCfiSi0rLBed1p6cOGTPgCjMCpJfewG5zIAOTICdbW9jDNdXljSS7FzQ6o6PAStr6UkQUZ3XUQyK8Hc9AR4W7Yizf97gs0GW8U76LdMxewV6nNE47wIwAwzWoyS0XteUHBa46wkW4bMh/MeTVJcgZXx3F78qXgScP8EdOSs5b2kKiLjE8kMEUVDHradeh5397vQcu4U3v8UGDNlHnJzJwBfv4O3DgWmRc5lOTIidTXiid8exexti5G55gSaFzTiXGMbPvwqEROz58B2wYnCxwffUftrDZIjo68uIqmVLEJWMuBq3hf4PyXY24D3Ns6CvaAc2LbjWrP2eTGImUnMGD2j87yg4DTHWUG2DJkP5z26pLgCy1V/Ad1eL/o+fhd8FPj1RMYnkhkiiobL6HD1wntLGnKXOeF0OrHsXhu+u1iHTUvKsEN1IaTIuSxHRqwuz9HVyCvahFdbLyNh4iwUljvhdJYib8oIxI+cEvCO2l9rkCwZPXURycxRMA3J6EJrjepmWM8+NLuAhPS5KFE0Bzsv/JhhxugZvecFBac1zkqyZch8OO/RxYe4ExERERERERGFAvdAwkaKK7CIiIiIiIiIiIi0WOLi4jarG0Pq26sY5e1By4k30eD6Un2UiIiIiIiIiMgcuAcSNuG/hZCIiIiIiIiIiGgYeAshERERERERERFJLfwbWBnrsOfIEexZl6E+QkRERERERERkHtwDCZsR6oaQG5uOO2fOBC6PVR8hIiIiIiIiIjIP7oGETfivwCIiIiIiIiIiIhoGbmBFhQNVTT3o6VF8uDvR/vYBPJU/Wh2WhBH7TGQ2o3Hfs6+j4WLXtXOwo+Ewnl2Sqg4aTOjqsk5fiRdeb0BHpzvg+9TGHKs6aihmrStURMbHiBkZlVS/6+tvZy1+IXdXdRGpixljZYzIrHVp2lDnq1fro6kKDvVrjMCsdRFJgBtY0XSlHQe3b8f27dux94338V8pc7Bqdz1elPk7mhH7TGQSKRWvYmvZXfhv/3kGrwycg1/dmoWy53aicoo6bRwhqyt1A16p/Z+4/85kfHH+Dezdvh2v/O1TjLx9DpY//nPcqs4bhVnrChWR8TFiRkolWJSVjCuXLuHzBDsKytXHjUqkLmaMlTEis9YVxIlqbB/4u2L7wXZcAXCl/eBg2/96FRfUrzECs9ZFJIHwPwOLtPW7UVtZifqB/6woqcaZLblwOFcB9TsCotIwYp+JTKIsOx0WtGN3bjGe9gw0WnOQn9mCk+8HRA0lNHWloOLPjyDz5l4cfyQfP3vti4H2Slinz8Adl5rwWUDeKMxaV6iIjI8RM5JyFGBashedO/+Ivoe2IGtuCbBjvzplPCJ1MWOsjBGZta5gzu5D5dmBzx1VWLrUDrhrUVnp/0vDoMxaF5EEpLgCy1q6F21uNzoOrEIsXC2rxbP/CNquAAnxgbfkiYxPJDNKWn0motC7+p0XwBik5inOTs9pnDzt3/UZJHIuy5LRU5emjPVwpFvQf+YlrL62IeDjOd+E86q3CtYfPykyOuuKOSLjY8SMpDKKfohxcKG15hBaL3mRPK1gyNtgNNezgkwZkbqYMVYGuPG8A3JlROuKZTcaQ0C+DJkP5z26pNjASrsnFbdaLEi6LR1p6oMxJQnxceo2sfGJZCbQ0H0motB7cfsb6PaOw4JtjTi5dz0Wjtf+sSlyLsuS0VOXpnlpmADgo/O1EPn7P1h//KTI6Kwr5oiMjxEzUkrBA3dNArpaUdPtwb5mFzDOjsXZ6lyQ9awgT0akLmaMlfEJPu8+8mTE64plwcfQR7YMmQ/nPbpGqBuioW1tOR52L0Hcse1oUx+MIdZVC2BPAD7/hyugXWR8IplR0uozEYWe5+hKOJY/hT1bVuDugl/hL2dWo6d5Fx79ydNQX6wkci7LktFTl6aRP4AFQH9ft/rIkIL1x0+KjM66Yo7I+BgxI6OUh5EzFeitO+pbozWt6FpRjJk/zQAaA1e25npWkCYjUhczxsoMCDrvA6TJ6KgrlgUdwwGyZch8OO/RJcUGFtCJ2i1b1I3mlzABS558ErMAjLEXYf7s23Hz1y2o2vyqKigyPhHKCPeZiMLhi5MVWJz1e4xfuB5bN5dg9t0Po+at2/Bg9uprz6bzucG5DECmjHhdGq5+By+A0eMzAKFfJ4L3x0eCjO66YozI+BgxIyFrWRbS8A0+GDkLTz45C0ACvv4KmH7XA0hBGwK34zTWcwA5MiJ1MWOszCDteR8kR0ZfXbFMewwHyZYh8+G8R5MkG1gxKtmOpU677/N/fo1PLtbhD798FFWdgTGpGLHPRKbjwd+PVaD42O+xvOYcfnfvLJQWAfVH1TmjGUZdx11wPzYDE+z3m+uXfbPWFSoi42PEjITKfzQVFsRjssOJyQ7FgbQslFmBZ0SvlpSMSF3MGCtjRGati4go1KR4BhaQiiXr1qF4+vd47omR9dZhuc0Gm80G26TJyMxfiaohn94qMj4Rygj3mYhCywrrdaelBxc+6QMwCqOS1MducC4DkCOjty4NbS/jTJcXlvRS7NyQqj46BK3+KEmQ0V1XjBEZHyNmpFOCuekJ8LZsRZr/dwCbDbaKd9BvmYrZK9RrW2M9B5AhI1IXM8bKKGnNu5IMGb11xTKtMVSSLUPmw3mPJimuwMp4bi/+VDwJuH8COnLWwjgX1EeGyPhEMkNE0ZCHbaeex939LrScO4X3PwXGTJmH3NwJwNfv4K1DgWmRc1mOjL66tDXiid8exexti5G55gSaFzTiXGMbPvwqEROz58B2wYnCxwe/qnZ/BsmR0VdX7BEZHyNmJJvTkkXISgZczfsCHzy/twHvbZwFe0E5sG3HtWbt9TxIioxIXZ/PZcZIGbOuQ0VdsUxzDBVky5D5cN6jS4orsFz1F9Dt9aLv43fBR4FfT2R8Ipkhomi4jA5XL7y3pCF3mRNOpxPL7rXhu4t12LSkDDtUF0KKnMtyZPTVFYzn6GrkFW3Cq62XkTBxFgrLnXA6S5E3ZQTiR04JyGr3Z5AsGT11xSKR8TFiRiaOgmlIRhdaa1Q3PHr2odkFJKTPRYmiOdh69pMhI1LX08wYKmPWdaisK5ZpjaGSbBkyH857dN2UmJj4L3VjSDmq0LS7EKhbjhkrhR7FS0RERERERERkPNwDCRsprsAiIiIiIiIiIiLSYomLi9usbgypb69ilLcHLSfeRIPrS/VRIiIiIiIiIiJz4B5I2IT/FkIiIiIiIiIiIqJh4C2EREREREREREQktfBvYGWsw54jR7BnXYb6CBERERERERGReXAPJGxGqBtCbmw67pw5E7g8Vn2EiIiIiIiIiMg8uAcSNuG/AouIiIiIiIiIiGgYuIGliwNVTT3o6VF8uDvR/vYBPJU/WkfGrERqF8lQ5IzGfc++joaLXdfmoqPhMJ5dkhoDGSNiXaFgnb4SL7zegI5Od8D3oI05VnXUUETqiuWMbGTsc0n1u76+dNbiF9HrRsiZtS4KzqzzLkVdG+p8fdD6aKqCQySjft9YIjI+Ihn1+xKZnCUuLm6zujGkUhdj1dLJwMVa7Dj8gfqowaRi8aqlmOxtx8Fdr+Hfzp5Fx2dW3JF5D+betwST/89O/PUDkYz6fc1CpHaRjPp9KVxSKo7i1RV3YuQnf8Phl4/i3GdW3Db9Lvz3wv+O0XW78b//Yd6MEbGuEEjdgEN//R/It92Ey23/G4cPHcfFf6Zgyp12ZKV9jf37z8Cjfo0RiNQVyxn1eEWblH0uwRNPL8b/9fdL8IxJRfJ/Po+ac+qMEZm1LgrOrPMuSV3f3gTrFy6cPXsWZz+Ox5T0sfi2/SB2vfZvvraGE3jz3zvhvVGmwYUv1e8dKziG5maqPRC5hP8ZWGbU70ZtZSXqB/6zoqQaZ7bkwuFcBdQPLNCgmR0DrSYVtHaOj0zKstNhQTt25xbjaf9fS9Yc5Ge24OT75s4YEesarhRU/PkRZN7ci+OP5ONnr30x0F4J6/QZuONSEz4LyBuFSF2xnJGNpH12FGBashedO/+Ivoe2IGtuCbBjvzplPGati4Iz67zLUtfZfag8O/C5owpLl9oBdy0qK/2/2fuIZGIWx5Doe5HiFkJr6V60ud3oOLAK0boSdjg8+4+g7QqQEK99C5xWRqR2I2aUtGpXEslQ6F39zgtgDFLzFDPpOY2Tpwf/7d+sGSPSU5fIeSpLRk9dw5KxHo50C/rPvITV1zYNfDznm3Be9eWC9dlPioxIXbGcUdAcQ4WwZ3T2OVIyin6IcXChteYQWi95kTytYMhbUzTrUpApI1oXmYvovN9o/QByZUTrMqIb1Q6YN0PGwjmNLik2sNLuScWtFguSbktHmvqgISQhPk7dpjZ0RqR2I2YCDV17IJEMhdqL299At3ccFmxrxMm967Fw/PXfhs2aMSI9dYmcp7Jk9NQ1LPPSMAHAR+drhW7PCtZnPykyInXFckZBcwwVwp7R2efISMEDd00CulpR0+3BvmYXMM6OxdnqXJC6FOTJiNdFZiI+78HXj488GfG6jCh47T5mzZCxcE6ja4S6IRra1pbjYfcSxB3bjjb1QQOwrloAewLw+T9c6kPXaGVEajdiRkmrdiWRDIWe5+hKOJY/hT1bVuDugl/hL2dWo6d5Fx79ydPwX/xi1owR6alL5DyVJaOnrmEZ+QNYAPT3dauPDClYn/2kyIjUFcsZBc0xVAh7RmefIyLlYeRMBXrrjvr6WtOKrhXFmPnTDKAxsELNuhSkyeioi0xEx7wHXT8DpMnoqMuIgtY+wKwZMhbOaXTdlJiY+C91Y0g5qtC0uxCoW44ZK41+v64DVU27UZjQjoPVp9ALYIy9CPNn346kb1qwdWEhnukUyajf1yxEahfJqN+Xws+K8QvXY+vmEsy+PQnoPowHs1dfe0aZuTNGxLq+l1//Fe7HZsB9YCFy1proVw6RumI5IxsJ+2zdUIf31kzDB/W7cNwFALfhx+WLML17F7LzfgOJttp0MWtdFJxZ513aukT+1hPJxDKR8RHJkDw4X2EjxS2EhpNsx1KnE06nE8vuuQXfXKzDpiXLAjdeRDJmJVK7SIYiyIO/H6tA8awZ2PgfV2BJmYXSoljJGBHr+l6Ou+AGMMF+P1LUx4xMpK5YzshGwj6X/2gqLIjHZIfv57LTuQjTEwGkZaEsTHf0RoJZ66LgzDrvZq2LiEgPSTawUrFk3ToUTzfId9/eOiy32WCz2WCbNBmZ+StRpX7qqkgGgFjtBsuI1C6SoTCzwnrdFHpw4ZM+AKMwKgkwb8aI9NZ1g/MUgBwZvXUNQ9vLONPlhSW9FDs3pKqPDkGrz0oSZETqiuVMAI0xDBDmjO4+h1sJ5qYnwNuyFWn+n8s2G2wV76DfMhWzV6hr1KgrgAwZvXWROeidd631oyRDRm9dRqRVu5JZM2QsnNNokuIZWBnP7cWfiicB909AR87amLqXVKR2I2bICPKw7dTzuLvfhZZzp/D+p8CYKfOQmzsB+PodvHXIzBkj0leXyHkqR0ZfXcPTiCd+exSzty1G5poTaF7QiHONbfjwq0RMzJ4D2wUnCh8f7Jl2nwfJkRGpK5Yzss2pvj6HXckiZCUDruZ9CPhnpL0NeG/jLNgLyoFtO641a9c1SIqMzrrIJHTOu+b6UZAio7MuI9KsXcGsGTIWzml0SXEFlqv+Arq9XvR9/C5i7RHeIrUbMUNGcBkdrl54b0lD7rKB2znvteG7i3XYtKQMOzxmzhiRvrpEzlM5MvrqGi7P0dXIK9qEV1svI2HiLBSWO+F0liJvygjEj5wSkNXu8yBZMiJ1xXLGL9gY+kUio6fP4eYomIZkdKG1RvUEHc8+NLuAhPS5KFE0B6vLT4aM3rrIHPTOu9b6UZIho7cuI9KqXcmsGTIWzml08SHuREREREREREShwD2QsJHiCiwiIiIiIiIiIiItlri4uM3qxpD69ipGeXvQcuJNNLi+VB8lIiIiIiIiIjIH7oGETfhvISQiIiIiIiIiIhoG3kJIRERERERERERSC/8GVsY67DlyBHvWZaiPEBERERERERGZB/dAwmaEuiHkxqbjzpkzgctj1UeIiIiIiIiIiMyDeyBhE/4rsIiIiIiIiIiIiIaBG1i6OFDV1IOeHsWHuxPtbx/AU/mj1WEaEsdQLqNx37Ovo+Fi17W56Gg4jGeXpKqDJiRSuxEzRiRfXdbpK/HC6w3o6HQHfJ/amGPVlSHSEun1U1L9ru/rdNbiF+H5ElFh1rooMsy6fsJe14Y63/trfTRVwaF+DenHcSa6TvhvITSjK+04WH0KvQASJ+Zg/rw5WLW7HuMfzMbqenWYhsQxlEJKxavYWpaObz4+hVf2tKN/Yg4K8rJQ9txOfHshH0++r36FeYjUbsSMEUlXV+oGvFK7Bpnxffio+Q0cavwQCfYizJ89B8sf/zleXPwCPhPJqN+XyC/i66cEi7KSceXSJXjvsKOgHNi2Q50xIrPWRZFh1vUTgbpOVGN73N98n4+bg9KldqD9IKpP9frarpzFhcE0fV8cZ6LrcAPr++h3o7ayEv59loqSapzZkguHcxVQH+qfECbFMZRCWXY6LGjH7txiPO0ZaLTmID+zBScjvWkQYSK1GzFjRHLVlYKKPz+CzJt7cfyRfPzstS8G2ithnT4Dd1xqwmdCGSItUVg/jgJMS/aic+cf0ffQFmTNLQF27FenjMesdVFkmHX9RKKus/tQeXbgc0cVli61A+5aVFbyX6FDiuNMdB0pbiG0lu5Fm9uNjgOrEI6rXMPNs/8I2q4ACfGBt8CJ1BXLGSWtMaTwuvqdF8AYpOYpZslzGidP+3cRBonMqZEyIrUbMeMXrHY/WTJ66gq7jPVwpFvQf+YlrL62seDjOd+E8x7BjEKw2v2YiaGMzvUTChlFP8Q4uNBacwitl7xInlYw5G0nmn1WkCkjWhfRUETXz43WISBXRrSuSLpRnwFmbpQheXC+okuKDay0e1Jxq8WCpNvSkaY+aAhJiI9Tt4nVFcuZQEOPIYXXi9vfQLd3HBZsa8TJveuxcLz2t2GROTVSRqR2I2b8gtXuJ0tGT11hNy8NEwB8dL4WmvsIIhmFYLX7MRNDGZ3rZ/hS8MBdk4CuVtR0e7Cv2QWMs2NxtjoXpM8K8mTE6yK6nvj6Cb4OfeTJiNcVScH77MNM8AzJg/MVXZa4uLjN6saQSl2MVUsnAxdrsePwB+qjAIDLx/4NnfhP1P+/z+Dkp1fVhyWSisWrlmIyLqJ2x2H4q7Gu+g2emncbvjr/Mv508N1raZG6Yi+jbwwpvK5ePIz/rzURP/rxPciwz8H/s/IhlOQl4f8c+ne4VVOrPaeDjJQRqd2IGb9gtfvJktFTV9j9uAzrZ43Dx/++GS+/rT44QCSjEKx2P2ZiKKNz/QxbyuN48n9k4b9OP4v/efgDfPlZFu4vy4HNUo+Xjl0OiGr2WUGajI66iK6jY/0EXYcDpMnoqCtkQvS3HjPBMyLjTJHB+YqumxITE/+lbgwpRxWadhcCdcsxY2W9+qjBOFDVtBuFCYMPIB9jL8L82bcj6ZsWbF1YiGc61a+hQBxDOVkxfuF6bN1cgtm3JwHdh/Fg9uprzygzN5HajZgxIixEJbQAACAASURBVAnq+vVf4X5sBtwHFiJnbZv6qI9IhkhLhNePdUMd3lszDR/U78JxFwDchh+XL8L07l3IzvsNutUvMAiz1kWRYdb1E5W6TPW3nsQ4zsbC+QobKW4hNJxkO5Y6nXA6nVh2zy345mIdNi1Zxo0XPTiGkvHg78cqUDxrBjb+xxVYUmahtEidMSuR2o2YMSIJ6jrughvABPv9SFEf8xPJEGmJ8Pop/9FUWBCPyQ7fz1yncxGmJwJIy0JZFO/WHS6z1kWRYdb1Y9a6iIj8JNnASsWSdetQPN0g31l767DcZoPNZoNt0mRk5q9E1ZBPXRWpK0YzwmNI4WOF9brp8eDCJ30ARmFUkvrYDeYUgHEyIrUbMaOkVbuSDBm9dYVZ28s40+WFJb0UOzekqo/6iGQCaNWuxEzMZHSvn+Eowdz0BHhbtiLN/zPXZoOt4h30W6Zi9gp1/zX6HECGjN66iJT0rh+tdagkQ0ZvXZGk1WclZoJnSB6cr2gaoW6Ihozn9uJPxZOA+yegI2ctwn9BfWSI1BXLGYq2PGw79Tzu7neh5dwpvP8pMGbKPOTmTgC+fgdvHQpMi8ypcTIitRsxM0i79kFyZPTVFX6NeOK3RzF722JkrjmB5gWNONfYhg+/SsTE7DmwXXCi8HGRzGCF2rUPYmZSDGX0rZ9hKVmErGTA1bwPAf9EtLcB722cBXtBObBtx7Vm7T4PkiKjsy6iADrXj+Y6VJAio7OuSNLsswIzk4JmSB6cr+iS4gosV/0FdHu96Pv4XbjUBw1MpK5YzlC0XUaHqxfeW9KQu2zgds57bfjuYh02LSnDDtUFcSJzapyMSO1GzAzSrn2QHBl9dUWC5+hq5BVtwqutl5EwcRYKy51wOkuRN2UE4kdOEc74adc+iJnYyuhZP8PhKJiGZHShtUb15BvPPjS7gIT0uShRNAfrs58MGb11ESnpXT9a61BJhozeuiJJq89KzATPkDw4X9HFh7gTEREREREREYUC90DCRoorsIiIiIiIiIiIiLRY4uLiNqsbQ+rbqxjl7UHLiTfR4PpSfZSIiIiIiIiIyBy4BxI24b+FkIiIiIiIiIiIaBh4CyEREREREREREUkt/BtYGeuw58gR7FmXoT5CRERERERERGQe3AMJmxHqhpAbm447Z84ELo9VHyEiIiIiIiIiMg/ugYRN+K/AIiIiIiIiIiIiGgZuYOniQFVTD3p6FB/uTrS/fQBP5Y9Wh2lIHEO5jMZ9z76Ohotd1+aio+Ewnl2Sqg4SDUFk/YhkzMs6fSVeeL0BHZ3ugO93G3OsIc+QsYRyTkuq3/W9R2ctfqH/5dIya11kLGZdh8Oqa0Nd4O/y6o+mKjjUryH9OM5E1wn/LYRmdKUdB6tPoRdA4sQczJ83B6t212P8g9lYXa8O05A4hlJIqXgVW8vS8c3Hp/DKnnb0T8xBQV4Wyp7biW8v5OPJ99WvIBoksn5EMqaVugGv1K5BZnwfPmp+A4caP0SCvQjzZ8/B8sd/jhcXv4DPQpVRf22SW0jntASLspJx5dIleO+wo6Ac2LZDnTEis9ZFxmLWdTjMuk5UY3vc33yfj5uD0qV2oP0gqk/1+tqunMWFwTR9XxxnoutwA+v76HejtrIS/n2WipJqnNmSC4dzFVCv57t/DOMYSqEsOx0WtGN3bjGe9gw0WnOQn9mCk2beWKCQEFk/IhlzSkHFnx9B5s29OP5IPn722hcD7ZWwTp+BOy414bOQZchYQjynjgJMS/aic+cf0ffQFmTNLQF27FenjMesdZGxmHUdDreus/tQeXbgc0cVli61A+5aVFbyX6FDiuNMdB0pbiG0lu5Fm9uNjgOroPcKVhl49h9B2xUgIT7wFjiRumI5o6Q1hhReV7/zAhiD1DzFLHlO4+Rp/07DIJE5ZSa2MiLrRyRjShnr4Ui3oP/MS1h9bYPCx3O+Cec9IcwoBJsvP2ainNE5pzeSUfRDjIMLrTWH0HrJi+RpBUPeUqLZHwWZMqJ1EYWT6Dq80XoG5MqI1hUqN+oPwMyNMiQPzld0SbGBlXZPKm61WJB0WzrS1AcNIQnxceo2sbpiORNo6DGk8Hpx+xvo9o7Dgm2NOLl3PRaO1/42LDKnzMRWRmT9iGRMaV4aJgD46HwtNPcjQpVRCDZffsxEOaNzToNLwQN3TQK6WlHT7cG+Zhcwzo7F2epckP4oyJMRr4sofMTXYfD17CNPRryuUAneHx9mgmdIHpyv6BqhboiGtrXleNi9BHHHtqNNfdAArKsWwJ4AfP4PV0C7SF2xnFHSGkMKL8/RlXAsfwp7tqzA3QW/wl/OrEZP8y48+pOnob5ARmROmYmtjMj6EcmY0sgfwAKgv69bfWRQqDIKwebLj5koZ3TOaVApDyNnKtBbd9T3NWpa0bWiGDN/mgE0BvZMsz8K0mR01EUUNjrWYdD1PECajI66QiVofwYwEzxD8uB8RddNiYmJ/1I3hpSjCk27C4G65Zix0uj36zpQ1bQbhQmDDyAfYy/C/Nm3I+mbFmxdWIhnOtWvoUAcQzlZMX7hemzdXILZtycB3YfxYPbqa88oIwpOZP2IZEzk13+F+7EZcB9YiJy1Gr/ehCpDxhLCObVuqMN7a6bhg/pdOO4CgNvw4/JFmN69C9l5v0EItsiiwqx1kbGYdR2GvC5T/a0nMY6zsXC+wkaKK7AMJ9mOpU677/N/fo1PLtbhD798FFXceBHHMZSMB38/VoHiY7/H8ppz+N29s1BaBNQfVeeIhiKyfkQyJnLcBfdjMzDBfj9S0Db0HwShypCxhHBOy380FRbEY7LDicnKB9ikZaHMCjxj0KsczVoXGYtZ16FZ6yKi2CDFM7CAVCxZtw7F0w3ybJTeOiy32WCz2WCbNBmZ+StRNeRTV0XqitGM8BhS+FhhvW56PLjwSR+AURiVpD52gzkFwEwsZUTWj0jGpNpexpkuLyzppdi5IVV91CdUmQBa86XETFQzuudUSwnmpifA27IVaf6fpzYbbBXvoN8yFbNXqPum0Z8AMmT01kUUDnrXodZ6VpIho7euUNHqjxIzwTMkD85XNElxBVbGc3vxp+JJwP0T0JGz1jT3korUFcsZirY8bDv1PO7ud6Hl3Cm8/ykwZso85OZOAL5+B28dCkyLzCkzk2IoI7J+RDJm1YgnfnsUs7ctRuaaE2he0IhzjW348KtETMyeA9sFJwofD1VmcFa052sQM5OinNE3p5pKFiErGXA17wt8GPzeBry3cRbsBeXAth3XmrX7M0iKjM66iMJC5zrUXM8KUmR01hUqmv1RYGZS0AzJg/MVXVJcgeWqv4Burxd9H78LMz3CW6SuWM5QtF1Gh6sX3lvSkLvMCafTiWX32vDdxTpsWlKGHaoL4kTmlJlYyoisH5GMeXmOrkZe0Sa82noZCRNnobDcCaezFHlTRiB+5JSQZvy052sQM9HP6JlTLY6CaUhGF1prVDchevah2QUkpM9FiaI5WH/8ZMjorYsoHPSuQ631rCRDRm9doaLVHyVmgmdIHpyv6OJD3ImIiIiIiIiIQoF7IGEjxRVYREREREREREREWixxcXGb1Y0h9e1VjPL2oOXEm2hwfak+SkRERERERERkDtwDCZvw30JIREREREREREQ0DLyFkIiIiIiIiIiIpBb+DayMddhz5Aj2rMtQHyEiIiIiIiIiMg/ugYTNCHVDyI1Nx50zZwKXx6qPEBERERERERGZB/dAwib8V2ARERERERERERENAzewdHGgqqkHPT2KD3cn2t8+gKfyRzMTsgzJZTTue/Z1NFzsujZfHQ2H8eySVGZiPkMysU5fiRdeb0BHpzvge+vGHCszBs0AQEn1u77jnbX4ReCha8yaITIKkfVsqsyGOl+71kdTFRzMaH+EMqOYFqJYEP7/C6GjCk27C4G65Zixsl591GAcqGrajcKEdhysPoVeAIkTczB/3l0Ya+nG4QezsbqemeFn/ONNMkipOIF3HkrHNx+fwutH2tE/MQcFeXfCZrmIl+bn48n3mYnVDEkkdQPqjq1BZnwfPmo+hbcaP0SCvQjzZ98OS/PvMHvxC/iMGWNlAAAlqH53C7I+vwTvHePwfkUq7tuhmnvTZoiMQmQ9myxzdxme/L/v8H0+bg5Kl9qB9oOoPtXra7tyFn85fQseZCb8medfR7fvv0gmptoDkUv4n4FlRv1u1FZWwr8UK0qqcWZLLhzOVUD9B8wMO3PdT1CKorLsdFjQjt25xXjaM9BozUF+ZgtODmxiMBObGZJFCir+/Agyb+7F8Ufy8bPXvhhor4R1+gzccakJnzFjsMwARwGmJXvRufOP6HtoC7LmlgA79vuPmjtDZBQi69lsmbP7UHnWn6vC0qV2wF2LysrAP9SZiUyGKJZIcQuhtXQv2txudBxYBY0rWKXm2X8EbVeAhHjtW+CYGX6GouPqd14AY5Capzg7Padx8rR/V4OZWM2QJDLWw5FuQf+Zl7D62maIj+d8E857mDFcZkBG0Q8xDi601hxC6yUvkqcVXHe7iFkzREYhsp7NmiGKRUbfuzA6KTaw0u5Jxa0WC5JuS0ea+qAhJCE+Tt2mxkxwIhmKhhe3v4Fu7zgs2NaIk3vXY+H4679VMxObGZLEvDRMAPDR+Vpobi8yY6wMACAFD9w1CehqRU23B/uaXcA4OxZnx0KGyChE1rNZM0Sxyfh7F8YmxQZW29pyPLxlC9Y+9ATa1AcNwLpqAewJwOf/cKkPXcPM8DMUHZ6jK+FYvgNn//NmTCv4Ff5yph1nD2+E8jnDzMRmhiQx8gewAOjv+//Zu/+4LMu7/+OvjWZJlM7ldDDMhlpa+Nsy+6Fm1MIsG6ar1VybZdi0ttbc7nTVbX2bNVvpbWSxdZcup7euXxMr0nJlSRqSluYPFkUQ5rI0hbKxvn/AhXAicqKgF/Z6Ph48HnIcb87rvK7rPC/P88NxHOxjFQwzzSsDkDCOASdCybpFrAGK5r1BAYn0+VH3wz8jNRdhjufDNSN9RTX32kVzFxUFLMjniWnTmF993Hw0a5nI8MmTmTx5MtPnryB3Un+O3pXH7FsXmmnMjKLGJ0tv46Je3ejz01m8XPQF7fqOY96yB2oMJTfz1cwoCnzxH8qB1t/Zx42FmeaVAWKv6EUnPuPTb/Rn8uTJTL64Jbt2Qsceo0g4zDNScxHmeD5cM9JXVzOrXRxmXMR9f7RK5pL05Ip/797Fh5uy+MP4CWTmm2nUjKJMKR88cxsjn7mb0fNe586z+nP5UMheZMaMDqnnN1P4q94kJqeRwJq9/zUiM80rA1x52onEcBSdU9LpXL1q3KkXV8TC1NLDNyM1F2GO58M1I0mHQpSMwEpi+I03MvLkZjI3pSSL0fHxxMfHE9+xMz3PGUNmsAJr5sAzigKxxNY6LUtZ9+EO4EiOPBbMBCJfmYyixpq/8FpBOTFdL+ehiUnB3gpmmleGyxjYtSXleffRKfJ/ZXw88betoCzmRE6/KvYwzkjNRZjj+XDNSF9lzax2cZiJihFY3e+dzf0jO0JaIm8PuMG5pFLUGMzMl6fTt2wzea+/zMat0LbLuQwalAi7VrDsSTNf3Yyix0r+645FnD7zInpev4TV56/k9ZVreHdnHMf3O5P4demk/sZMs8q8MYxerWDz6jnU+NXO7Bw2TOpP8pArYdvAwzMzc1b1Hil6XeZ5Kn0VWbs4tKKigLU5ex1FaYkc8/56XMJbiiZbeHtzCb26d2LQiGSGQNWUz9+Nn0BmqZmvbkbRpHTRtQwuWMXUP1xNSpf+pJ50BlBO2Y5i3t3UBVhjphllUoacRCsKeHZeYIJh6RxWb76enl0HcvthmrmMWcyt2StFJc9T6avJ2sWh9bW4uLgvg42NKiWT3EdSIWs0vcdkB3slSZIkSZIOD9ZAmkyUrIElSZIkSZIk7V1MixYtbg02NqrPv+DI8mLyljxHzuZPg72SJEmSJEmHB2sgTabppxBKkiRJkiRJB8AphJIkSZIkSYpqTV/A6n4jjz79NI/e2D3YI0mSJEmSdPiwBtJkjgg2NLp2XTmlTx/Y0i7YI0mSJEmSdPiwBtJkmn4EliRJkiRJknQALGBJkiRJkiQpqlnAkiRJkiRJUlSzgCVJkiRJkqSoFhUFrNjLZ7OmsJC3548lNtgpSZIkSZJ0iFm7OLSiooDV6dQkjouJ4djvdqVTsFOSJEmSJOkQs3ZxaB0RbDgU1txwJeMKh9PimQzWBDslSZIkSZIOMWsXh1ZUFLAgnyemTQs2SpIkSZIkRQlrF4dSVEwhlCRJkiRJkuoSJQWsJIbfeCMjT3YZNEmSJEmSFI2sXRxKUTGFsPu9s7l/ZEdIS+TtATc4l1SSJEmSJEUVaxeHVlSMwNqcvY6i8nJ2vL+ezcFOSZIkSZKkQ8zaxaEVFSOwSheNoV9isFWSJEmSJCk6WLs4tKJiBJYkSZIkSZJUl5gWLVrcGmxsVJ9/wZHlxeQteY6czZ8GeyVJkiRJkg4P1kCazNfi4uK+DDZKkiRJkiRJ0cIphJIkSZIkSYpqTV/A6n4jjz79NI/e2D3YI0mSJEmSdPiwBtJkmv6vELbryil9+sCWdsEeSZIkSZKkw4c1kCbT9COwJEmSJEmSpANgAUuSJEmSJElRzQKWJEmSJEmSopoFLEmSJEmSJEW1qChgxV4+mzWFhbw9fyyxwc5KZsyYqc2MGTO1mTFjpjYzZszUZsaMmdrMHHhGTScqClidTk3iuJgYjv1uVzoFOyuZMWOmNjNmzNRmxoyZ2syYMVObGTNmajNz4Bk1nZgWLVrcGmxsVEkXMfaSzrDpCWY99c9gLwBbnnmRfD4m+49TWbr1i2A3YMaMmb0xY8ZMbWbMmKnNjBkztZkxY6Y2MweeCVMD0f75Wlxc3JfBxkaVkknuI6mQNZreY7KDvZIkSZIkSYcHayBNJiqmEEqSJEmSJEl1iZICVhLDb7yRkSfvaxk0M2bqYsZMXcyYqYsZM3UxY6YuZszUxYyZupj5ambUZOLi4r5s0q9L/vrlxh07vtz410tq91V+Dchc8+WOHTu+3LEm88sBe+k3Y8ZM7X4zZszU7jdjxkztfjNmzNTuN2PGTO1+M42TCVMD8Wv/vqJiBNbm7HUUlZez4/31bA52VjJjxkxtZsyYqc2MGTO1mTFjpjYzZszUZubAM2o6LuIuSZIkSZLUGKyBNJmoGIElSZIkSZIk1SWmRYsWtwYbG9XnX3BkeTF5S54jZ/OnwV5JkiRJkqTDgzWQJtP0UwglSZIkSZKkA+AUQkmSJEmSJEU1C1iSJEmSJEmKak1SwPr2FdN54un/486hscGuKmEykiRJkiRJ0SeF//6/p3l65s/4drCrSpiMwmqSAtaHf9sA3c7gil9OJCHYWSlMRpIkSZIkKdrEXncdPzqjJ7H/eoYPg52VwmQUXpMUsCidyexXthHT9fv8pl+ws1KYjCRJkiRJUlTpx//7UR9abnuR+28pCnZWCpNRQzRNAQtYeOuTbChP5Pu/HUtdkwTDZCRJkiRJkqJG2gTO7RhD4QvTWRjsiwiTUYM0WQGL/DtY8HoZR/cbycS65giGyUiSJEmSJEWFWK67cgBtyvL42+9XBjsrhcmoob4WFxf3ZbCx0aTN5s0ZQ9i18GJOG1/Hm7avTEomuY+k0r5m6x559xH/x85mgn0RZswE+yLMmAn2RZgxE+yLMGMm2BdhxkywL8KMmWBfhBkzwb6IaMykTq3Z1m8GOU+mcfSS8ZxyZR1jq8Jk1GBHBBsa1cLfsHDcCq5OvZnrJg5nZmkwwL4z6xbyvxnv0qpaUw3vLIF1a8wE+yLMmAn2RZgxE+yLMGMm2BdhxkywL8KMmWBfhBkzwb4IM2aCfRHRmAlImzCYRApZOL3uwlSYjBquaUdgAbHXPcHam/tQ8FB/htSxcFmYjCRJkiRJ0iGTMJGsf1zPiWvvIHn4TPY2RidURvul6dbAqlQ6cyYvlMTQddhtpAQ7K4XJSJIkSZIkHSr9fvMDerbcxiuz6y5Mhclo/zTtFEIAsrnl6fWcf/Vgrrsuluy9ziOsI+MaWGb2xoyZYF+EGTPBvggzZoJ9EWbMBPsizJgJ9kWYMRPsizBzeGaq1sBKY8LgRMoL5lP3zMAwGe2vg1DAgqKpf+P1K26mzw8mkjDzFvY2SXCvGdfAMrM3ZswE+yLMmAn2RZgxE+yLMGMm2BdhxkywL8KMmWBfhJnDM1Mp4bZxDGpTxusZ/0Udf6IuVEb7r8nXwIroNyOHJ9OOZsn4U6hrEf4wGUmSJEmSpIOnHzNyniTt6CWMP+VK9l6uCJPRgWjyNbAiVv7+GdaXt2HAldcRG+ysFCYjSZIkSZJ0sMRe9gsGJ5az4clb6yxMhcnowBy0AhZFU5m/chct+4zg5qRgZ6UwGUmSJEmSpIMigYljzqJN2essuCM/2FkpTEYHKqZFixa3Bhubxhe8vqoQdpfy0afrWPXO3hZzD5ORJEmSJEk6GE7ku8fvYPPjf+YPrxcHOyuFyehAHbQ1sCRJkiRJkqT9cfCmEEqSJEmSJEn7wQKWJEmSJEmSopoFLEmSJEmSJEW1I4INkiRJkiRJh9TAe1mWcR5tq7dtfY70gTewrHpbMzLw3mVknFfjGbH1uXQG3tBcn9HB5Qisw11KJrnFxRRHvnIzSQlmDrKJWcUUF2cxMdgR0eB9TmDs3BzW5cxlbEKw71CItv2RJEmS1Li85m9yLeI4pnVrjiwtIj8/v+Lr3UI+Dubq0uD7yrrVew8b0seF7+55LkWlHNm6NcfEtQjGol7dr0fTnheHvIDV+pxbmL88j00FlQdVwSZyFs9gdBJACpm5Fe05M/rt+aGJWRQX55KZUi2TFXjpJmZRXFxMsLk++96fZmjdQv43I4OMjMdZuz3Y2RB73ouqr8J81i6fzy3ntA6GD0yD93kUw85MpHXimQwbFexrDJXPPfQHXlPvTzPV+hxumb+cvE0Fe46fpZn7dW4ljc5k6VuV2yl4i+Wzf8HJscGUJEmSmrOUzNxq933VdefeV4opXv8YlwW7DprouOaP/c7p/Oiu2SxdlU9h8V7ui8NKGs5d85ezNr+Q4uJiCvPfJuepSQzYj2vsxr5W3553F8OGDav4+vE01gT6L3tsfcVj5T/BddUfp8H3lU1vzbQf73kud+VxILsVe/IYZizO4e3K9yxyfz5pf960RtO058UhLWDFDs0k+5GxnJnwJYUvLSAjYzZZ63fSrsdwbvivi2tkE0/9MdVKWE2iIfvTbBQtZvqUKUyZ8gSFZcHO/bB9LY9nZJCRkcHsZzfy74QzGftINg/U+k/lADR4n+/h+t9n8fqSWfy/B4J9h0K07U80+D5/emEOY09vz783P8/sjAwWrN7BMSelcvv/3k33YHwfYoc+zP/dmUrn8o1kzc5gwZvldBhyE0/MGcuh/KiWJElS48pe8jbbaU+3oYGrxYRR9OgIZeuXMbdmz0EUHdf8Z0yZyd1XDOL4Iz/m41D3Tntx3HieeuZ+rjj9W+x661lmZ8zm2fzdxPcdx4Oz0oLpfTr41+qXMaxXK7a/8w7bWiYz5MpqXQ2+r2xGkiay4In/Ju2UVnzy1rMV91evbuUbHc5k9G9+xnHB/EHTtOfFIVwDK41ZU1NJ2L2W+887n9vzI+0TSTrnHFi6FCLjXcrKKEsczIQ0uHJhJNfYwuyPKCvkiSlTyK789rbLHuO1aYNISR8L2bNqRA+m/JljGDYz2HroRNv+HHrP8LMRvyW9x5Nk/O2TyrY/8+kLK7nqu8fTB2r9JmXvYhl/3bm0L9/Aw5ecx835AI/x6QsvclW/kUxMmMUtRcGfkSRJUrM0dxnrbx9E/x6jSGANkcu82Ct60Yly1ubMrhE/2KLhmn/dwpncdP9C/pLbj8zcR0gNBsL41wx+kdmD8W9O4IZFpZWNz1dsL/lChrKQRTV+oC6H4Fo9ZQgntSon/6H/YcfV0+g18DKYdejKmgdHArc9+HN6Hl3C8z8/hx9X3V9NIfbk3pzwTi7/qpE/uJryvDh0I7DG/ogBbaAwa1K1YlGF/KVLqdG0PYdX1rdiwI/GVm9tXKH3J5YBk54iZx/ToCZmVUw3m3j3Ut4qKKa4uJD8VU8FhvLVt52JZEWm6uU9zNC+t7G4chhmYf6rPDC0clvV5/UWbGJdzmJm7M+crP1UOvdp1myHlke1Zu9T7fbWBhDDSfdWe33WLiWzoftdOU10z9fe5uBWTAt9Kudt8gsrcgWbclg8YzQNfLT6Ndr+1HdshD3Gkhg9YzE56zZRUH2/3niYC6sy9T9WvdJm82ZxMesfCwzgDrbnP1KteAXEns0JbaFs0+s8t6e1Hldy2okxUPgG86pOynzuf2UzxHShTxMMU5UkSdKhMpucDeXQoWu161e4uMcJxLCZ1XMixZb6rmlD3luFuX4Odc0f2J+CTbWm44W7nq9f0eI/8ZfcatfY+yl/6phqxSuA5RRsBb7VlhOrte7bwb9W7z60G+3ZzBvznuSNd8ppddKQkMu+7BF5L0ZfN59VldPxCt7a+/3ptyY+Vff7dbDuzbvfRErXGMpe+xPXVr+/AkrfyuWtqrexvuMw5HmRNJrMpWsr7l8L81k1/zq+FdlERKjzIsT5VY9DVsDq3rU9LdlO/isrg117UUrWyxtp0eOCmnNaG1HY/Um6YxHzxvWlzcevsSAyje57qdz+1wdqnihtB3LVwH/z6rwMZi/5J1+068u4P06tmgZZ/3aW8FhGBo+v3Q7fbsfPfn0RsbnzyFiQy8ctjueiW+9hIFSb15vBgpf+yY5Wp5B2+9+YfVkTvVC1HMtR+7XmXAf6nR7LW09lkLHgVT466iRSb5/NvQ2ZJ7rkMTIqn/s/3gt2VohMC+3V6hNefzyDjIwFvPZxG3qk3c6ff98lGD8wjbQ/9R8bleo5xvrNeIw7006h1Y71+aREsgAAIABJREFUPD+7Yr8yMjLImP8ckd0L/Vj7snA6LxRCq17DaqxBkDa8F23YxqqFNX8DEvudblx8UybPrbiT3h8t5KbLp1b9Nq1+rTmqJfDJB6xJuo7MZ59l/sS+FL35AduJoU2HhkxGlCRJUnQrZc7KjZS37MrAqgvNFIac1AoK3mBe5UVk/de04e6twlw/h7nmT/jlfB4Z15f4sjdZkJHBgjU7add3HI8smFjzl+j1XM8fWhfTrQNQuJnng111OtjX6gmM6tGx8lgoZc7qzdA+mYv25wVsO5DfjunAPxc9SMaCVXx89N7uT08g9QetyK3r/TpY9+bndiIReO+tJ6hecgyq/zgMc14kcNuDt5N60jHsWL2AjAcXsL7dj0k9IfBgIc6LUOdXPQ7ZFMJ2cUcBZZRGxrYlXMCEn/alVeW321f9memLK78B/jX1b7x+xW/4wcQEZu7rXdpP4fanG7+94ERiSrIYd+qYPdPoJj3L5nF9SBsI2ZG/fhmzjezrzmP8SoBpfPrsZsYlJ3EOsJKUENtZxZwpq9iSeQmXJPek447R9B6TDcTy5YmbGZfcgf7AsqLFTJ9S7YVKuIMXVl7FgEuvhLlNP6Uvduz5JLeEbR9tDnbVYwcv/Lx/5esD00bP4/U7z+KMnw2ElSH/hOiqOUxZVfHPiaenc3aHmt2QwMRfnk8CG3h46ODKIazAlCTO+f5RrHhmY430AWuU/QlzbFQ27vMYg3OSEoF3eHbcD7k+d28nTQMea59W8uhrhaSl9WLYZTB3LkAaw3u1gZIsHq0+7XfgAyybexEJALu38MayN9iwu1p/fVI60x4oKc4l5bdTSU1uD22vJWViKWXAUXHtgj8hSZKkZqzowRVsvvoqThqSAnOzoftQurWHgvl/rlyCIsw1bbh7K+q9fibENX93bhrRm6PLN/DwJRdWXvP/mY+XrODqnhczvvtUboisnVHP9fyhlDTpJ5zWqpz18+8OudQHB/9aPWEcA06EkqxFFfs47w0KrhpJnx91h5Wh97pCzOesvL1/1ZJF0zY8wdqbT+XUGtvawQs/H1j3+3Ww7s2/8XVigLId+xoGEOY4DHFeREZ75f0PF15UOfBgSj9m5DxJWqRYAiHOizD3p/U7ZAWsLTs/A9rR5nuVDd3S+El6Ku0rvy3JWlGjgEXpTBa/8UsmnXkNCeHnG4UWbn96E98eIJVHiosreyJKOKLGSKSPeL/qU6eUL8qr9zVkOwAf8sbjkY/iUm4/P57bI12tz+GmP6RzQfLJtD8G2P0l3yAypa8JtExk+OTJ9AfaJg/lvNM7cPSuPDJvXUjVmmWhVH99oPSRXN658yy6xXcHQlVNQriQ5I7BIawA+Sx9pvr3B0uY/WnIsbGvYwzmPPkyP0o+k0v/voELdxTz7tq1vPjE/Uz/Sy4VA00b8lj7tvL3z7Mh7Sp6RSpYacPp1QYKF86quogAYNm19Iu/ltjvdCPlmruYMua/eeaUExg0+Oaa04brsryArUByfG+yx/+JrMSLOHbpA2Qf90umAzv/3ZBqmCRJkqJe0TzeKLiKkd2G0p1sPhrVg46UkLUoUlRo6DVt3fdWCfVeP4dxOh3aAVvzebHqAreIhWsLubprR7pcQLXFX/d9PX+oxA7N5K9jk2lR9BS/b8iiVQf5Wr1iLbTP+Oc3+jN5cn+gJbt2wsmBNdPCeY83q/3ivfThVWy++VS6dTqXPW9YPe/Xwbo3/+I/lAOtv9OdulcSbshxCHWeFymZjAK2bFxc7fVcyfsfAYlVDaHUf39av0NWwFqzvoQyOtKxXwrMyobsMfSOh4p5mNdXFY6qm/WXVxg/4/v8Zt1Hwa4D1pD92ZkzjZG3LanWArCbLQ0c0BN+O/+hfG/neuxlzF52F0Pa7KZ40zryPwT4Jid8+5scHcw2llbJXJKeXPHv3bv4cFMWfxg/gcxQ1Yd9qKzWb/vw7WDPAdjBZ7uBbxzFN4Ndh0T4/Ql/bNStaNZIus87gYt/+AtGXNKH5J7ncu0Zqfx0wt+4+rSfVxWWGuOxKLqff6z/MVf3GsZlzGX38F60oYDnH9r7745KP1jHk7ddyL875vHQ+YMZ3509v4nal9Kt7CoDWh5LQv5UxpxfsTpg7KRv0Ypy8jc2VvFTkiRJ0WENi9aVMDK1B6MSYtnRqxNsf4klNX5L2pBr2jrurQh//Xw4Sxo9m8duG0L7kheZ9MNrG/acD/K1+pWnnUgMR9E5JZ3O1cdSdOrFFbEwdf8G+eyfg3lv/vxmCn/Vm8TktP0o1NWl7vMC4PNdB16DaYzz65CtgcXsJawtg/aDf8UtJ4ecE7rwUVaUJDJ4cPXxaLv5dzlwQm9GV9tM2ikdgCLeW7GnbZ9C7c9iNhZA3ClDOP/TPPLyqn+t44PQJ0gjbeeMIZzcNoa1s5Lpe84whg0bxrAbXmFbMAfAFnZ+BrRqQ2SQ2X4pyWJ0fDzx8fHEd+xMz3PGkLlnlbgKX4+h6hcdCYNI2ls1soYkJv5iIO3ZxluLqx+2B7rP/2BTcTkknMpPqhZmPJTC7E8jHRsRn7zDkw9M4Mrzz6Bn52787pWdtEgcwKgUaNzHKmLqc2spb3Ual46tmD5Yvj6bu/dZlIql4zePCTZWSmL4jTcysta5+HfWFpRDpwGMq1pAIImbh3QDNvPGvGpRSZIkHRayl7zNdjrRY9TF9DghhrL1y9izympjXtNSz/VzGK/y3hagbRKDqq5XE0hLTgQK2Fh9ltFBV9c1NtC6N7+ev5oldw6i1caHGTXwch6pc5BCXds5mNfqlzGwa0vK8+6jU+T+ND6e+NtWUBZzIqdfVX3fwtxXduCUtD3fxV7Vl05Ayfuv72nclwbdmx+gNX/htYJyYrpezkMT61okvpGOwy07+QzocPJw9ryi/fhurVXcQzrA8+uQjcCidCY3PjiUZ67vydhFyxn40ku8sHErtD2dDsDei3/ZzFpeSGpaIlBS2baMPy0vYOjIs5j04nz6PL2Wsi7ncvGgNpQXzOdPYYu8ofZnDXcvyGXor3rz8+dWcf4rr1Rk4o6n+xHPcOmNC2pus04httP3CiZfcALtE1sCkDh8MpP7b2fVn6ezOFJirTyYuo2cz/Sv5bC1bTJDz/suXysEOgxj9vQi7pswh4qpqGt4KX8bIzv247q/T+fbOVtp26U7nzx6Kb8LU+oMZTmr3ysj9dRzufPv0+mdA/0Gd+Y/JUCrnqRPv4KPJ8ypzLah1+TJTI47ngHnnUuPdjEUZd3A2OrrJe1znxO4YMJP6Vs57/bkNtW2CfDOYqbMWcXUe54l9YFUzp+5kuWjl/DM2q1AHMd3P4JnLr2RsO8YUGP6ZA3vLGbKnA8aaX9CHBshjZj2NKNarWPNuzsBaNtlMGf1jYOydaxeDqGOwwYonbGI16/pSY8xv6GsTTkbFz5Y47cB4+cs58IvX+fljVuBtiQPPY/TO7SkvOA1/hIodHW/dzb3j+wIaYm8PeCGaqNbi5ia+RJp0wbx48efo93ilyg9+VIuOTGGXSv+yh2N8+sHSZIkRZO5y1h/+yC6pv2c8lblbMiZXa0zxDVtmHsrwlw/h7sHiezPjx//O8f8Xw70+wEXdY1hV96TzNjnL3gbru8Vk7ngBID2JLYE2vRi8uTJQO3nV/c19kAeyJ7LRQlA4XIefekzhtw4mSGVve8snsKcyvWNYF/bOYjX6pcNo1cr2Lx6Ts2FzGfnsGFSf5KHXAkzI+tO7eu+MvKDMfT69QrmD1zEWpIZdsGptCwvYHnYgkKD7s0P1Er+645FnD7zInpev4TV56/k9ZVreHdnHMf3O5P4demk/mbPeVHncRjmvFgzgxc2pHHVqTex/KkT+dvKMrqcO4iTvlFWtTdhz4v6z6/6HboCFpA/NZXvb7iLO2+6gD6DRpA+BGA3uz58hzfXbwFqL/K28vfPsH741XSNqdZ2w5VMinuIXw0+nRHpZ1ZNbbvz6hsatPhd/fsDRfdcSL+8W3hwyohqmXLKNm3nNBaQU217+1LvdoZcTnp6z6p88iXpJFNC1orqB9N/ccf87vx+WA9GpPemvKyYN+ffwvIeDzEu8XsMGXE5b1Y7SRaOnchZf7+L4b1HkN4bdu/6hJWvQaixeqGUMvPG/6bXQ7/m3N4juKZrMa/eM5rXLsqma/t4+o+4nCET5lD6WRnldODs9HTOLi9jR/F6sqZOYcJ9r9T6Kwp173M30n6STmqN0V2V2wTI282UOasoXTSGlNG38OCUS+h16gjSz6xI7t61lg+6wIJaQ4r3ofr0yerydjNlTm6j7U+9x8aeB9iH4+jU+ST69e3DGZGm3bv4sOhlZk2+puoPITTOY1WqXKfu1P4JtCx7jYyp1f+H6k5Cu29y/PcuIXlIxcm7e9eHvPfyHG76ye21ztPN2esoSkvkmPfXE/zzAKVzxzCq/SweHHMWqVeeArt3Ufjy3fz0J7NqHT+SJEk6HMwmZ8Mk+vc8AdjAk3NqXvXVe00b5t4q1PVzuHuQontGMjr2r/xxdHdGVNzEULjqfn7xw6nh1n1tgCGXp1PtqUGrs0lPPxtqPb99XWO34IjI/XXiGYxJr3oFAMjbXbOAVfd2Dt61esqQk2hFAc9G/hRlROkcVm++np5dB3IZs6pG6tV9Xxn5wXfIenQn5/zyGs5sGcPuj98m6/aruSF4o1KXBt6bH6jSRdcyuGAVU/9wNSld+pN60hlAOWU7inl3UxdgTf3HYajzIp+bx0yi3UO/YnCvEaT3KuOj1Q/yh02juDM1kglzXhSEOL/q97W4uLgvg42SJEmSJEmHTEomuY+k0rZsB59+/p+Ktq3PkT7whkb7s18AE7OKub5nHvfFpzI12NnIBt67jIzz2lZ88/UjOebYlmzNivz1P9XnkI7AkiRJkiRJqmXLet58vV3NP4D1cSEfV/++mfm48F3y83fUbKuc7aX6OQJLkiRJkiR9JR3MEVg6MIfurxBKkiRJkiRJITgCS5IkSZIkSVHNEViSJEmSJEmKahawJEmSJEmSFNUsYEmSJEmSJCmqWcCSJEmSJEWhFDJziykujnwVsClvOfNvOYfWDcqEMZGsym2sf+yyiqaUTHIr27Imhs2ElDScu+YvZ21+IcXFxRTmv03OU5MYEBuIjc5k6VsFFc+t4C2Wz/4FJ1fPhNlOtX2s8ZWbSUq1mBTtjgg2SJIkSZIUNd77BxmL3oK2XRh81lmcOXYOK0+7j++nTiW/IZmQWp00hBTmwqjetA92VgqTqdNx43nqmd/S96gdvLf6WbJWfsS3zrqA8/uO48FZ6znlyoUAxA59mP+783za/utNsma/ROnJl3LJkJt4Yk4pPX4wi9KQ24nYvvZxHnu5pFrDKtbt+U6KehawJEmSJEnRa9tqpkyZCsAUkpiY9QzX97yGadfNYPjMMJnSylD9Slas4LP+yVzUrzvl3dpTsGIFR/Xv3+DMPv1rBr/I7MH4Nydww6LIvj1PZu4jpCZfyFAWsohYxl93Lu3LN/DwJedxcz7AY3z6wotc1W8kExNmcUtRmO3sUVb4BFOmZFdrkZoXpxBKkiRJkpqJfKb+ZhEFtCR5yJXBzkphMnXY9iyvFSTSZ+wEenQsYV3OtmAiXKYe+VPHVCs6ASynYCvwrbacCMCVnHZiDBS+wbyqIWT53P/KZojpQp9RlS31bmePz3Z+xgk9e9KzZze+E5iqKDUHFrAkSZIkSc3Hmmw2fAgtO/arew2nMJm9+ieL1pXQ8fzz6bTtLRbnBvshXKahLqZbB6BwM88D0JqjWgKffMCapOvIfPZZ5k/sS9GbH7CdGNp06F7jp/cIbgfoHU97oOPIeSzPyiIr63le3/A2y+4dinUsNScWsCRJkiRJzchuyv8TbAsKk9m77Hm5lMTEsHNNFjVXkdojTKYhkib9hNNalbM++27WAKR0pj1QUpxLym9/RmpyMmeOupaUf5VSBhwV167mBirV2g5A6S4+KXyDrD+mk5qayuU3zSH346PpPHIqs9Kq/7QU3VwDS5IkSZKkiOwx9I6v/HfKkBpdVcJkQoodmslfxybTougpfn9LUUXj8gK2Asnxvcke/yeyEi/i2KUPkH3cL5kO7Pz37uqbAOrYDsCMS+k2Y8+35OXx4n++y/ppgzgpZSAsXFatU4pejsCSJEmSJDUfCYNIag/lJZtYHuyLCJOJAkmjZ/PCzFTal7zIpB9eS9US66Vb2VUGtDyWhPyZjDn/fEZOXUVs0rdoRTlbNtYsOtW5HVpXrHt1QutqaaByJFfMES1qtktRzAKWJEmSJKmZaM0P7ryAEyln48o57P3vC+4rk8TwG29k5MkHY/WnfTxW6978ev5qltw5iFYbH2bUwMt5pGqxdoC/s7agHDoNYFxSpC2Jm4d0AzbzxrzKpnq3cwF3zM0ia+EfaqwFFtvlOFoBn+3cUq1Vim5OIZQkSZIkRa82vZg8eTLEHc+AIYM5Jb4lu/Lu45pbioBuITJ7dL93NveP7Ahpibw94IY960Q1gbofayAPZM/logSgcDmPvvQZQ26cTGQi4juLpzBnVRFTM18ibdogfvz4c7Rb/BKlJ1/KJSfGsGvFX7mjKOx25rJw1c0MGnI+M1bM57lFayk7fgDnnduDlrtyWXB3U74CUuOygCVJkiRJil4dziY9/WxgN7s+LOLVOfdx263zqTHQKEwG2Jy9jqK0RI55fz2bA32Nre7HasERMZX/TDyDMeln1OjN2z2FOaugdO4YRrWfxYNjziL1ylNg9y4KX76bn/5kVuWosnDbWXjlxcTN+B/Gff9URqSfCeVlfPTey9x/00+4p2Z9T4pqX4uLi/sy2ChJkiRJkiRFC9fAkiRJkiRJUlSzgCVJkiRJkqSoZgFLkiRJkiRJUc0CliRJkiRJkqKaBSxJkiRJkiRFNQtYkiRJkiRJimoWsCRJkiRJkhTVLGBJkiRJkiQpqlnAkiRJkiRJUlSzgCVJkiRJkqSoZgFLkiRJkiRJUc0CliRJkiRJkqKaBSxJkiRJkiRFNQtYkiRJkiRJimoWsCRJkiRJkhTVLGBJkiRJkiQpqlnAkiRJkiRJUlSzgCVJkiRJkqSoZgFLkiRJkiRJUc0CliRJkiRJkqKaBSxJkiRJkiRFNQtYkiRJkiRJimoWsCRJkiRJkhTVLGBJkiRJkiQpqh0RbJAkSdIBGHgvyzLOo231tq3PkT7wBpZVb5MOoYH3LiPjvBpHKVufS2fgDR6lkqTo5AgsSdIhNTGrmOLiLCYGOxoiJZPc4mKKI1+5maTsT6bZS2Ds3BzW5cxlbEKwTwdNiziOad2aI0uLyM/Pr/h6t5CPg7mo4/Gzb43/+jTK599++rjw3T3HZ1EpR7ZuzTFxLYIxSZKihgUsSWoWUsjMrVZ8KS6muDCftcvnc8s5rYPhKNKaH9y1mJxNBVX7/HbOU9w1PCkYPDDrFvK/GRlkZDzO2u3BzkphMiGkZOZSXJxLZq3qV3fufaWY4vWPcVmw66AZxbAzE2mdeCbDRgX7okiwmBj8alBxMYELJkxm8oQLqKgpTCSruJjirP0sCcSezMi7ZrM0Zx1v5xeS/7exwURo2/PuYtiwYRVfP57GGmCv53JxAZtynoqCc7mZHD+NYiAPrKz7WNv7eX54vT5rpv14z/F5Vx4H8LEoSdJB4RRCSWpOtq/l8cdepgSIO34A5517JmMfyeY7P+3HtdnB8KGXcNtC7ruiK5+9/zILHl1L2fEDGDK4F1fc+xCfrzuHyRuDP7GfihYzfcpiIIXMSy4hOdgP4TIhZC95m+2pg+g2tDtkV5QkAEgYRY+OULZiGXP3tB5k93D977txb/8C7nwg2Bd9tq99nMdeLqn6/hvdL2TMGYmU5M4j9OEcexU3/Cad5Lz7mDJ9cbC3QWKH3sviaWl0PhbKijex7pXnee3Z14OxxvHeP8hY9FbFv9v24wcX9WXsI4/TYtBgbs6vGT14mtfxc2CW8c5WILk9yVDreDsutiXwHgXLq7d+lV4fSZKijwUsSWpOygp5YsqUqput2y57jNemDSIlfSxkz6oRjQZX9OtKDGt5ZNBIbi+tbIwdwDk981jaWMWrg23uMtbfPoj+PUaRwBqKKptjr+hFJ8pZmzO7Rvxgy585hmEzg63RqazwCaZMiRzNsVz3xE+AQpbPCpYT9mFwEu2AovdWBHsaJuGXzL93JJ1Zz5wr0vj10k+Cica1bTVTpkyt+nbahidYe/OpDB7fHW6oVhg9yJrT8XOg3tzyIfT8Ot8AiP0O3bq0gy0bWfdBKR1at4KyXWyNfG5V+iq9PpIkRRunEEpSM1Y692nWbIeWR0WmHsUyYNJTe6bsFWwi56lJDIit6E2444U902KGPkxecTErHxhI1bSmV+6l+962U5jP2qWZjK6a+Vc5Tau4mOK8hxna9zYWv1WRLcx/lQeGVjzgF/8pB9qSNLhyBwBKX2HpK4G7QuBbE5/irYJiiosLyV/1FJMiOw3Uvz8H02xyNpRDh65cWK314h4nEMNmVs+pqtTVs8/hXkNIYvSMxeSs20RB9Wlnbzy85/EnZu1pLy5m72vq7PvYgMr1eHIzmXj30n28FxViL5/NmsJC3p4/ltq99aiczvm/C9ftaYu9ipTkllD4Go+u3NNcn4QBHfk2ZRSuPrCFp/v9ZhS9j97Gi78b1vTFq70o3fgvtgNHxbWj6nysMb2tdluY9ytMJszxE2o7SaPJXLqW/MJiiosLeGvpvUx6OHev29u3xj1W67Lz8y+A9nROAc6YwpysLJ6eeSXQne+0BrZv45/QNK9PYT6r5l/Ht/b0Vtr3cw//GR7ic0OSpGbGApYkNWvHclS1NXcTfjmfR8b1Jb7sTRZkZLBgzU7a9R3HIwsmkgQUfbSLcloSexxwSju+VV5Om2+fBPQmvj2UlaxnDZB0xyLmjetLm49fY0FGBrOf3ci/v5fK7X99oPLmeQmPZWTw+Nrt8O12/OzXFxGbO4+MBbl83OJ4Lrr1HgYCD2Q8S1F5e86fuZKls2/i+9+p6+byBFJ/0IrceRnMXvJPvmjXl3F/nEq/yt769+dgKmXOyo2Ut+zKwKrFrlIYclIrKHiDeZVDsurf53CvYb8Zj3Fn2im02rGe52dnkJFR+TX/Od6LPPySx6ra/1HVWFN9x0aVtgO5auC/ebWO9yKi06lJHBcTw7Hf7UqnQF+9ihYzfcoUpi+OjF+D2PFD6dMSCl97lAbUrzj7hPbAFt57NdjTEAP5Wf9E2L6GnBbTWVpVSFzFU5MGNLxAtx9iuxxHK2D7lmpFvTDCvF/1ZUIcP0A920ngtgdvJ/WkY9ixegEZGfPIjUnh0n4tAxupX2Mfq3VZ9s5W4OvEtAB6x9N22zZ2f7MDCbQj7ihgawHLoWlenwcXsL7dj0k9oeYm6nvuYT/DQ31uSJLUzDiFUJKasdix55PcErZ9tBnozk0jenN0+QYevuTCynV0/szHS1Zwdc+LGd99KjesLWErvWndAVI6t6dk40bivtmBhARoCWz78G0ghd9ecCIxJVmMO3XMnumKk55l87g+pA2E7GWrmDNlFVsyL+GS5J503DGa3mOygVi+PHEz45I70B9YtmgMKaNv4dFpV9F3yC/482vXUrz6YSb88HZqDsLawQs/H8j4lQDT+PTZzYxLTuIcYGWo/dmzpYOh6MEVbL76Kk4akgJzs6H7ULq1h4L5f65aqLv+fQ73GpKUCLzDs+N+yPW5tUeuAbBqDlNWVfxz4unpnN2hZneoYyMyay1mG9nXnVfHe7HHmhuuZFzhcFo8k1H5nA9ELOMHJhNDAa8+1JDyVXdO69gKtq8m54B2og/fbQ+8910uGr+Lf/79T7zQMplhF5xJ33H/w/Sc3oxpwKzGUNr0YvLkyRX/rlwDq+WuXJ6+vwjoViO6T2Her/oy9R4/lfa1ne43kdI1hrK8/+HCi6ZWTK2dsoAZOU+S1qbGVurR+Mdqnd7cwof0pN0pFZ+HWwsKKP9uPD1Jpn1bKCvYSik04evTr+L1aRXZQIjnHuozHM4J87khSVIzYwFLkpqTlokMnzyZ/kDb5KGcd3oHjt6VR+atC4GxdGgHbM3nxapFoItYuLaQq7t2pMsFwIwCtgKtv9Od3vFt2fLyYnZeHE/PbuW0AkreWQZMJL49QCqPFBdHNlSphCNq/ZX1D3nj8cjdfSm3nx/P7dV6P1l6Gxf1upvvfP8m7rv1Mk7vO455y77LT/tdW23h5I94v+qOs5Qvyqs6iIwsCL8/B0HRPN4ouIqR3YbSnWw+GtWDjpSQtShyZ93Qfa77NUx48mV+lHwml/59AxfuKObdtWt58Yn7mf6XXMJPdDu9/mOjqgC0r/eiunyemDYt2Lh/EiZyXnIMFLzGnxtUiDqXTonA5nf4R7CrQb7B12OAVu+TeerlzK283582eh6v33kWPZqiStrhbNLTz97z/bY87r9mJPfsGZQWUpj3K0wmjH1sp10cRwFbNi6uWhcOVvL+R0BiVUMITXGs1qFwO6VUfB4mt2/L1hV/o3zcAE7hbb4eA9u3/TP4E/XYx/6Een1CPPdQn+Ewp1E+NyRJii4WsCSpOWmVzCXplX8/b/cuPtyUxR/GTyCz6manHqVb2VUGbePO5YS2Jby/9D2+fUUvTkn+D20pITd3T3RnzjRG3rZkTwMAu9lSa/H1/1C+O9gWVMoHz9zGyGfuZvS817nzrP5cPhSyFwVzdQu/PwfDGhatK2Fkag9GJcSyo1cn2P4SSwKjdMLvc92vYdGskXSfdwIX//AXjLikD8k9z+XaM1L56YS/cfVpP6/119Oao4RrzqRLDGx44e6GjeYa2IV2MbDz38fx08hoJk6mDVSMcJpwAX+eXr1gUI/33qgqXgGUFn9KGRBTu+J44PLuIz51KpDAbUtWcHWXlrTc0vxHyny+66NgU/Ra8wGfAO3jTqdDm92KhRcJAAARoklEQVTs2rqa7R/+gM4TO9MeKNnU+GfXAb8+IT/DvwqfG5Kkrx7XwJKk5qQki9Hx8cTHxxPfsTM9zxlD5luRm95XeW8L0DaJQVULxSSQlpwIFLBxMcA/2bYd2rbvz7fbbOWdZa/y3pb2nJT8DWIooeJ+bTEbCyDulCGc/2keeXnVv9bxQeh77Fhiay0eVMq6D3cAR3LkscG+ujRkf7aw8zOgVRu+V725hjCZ+mUveZvtdKLHqIvpcUIMZeuXMbeqtyH7HMIn7/DkAxO48vwz6Nm5G797ZSctEgcwKvQCYGGOjYZKYviNNzLy5FpvcgMlcM2ZXYhhA6/cX1epqY7H6t+BBCDu5GGkp6dXfp1NB6gY4fSTtMBkvDq2w5ts+RDo0IPLqnUl9I7fv3WpGqSIW+5/kW0xJzLy7sCC+F+Poap0ljCIpPbVO6PMlp18BnQ4eXi159CP79ZepbweTXGs1qXifW/bfggd2m1n2z/zKP64Le1PiaUlZXzWmEOVQr0+YZ57mM/wSgf8uSFJUnRxBJYkHTbWcPeCXIb+qjc/fvzvHPN/OdDvB1zUNYZdeU8yYw1ANptKIPXY9hy3fSO5rOF7JccwtsfX4cPVvBnYzs+fW8X5r7zCCxu3QtzxdD/iGS69cQH0vYLJF5xA+8SKBZoTh09mcv/trPrzdPasyz2YmS9Pp2/ZZvJef5mNW6Ftl3MZNCgRdq1g2ZORXH1C7E+17Ev52xjZsR/X/X06387ZStsu3fnk0Uv5XdWNXZhMCHOXsf72QXRN+znlrcrZkDO7WmeIfQ71GsKIaU8zqtU61ry7E4C2XQZzVt84KFvH6uUACVww4af0rVxH5+SK4Uf0mjyZyQDvLGbKnFUhjo2G6X7vbO4f2RHSEnl7wA0NGzlVXcI4zu4aAxteoa76VZ2PNTWV+KnVgkDFX3e8np5VI5z2qHM7LOKxFUWce9Eg/vvF+Zz+9FrKjh/Aeef2qLYuVRNa+BsWjlvB1f1G8//6zeKGlctZ/V4Zqaeey51/n07vHOg3uDP/KQFa9SR9+hV8PGFOcCv7KdzxU681M3hhQxpXnXoTy586kb+tLKPLuYPoFbpQHRHmc6yxFLK9FGKObc9xLUvIyS7ii+uhbZckWrGdihmETfv6nPSNsuqhEM89zGd4mM8NSZKaHwtYknQYKbpnJKNj/8ofR3dnRHpv2L2LwlX384sfTiUyy/C9T7ZDz050yltENjDww09o3z8BNhSTV7WdC+mXdwsPThlBn0EjSB8CUE7Zpu2cxgJyhlxOenrPyjQkX5JOMiVkrahefNnC25tL6NW9E4NGJDMEqqY9/m78BDIbMAqp3v2pll04diJn/f0uhvceQcVL8AkrX4Pqc2bCZOo3m5wNk+jf8wRgA0/OqfmE6t3nUK/hcXTqfBL9+vbhjEjT7l18WPQysyZfw8xSgG6k/SSd1Bqjczpwdno6ZwPk7WbKnFWhjo2G2Jy9jqK0RI55fz2bg50NkDBuACdSzvp/3F/nVL/Geqx9bSf72h8y6YiH+MXAUxmRfiaUl/HRe0u4+5qx/LGuHWs0FaOw0mYMYdhtE7k7dSozb/xvej30a87tPYJruhbz6j2jee2ibLq2j6f/iMsZ0mgFrHDHT/3yuXnMJNo99CsG9xpBeq8yPlr9IFm7rueKPYd5KI19rNZtDR98QsXn4YfP8iawu2Qrv+qdCORVjmZq2tfnD5tGcWfqnlSY517/Z3iYzw1Jkpqfr8XFxX0ZbJQkSdJ+Sskk95FU2pbt4NPP/1PRtvU50gfeQCMvBR/lYpn07GbGJedxX3wqtQbL6ZAaeO8yMs5rW/HN14/kmGNbsjUr8tdQJUmKPo7AkiRJakxb1vPm6+34ZvW2jwv5uPr3XwGxJ9/KkG5AwUYadekqNYqPC98lP39Hzbb1W2p8L0lSNHEEliRJkg7YiGlPM7pLxb+P/nZnjo8/lpYxu8j9wyAuvKfJ52FKkqTDnCOwJEmSdMA6nNiTPr1jgHLKdnzKp++9zMK7f8uvn7B4JUmSDpwjsCRJkiRJkhTVvh5saHTdb+TRp5/m0Ru7B3skSZIkSZIOH9ZAmkzTTyFs15VT+vSBLe2CPZIkSZIkSYcPayBNpulHYEmSJEmSJEkHwAKWJEmSJEmSopoFLEmSJEmSJEU1C1iSJEmSJEmKahawJEmSJEmSFNUsYEmSJEmSJCmqHRFsOGhSMsl9JJX2wfaIvPuI/2NnM8G+CDNmgn0RZswE+yLMmAn2RZgxE+yLMGMm2BdhxkywL8KMmWBfxOGcSZ0abFUTOHQFrHUL+d+Md2kVbI94ZwmsW2Mm2BdhxkywL8KMmWBfhBkzwb4IM2aCfRFmzAT7IsyYCfZFmDET7Is4nDM6KL4WFxf3ZbCxUVWOtCJrNL3HZAd7JUmSJEmSDg/WQJqMa2BJkiRJkiQpqlnAkiRJkiRJUlSzgCVJkiRJkqSoZgFLkiRJkiRJUc0CliRJkiRJkqJaTIsWLW4NNjaqz7/gyPJi8pY8R87mT4O9kiRJkiRJhwdrIE3ma3FxcV8GGyVJkiRJkqRo4RRCSZIkSZIkRTULWJIkSZIkSYpqFrAkSZIkSZIU1SxgSZIkSZIkKapZwJIkSZIkSVJUs4AlSZIkSZKkqGYBS5IkSZIkSVHNApYkSZIkSZKimgUsSZIkSZIkRTULWJIkSZIkSYpqFrAkSZIkSZIU1SxgSZIkSZIkKapZwJIkSZIkSVJUs4AlSZIkSZKkqGYBS5IkSZIkSVHNApYkSZIkSZKimgUsSZIkSZIkRTULWJIkSZIkSYpqFrAkSZIkSZIU1SxgSZIkSZIkKapZwJIkSZIkSVJUs4AlSZIkSZKkqGYBS5IkSZIkSVHNApYkSZIkSZKimgUsSZIkSZIkRTULWJIkSZIkSYpqFrAkSZIkSZIU1SxgSZIkSZIkKapZwJIkSZIkSVJUs4AlSZIkSZKkqGYBS5IkSZIkSVHNApYkSZIkSZKimgUsSZIkSZIkRTULWJIkSZIkSYpqFrAkSZIkSZIU1SxgSZIkSZIkKapZwJIkSZIkSVJUs4AlSZIkSZKkqGYBS5IkSZIkSVHNApYkSZIkSZKimgUsSZIkSZIkRTULWJIkSZIkSYpqFrAkSZIkSZIU1SxgSZIkSZIkKapZwJIkSZIkSVJUs4AlSZIkSZKkqGYBS5IkSZIkSVHNApYkSZIkSZKimgUsSZIkSZIkRTULWJIkSZIkSYpqFrAkSZIkSZIU1SxgSZIkSZIkKapZwJIkSZIkSVJUs4AlSZIkSZKkqGYBS5IkSZIkSVHNApYkSZIkSZKimgUsSZIkSZIkRTULWJIkSZIkSYpqFrAkSZIkSZIU1SxgSZIkSZIkKaodZgWsBMbOzWFdzlzGJgT7JEmSJEmS1BztpYDVmh/ctZicTQUUFxdTXJjP2zlPcdfwpJqxEdN4+umnmTaiZnOTCP1Yoxh2ZiKtE89k2KhgnyRJkiRJkpqjI4INCbct5L4ruvLZ+y+z4NG1lB0/gCGDe3HFvQ/x+bpzmLyxMpjUlT59ehLzco0fbxqhH+serv99N+7tX8CdDwT7JEmSJEmS1BzVKmBd0a8rMazlkUEjub20sjF2AOf0zGNppHgVxfJnjmHYzGCrJEmSJEmSmqtaUwi/+E850JakwbF7GktfYekrFdWslMzciqmF1/cEoOf1xRXfFxdTXJzFxMjPpGSSG2kv2MS6nMXMGF19GuJEsiL9eQ8ztO9tLH6rYtpiYf6rPDA0NvxjTcyq1h7oq4oUU5ybycS7l/JWQTHFxYXkr3qKSQOqPc+k0WQuXUt+YTHFxQW8tfReJj2cu9ftSZIkSZIk6eCIadGixa3VG97YfjJpQ3vR64IrGdrnaLasyGPzzi+q+j//4kjKi9eyqqwd/Y5vxXv/yOCxrFWsWrWKVate4rl/rKG4IsiR5cWsXbWKd3cdw3HfO5nTv38RPUse5fE3vwA+52uxn7DzqC50/d4XfDuxL63ef4r5ueV875Su9Orbkf/f3v3HeF0XcBx/MUoFLyQZHdxxmIk4oOOXUCwdIWgO3BUFY6Y1w7m2Ywk4MldBxNIt5tgEl4tgNcXaIskou7NYOgoY7AgvcqchtzI4fhmEP+ASd9kfh9zx5WCw1fHZejz++nzfn/f3/f7u++dz38/7+7vHNuTV89qrR3of3Z3t27entXx8rrriQLYt+3E2n/rUyY13LsiEqysyvN+RbHlmXbb+44O59qPVufGGyvx+dX32pTJLnvpJbh/2/hzZ8XTWrG/MiSFTM3nIJbm819Ez1gMAAACge/QoKyt7t3Sw7+TFeWLZ7IwrvyRpa82+F36Uubc/mJM/wmr3QF32zRudxuUVmba00/jZVD6U5xtmZ/DWJbnmcytPDd+yekcenzYgB+ruyth7NiTpnYW/2Z051Y1ZXjEtS5ML2uuBun2ZN7rTe08b35N1n/l47m1Izthn5CPZ8uyslDcuz8RpS9OSJBmfR7etz4yqM9cDAAAAoHuc8Qhhkhx9bkk+PWZ4rr97ZTa1vJPycXPy043fzy2lE8+l7+Tcv/pneW5bU5qamtL06+kZlKTXZX1LZyY5lD89veHk9fE8eGtFKv4nwehw9ja8d30877R1ulVelsuSHNxVfzJeJUlD9h7umAIAAABA9+syYLU7nv3PLsmsCWOz8A+vp2flhNxxW+mcs+j9+azZ+Hjuu3Vs+hxrTnNzc5r3/DNvl8475d9pO1E6dnG8fUyxAgAAACiSkoDVO707nWne7niaDr2R5NJc2qf0XtKrT2XpUHLDlIzo3zN/XlmdcZNrUlNTk5r5W3KkdN4F6nKv/5aDb+VfSQaPmJ6Or2B8BvXrmHK6azJ9wYLMGnHGF3aBirYOAAAAQLG87/SXN+V7m1ZkXOvuNP5xU3a9lvQfenMmTapKjm3NxvWdpj7ZkJe+MjrD7nwm9eW/zZZX30r698vx1fOz7GQMGj5rbVb02JbX+lfntk8NSo89SQbXZM2Klix/Ipk69eoMqOqVJKmaviiLJrye7T9ckfqOZ/janWuvnZWZOvfujLuifeqIK5PkyoxZtCiLkuSv9fnOk9s71jqbnY/m+b/MyOyP3Z/Nv7wuP29ozdCbJ2VMF9EuSUY+siaPzfpwMqMqL39ifnaWTjhPRVsHAAAAoGhKAtbBvLz7QMaMHJJJM6szJUlOHMuhV+ryrXvnZnXnQ9xbFufLCyuz6r5PZti0L2ZUkrS1Zusr87Ps0W/kobUj892aUZlZOzZtrfvy4trF2TxqVeZUfSRTZt6RF1uS2trRp5ar/mxtqnMgdVu7CFjn2mvn8Mz4Um2mDej8hsGZWFubiUnSeOL8Alaa8817FqZ81Vdz05iZqR3TmsMv/CB1x+blCx0f85TdG5rSMqMqH9j7UnaX3rwARVsHAAAAoGi6/BdC3tPFPyICAAAA0K3OcYg7vUd8O1OGJ/nbrtSX3gQAAACgW5Q8Qvj/beayX+Wuoe3Xl3/o2lxV0Se9eh7LjqcedqYUAAAAwEUiYHUy+LrRuX5szyRtaX3jzbz5901Z9/DX87VflB7KBQAAAEB3Oe0MrP3792fgwIGd7wMAAADAReUMLAAAAAAKTcACAAAAoNAELAAAAAAKTcACAAAAoNAELAAAAAAKTcACAAAAoNAELAAAAAAKTcACAAAAoNAELAAAAAAKTcACAAAAoNAELAAAAAAKTcACAAAAoNAELAAAAAAKTcACAAAAoNAELAAAAAAKTcACAAAAoNAELAAAAAAKTcACAAAAoNB6lJWVvVs6CAAAAABF4RdYAAAAABSagAUAAABAoQlYAAAAABSagAUAAABAoQlYAAAAABSagAUAAABAoQlYAAAAABSagAUAAABAoQlYAAAAABSagAUAAABAoQlYAAAAABSagAUAAABAoQlYAAAAABSagAUAAABAoQlYAAAAABSagAUAAABAoQlYAAAAABSagAUAAABAoQlYAAAAABSagAUAAABAoQlYAAAAABSagAUAAABAof0HrHwhAxQolqgAAAAASUVORK5CYII=&quot;&gt;" style="rounded=1;whiteSpace=wrap;html=1;sketch=1;hachureGap=4;jiggle=2;curveFitting=1;fontFamily=Architects Daughter;fontSource=https%3A%2F%2Ffonts.googleapis.com%2Fcss%3Ffamily%3DArchitects%2BDaughter;" parent="1" vertex="1">
          <mxGeometry x="-350" y="326" width="561" height="313" as="geometry" />
        </mxCell>
        <mxCell id="2e5F1GHSX5DQpQCDhNSY-2" value="PSCAT Loading Screen" style="text;strokeColor=none;fillColor=none;html=1;fontSize=24;fontStyle=1;verticalAlign=middle;align=center;fontFamily=Architects Daughter;fontSource=https%3A%2F%2Ffonts.googleapis.com%2Fcss%3Ffamily%3DArchitects%2BDaughter;" parent="1" vertex="1">
          <mxGeometry x="-236.5" y="276" width="334" height="40" as="geometry" />
        </mxCell>
        <mxCell id="2e5F1GHSX5DQpQCDhNSY-6" value="While Loading . . ." style="html=1;shadow=0;dashed=0;align=center;verticalAlign=middle;shape=mxgraph.arrows2.arrow;dy=0.6;dx=76;notch=0;sketch=1;hachureGap=4;jiggle=2;curveFitting=1;fontFamily=Architects Daughter;fontSource=https%3A%2F%2Ffonts.googleapis.com%2Fcss%3Ffamily%3DArchitects%2BDaughter;fontSize=16;fontStyle=1" parent="1" vertex="1">
          <mxGeometry x="244" y="439" width="208" height="83" as="geometry" />
        </mxCell>
        <mxCell id="2e5F1GHSX5DQpQCDhNSY-9" value="" style="shape=table;startSize=0;container=1;collapsible=0;childLayout=tableLayout;fontSize=16;sketch=1;hachureGap=4;jiggle=2;curveFitting=1;fontFamily=Architects Daughter;fontSource=https%3A%2F%2Ffonts.googleapis.com%2Fcss%3Ffamily%3DArchitects%2BDaughter;" parent="1" vertex="1">
          <mxGeometry x="488" y="377.63" width="197" height="191.75" as="geometry" />
        </mxCell>
        <mxCell id="2e5F1GHSX5DQpQCDhNSY-10" value="" style="shape=tableRow;horizontal=0;startSize=0;swimlaneHead=0;swimlaneBody=0;strokeColor=inherit;top=0;left=0;bottom=0;right=0;collapsible=0;dropTarget=0;fillColor=none;points=[[0,0.5],[1,0.5]];portConstraint=eastwest;fontSize=16;sketch=1;hachureGap=4;jiggle=2;curveFitting=1;fontFamily=Architects Daughter;fontSource=https%3A%2F%2Ffonts.googleapis.com%2Fcss%3Ffamily%3DArchitects%2BDaughter;" parent="2e5F1GHSX5DQpQCDhNSY-9" vertex="1">
          <mxGeometry width="197" height="97" as="geometry" />
        </mxCell>
        <mxCell id="2e5F1GHSX5DQpQCDhNSY-11" value="&lt;b&gt;&amp;lt; NO WORK &amp;gt;&lt;/b&gt;" style="shape=partialRectangle;html=1;whiteSpace=wrap;connectable=0;strokeColor=inherit;overflow=hidden;fillColor=none;top=0;left=0;bottom=0;right=0;pointerEvents=1;fontSize=16;sketch=1;hachureGap=4;jiggle=2;curveFitting=1;fontFamily=Architects Daughter;fontSource=https%3A%2F%2Ffonts.googleapis.com%2Fcss%3Ffamily%3DArchitects%2BDaughter;" parent="2e5F1GHSX5DQpQCDhNSY-10" vertex="1">
          <mxGeometry width="197" height="97" as="geometry">
            <mxRectangle width="197" height="97" as="alternateBounds" />
          </mxGeometry>
        </mxCell>
        <mxCell id="2e5F1GHSX5DQpQCDhNSY-14" value="" style="shape=tableRow;horizontal=0;startSize=0;swimlaneHead=0;swimlaneBody=0;strokeColor=inherit;top=0;left=0;bottom=0;right=0;collapsible=0;dropTarget=0;fillColor=none;points=[[0,0.5],[1,0.5]];portConstraint=eastwest;fontSize=16;sketch=1;hachureGap=4;jiggle=2;curveFitting=1;fontFamily=Architects Daughter;fontSource=https%3A%2F%2Ffonts.googleapis.com%2Fcss%3Ffamily%3DArchitects%2BDaughter;" parent="2e5F1GHSX5DQpQCDhNSY-9" vertex="1">
          <mxGeometry y="97" width="197" height="95" as="geometry" />
        </mxCell>
        <mxCell id="2e5F1GHSX5DQpQCDhNSY-15" value="&lt;b&gt;&amp;lt; NO WORK &amp;gt;&lt;/b&gt;" style="shape=partialRectangle;html=1;whiteSpace=wrap;connectable=0;strokeColor=inherit;overflow=hidden;fillColor=none;top=0;left=0;bottom=0;right=0;pointerEvents=1;fontSize=16;sketch=1;hachureGap=4;jiggle=2;curveFitting=1;fontFamily=Architects Daughter;fontSource=https%3A%2F%2Ffonts.googleapis.com%2Fcss%3Ffamily%3DArchitects%2BDaughter;" parent="2e5F1GHSX5DQpQCDhNSY-14" vertex="1">
          <mxGeometry width="197" height="95" as="geometry">
            <mxRectangle width="197" height="95" as="alternateBounds" />
          </mxGeometry>
        </mxCell>
        <mxCell id="2e5F1GHSX5DQpQCDhNSY-22" value="Background&lt;div&gt;Work&lt;/div&gt;" style="text;strokeColor=none;fillColor=none;html=1;fontSize=24;fontStyle=1;verticalAlign=middle;align=center;fontFamily=Architects Daughter;fontSource=https%3A%2F%2Ffonts.googleapis.com%2Fcss%3Ffamily%3DArchitects%2BDaughter;" parent="1" vertex="1">
          <mxGeometry x="512.5" y="293" width="148" height="69" as="geometry" />
        </mxCell>
        <mxCell id="2e5F1GHSX5DQpQCDhNSY-24" value="Main Menu" style="html=1;shadow=0;dashed=0;align=center;verticalAlign=middle;shape=mxgraph.arrows2.arrow;dy=0.6;dx=76;notch=0;sketch=1;hachureGap=4;jiggle=2;curveFitting=1;fontFamily=Architects Daughter;fontSource=https%3A%2F%2Ffonts.googleapis.com%2Fcss%3Ffamily%3DArchitects%2BDaughter;fontSize=16;fontStyle=1" parent="1" vertex="1">
          <mxGeometry x="734" y="439" width="208" height="83" as="geometry" />
        </mxCell>
        <mxCell id="agJgPbNk82VkGmNzE8Ct-30" style="edgeStyle=orthogonalEdgeStyle;rounded=0;sketch=1;hachureGap=4;jiggle=2;curveFitting=1;orthogonalLoop=1;jettySize=auto;html=1;entryX=0.5;entryY=0;entryDx=0;entryDy=0;fontFamily=Architects Daughter;fontSource=https%3A%2F%2Ffonts.googleapis.com%2Fcss%3Ffamily%3DArchitects%2BDaughter;" edge="1" parent="1" source="2e5F1GHSX5DQpQCDhNSY-29" target="agJgPbNk82VkGmNzE8Ct-17">
          <mxGeometry relative="1" as="geometry" />
        </mxCell>
        <mxCell id="2e5F1GHSX5DQpQCDhNSY-29" value="&lt;img height=&quot;382&quot; width=&quot;520&quot; src=&quot;data:image/png;base64,iVBORw0KGgoAAAANSUhEUgAAA1IAAAJxCAYAAABIaYMrAAAACXBIWXMAABDrAAAQ6wFQlOh8AAAgAElEQVR4Xuzde3hU1dm4/9tGrcRYkBZNSUEoeAAMBASKSAWJkRqMlYJQrEq1WAwee7BpX6GWb/Bn0WIVqkFNqwiFwgtVqSQigrX1QARjJBIUiERipkHqAQqJxTf6+yOZZDKQMBsCIt6f65rrYtZ6Zu3T2sN+Zq+1c1RCQsKnSJIkSZJi9qXoAkmSJElS80ykJEmSJCkgEylJkiRJCujoRu/ScimcnU5io8IIRffS/venGhNdF2aMMdF1YcYYE10XZsyRGZM+LbpUknSEaZxIlSzmkZy3ad2oMMLmFVCy1pjoujBjjImuCzPGmOi6MGOOzBhJ0hHvKJ/aJ0mSJEnBOEdKkiRJkgIykZIkSZKkgEykJEmSJCkgEylJkiRJCshESpIkSZICMpGSJEmSpIBMpCRJkiQpIBMpSZIkSQrIREqSJEmSAjKRkiRJkqSATKQEQFZeiFAoj6zoiiDScikMhQiFX4W5pO1PjD53gvWfJCbML6CkYD4TkqLrjkD2eUmSjkgmUoGkkVsYcUEUChEqL6X4hYXcNrRNdPBhpA3fuzOfgo1l9ev8RsES7rykS3TggSlZzCM5OeTkPEbx9ujKOrHEBBDfYzwz8wt4o7S80fGYNDA+OvTzZdR0/va3vzF9VHRFcGPnra/dN6WPc91hsVvGkDGoA206DCJjTHTdIZKV1/g8jn61ZLLTwn1ekiQdHo6OLlAMthfz2LznqQQSThnIBecPYsLs5Xz96n5cuzw6+LOXNGUx917ejY/eeZ5FjxZTfcpAUs/rzeX3PMR/S4YyeUP0J/ZTRT4zsvOBNHJHjCA5uh5ii4lVlywWPX4TKcftYMury3hi9du0Sh7OBWcPYtwvf8Ssi2fy7+jPfF506cZZZ6UQ93x0RVBjyejdmu2bN1PTOZnUK+C+B6JjDrW7uem33blnQBl3zIquO0RWzCPn2Jdq/504iMtGJEPxY8x7vrK2bPsaShqiD0xL9nlJknTYMJHaH9XlPJ6dTThnmjJ2Hi9PH0Ja5gRY/plfpe7h8n7diKOY2UNGM7WqrjB+IENTiljZUknUIZfElAevJ+X4Sp65fihX/vXDuvJs4nv0ofPmws9vEtWS0lI5o3UNpQ/9gR3XTKf34LHwwPzoqEOu9L7xZNwXXXoIrZlL9pq6f6flMmJEMpQ/Tnb2YfhLiCRJOiw5tK8FVM3/G2u3Q6vjwsP74hk4aUnDULqyjRQsmUR4tFnS7c8SChWSmwYMf5iiUIjVswZTP3TwxXvoubd2ykspXpnLuPoReVnkhYciFT3M8L5TyF9XG1te+hKzhtcu8ONPaoB2dDkvYlxX1YusfDGcVTX4atYS1pWFCIXKKV2zJGqI3L7W5xDqeQtp3eKofvmPXFufRNWqWlfIuvpNa/5YhOevPDvvYQrKQpS/8TR33LGQN8pr9+Ef6sZ3ZeXVDvcad91C1tQNIyxbt5LcyI2PnAtTtpGSgnxm7mXntBl6G0sK3qC0vDa2bGMB+TPH0QVIyy2s/fxNKQCk3BQx3CzmOUgNeg7vTiKbeG3BE7y2uYbWZ6RGDFmLrf9A8+scqdn+s8dwuqjtGTmH10Mh1s8bG1m6l/JD2Q/30X9ijpEkSUcaE6kW8RWOO7bhXdJPFzJ7Yl/aV7/OopwcFq3dycl9JzJ7URZdgIr3dlFDK+K/Bpx5Ml+tqaHtSWcAfWifCNWV61kLdLl9KQsm9qXtBy+zKCeHOcs28H/fTGfqX2bVXQyvYF5ODo8Vb4eTTuZHv7iY+MIF5Cwq5INjT+Hi39zNYGBWzjIqahIZdt9qVs65he98vakrvM6kf681hQtymLPiLT4+uS8Tfz+NfnW1+16fQ+j8rnQAtqx7nD3TwQb7OhZhXU+p4v+b9AzbvnImGd1WkzW7mN2tTmHgmIgtazeYX43vyFtLHyRn0Ro+OP4M0qfO4Z7wDqqfC5PDon++xY7WZzJy6l+ZM7Zhf8cPz2X57An0bv0hrzyWQ07OIl7+oC29Rk7lT789jZLFj5CTk0POP7YAsOUfte3Vvuaxor6lWCQxplcnKHuNBRVVzH11EyQmc3F4fWPsP/ta5wbN9x9WzKvflrrNa2zxDJ4th9a9M4hMpUZe0pu2vM+axbV30g5lP4yl/8QSI0mSjjwO7WsB8ROGkdwK3n9vE9CTW0b14fiaN3l4xEXcWgrwJz5YsYprUr7LDT2ncXNxJdvoQ5uOkHZqIpUbNpBwYkeSkqAV8P67bwBp/OrC04mrzGNi//ENwwgnLWPTxLMYORiWP7eGudlr2Jo7ghHJKXTaMY4+45cD8Xx6+iYmJndkAPDc0vGkjbuNR6dfRd/Un/Cnl68l9OrD3Pj9qTS+KbWDZ68fzA2rAabzn2WbmJjchaHA6pjWp6Glg+6YLxEHVO+oiK6JEMOxqIvctv5xnpjbhwl3ng8v3cUThadz29VRs1ni/svqqQO4YnHt2+lvPk7xrf3p/4OesHptxFyYOkm38+zqqxh46RUw/wEgiayfDiOJN3l4+Hl16wNkd2Hod45j1VMbqGID2flA1tlkntuR91/NJntaQ5NA7Z2v2ekkRhXXK7qX9unTIGkiA0+HyrylrAVY8BplV43mrPD6Ekv/SWLoPta5QXP9h0bD6bLOzuTcjvUfrLOaR18uZ+TI3mSMhfnzAUZySe+2UJnHo4shtvOivsEDFEP/WRtLTONWJUnSkcFEan+06sAlkyczAGiXPJwLzu7I8buKyP3NYmACHU8GtpXy9/BFJxUsLi7nmm6dOO1CYGYZ24A2X+9Jn/bt2Pp8Pju/256U7jW0Bio3Pwdk0T4RIJ3ZoVC4oTqVHB1xB6zWu7z2WPiysoqpw9ozNaL2w5VTuLj3XXz9O7dw72/GcnbfiSx47htc3e/a+otReI93Vof/XcXHNfUVhO+Wxb4+B9nHn1BD7T6kNk3Yi7P3fSwKG6L3bQuv1yVRAFUPr2HTrf3p3vV8YC20Gcotv8vkwuQeJJ4A7P6UY4gc8nkRyZ3ioPw1FtSvD0ApK5+KfL8PJYt5JOdtWkeXh22uvW8Vf3lvuvIRbx0zgMmTBwCt2LUTevQaQxJraZyCNtV/JvDXmNe5uf4Tm9W/fYY3R15F73AmNfISereF8sUP1PXTQ9kPY+g/a2OJCZdLkqQjiYnU/midzIjMursVu3fx7sY8fnfDjeQ2utBsRtU2dlVDu4Tz6dyukndWbuGky3tzZvIntKOSwoiL+50F0xk9pfbCuMFutu7xkIhPqNkdXRatin89NYXRT93FuAWvcMe3B3DZcFi+NDquabGvz0H2zCbKf96HDskj95IUfAbixzLnuTtJbbub0MYSSt8FOJHOJ53I8fVBO/hoN3DMcZxYX7Yfou98NeGKb51OHMdxalomp0aOeevam8vjYVqju5FN9Z8WWudYVdzPP9ZfyTW9MxjLfHZf0pu2lPHMQ/UZGnAY9UNJkvSF5Ryp/VGZx7j27Wnfvj3tO51KytDx5NY/3eAltmwF2nVhSP0EiSRGJncAytiQD/AW72+HdokDOKntNjY/9xJbtiZyRvIxxFHJxuUA+Wwog4QzUxn2nyKKiiJfJfyruYlBjcQTv8eUqCpK3t0BfJkvfyW6rilB1mcrOz8CWrflm5HFjcQS04y1f+blshriul3GQ1lNzUSJ5VgE0ZEzRza8i7+qL12ByndegXNS6dEujuIHkuk7NIOMjAwybn6R9xvCgX+wMVQDSf35YcSDHJrT6iv7+xdrxzK4Wytqiu6la7ivtm9P+ymrqI47nbOvim35+7POB6aCaU8XU9P6W1w6oXZYX8365dxVf1cnSD88ULH0n1hiwg6wz0uSpMOKd6Ra3FruWlTI8J/34crHnuSE/y2Aft/j4m5x7Cp6gplrAZazsRLSv5LI17ZvoJC1fLPyBCb0+hK8+yqvR7Vz/dNrGPbiizy7YRsknELPo5/i0p8tgr6XM/nCziR2aAVAh0smM3nAdtb8aQb59bdozuO+52fQt3oTRa88z4Zt0O608xkypAPsWsVzT4Tj9iWG9YmI/Wfp+4zu1I/rnpzBSQXbaHdaTz589FJ+XT+OMJaY5qzmf25fytn3XUzKTSt4ddhqXlm9lrd3JnBKv0G0L8kk/ZcxHItATyeIo/cvVrFw8FKKSSbjwv60qinjhT8+B/8dwUdA99ELmXFUAdvaJTP8gm9wVDnQMYM5Myq498a5TLt7Gemz0hl232peGLeCp4q3AQmc0vNonrr0Z9TvxbmrWX99Ct1+8CT5Jz/Ni2/vhHZfpSr3ZqbHMlRsbAa9W8OmV+c2fhjHnALenDSA5NQroGBXDP2nIvZ1blYSF954NX3rxiP2aAvQlt6TJzMZYHM+2XNrJ1BVzVzKKz9Oodf4X1LdtoYNix+MuOMYpB8eqBj6T0wxDe0dWJ+XJEmHExOpg6Di7tGMi/8Lvx/Xk1GZfWD3LsrX3M9Pvj+N8Oi/LR9uh5SudC1aynJg8LsfkjggCd4MUVTfzkX0K7qNB7NHcdaQUWSmAtRQvXE732IRBamXkZlZ+5hsgOQRmSRTSd6qyAvhrbyxqZLePbsyZFQyqVA/HPHXN9xIboBf8Pe5PhGxiydk8e0n7+SSPqOo3QUfsvpliJiQFVNMc6qWXst5ZWuY9rtrSDttAOlnnAPUUL0jxNsbTwPWxnQsYreZvEd3MvSnP2ZQqzh2f/AGeVOv4ebVAP/D7Qt78tuMXozK7ENNdYjXF97GC70eYmKHb5I66jJev3Eua+oe/PFg9gh69x9F5qDalnfvKuZfp8Gi8NC0itv48aQkHvrJYLqlX0EvgJpqVm2MLZFKSz2D1pSxbEHUoMequby66SZSug1mbGqbGPoPVMW6zs3qzsgfZpLe6AkZHTk3M5NzAYp21ydSVN1H/ms/pf+AJFpVv0zOtMbbEKQfHqhY+k8sMWEH2uclSdLh46iEhIRPowslNZaVF+KmlCLubZ/OtOhKSZIkfeE4R0qSJEmSAjKRkiRJkqSATKQkSZIkKSDnSEmSJElSQN6RkiRJkqSAfPy5Ggy+h+dyLqBdZNm2p8kcfDPPRZZ9jgy+5zlyLmi0RWx7OpPBN39et0iSJEmHg8/RHakkJswvoKRgPhOSouvUIo5N4IQ2bfhyVQWlpaW1r7fL+SA6rilpuRSGQoTCr8LcYH/vNkJWXohQKI+s6IqAPih/u2FbKqr4cps2nJBwbHTYF0bT+9XzS5IkKYhGiVRabiGhUCG5e1z99uSeF0OE1s9jbHTVITOGjEEdaNNhEBljousOnfivn80P7pzDyjWllIdChPL2vCSNSZdLuHPhCxSXlhMKhSgvfYOCJZMYGB8duG9dxuWycl1ZbfJSto4X5vyEHvvRTtj2ojvJyMiofV05nei//zp23vraZZU+znWRyylZzCM5OeTkPEbx9ojyz9Da6Vc2bMudRRwOqxXfYzwz8wt4o+7Yh8pLKX5hIZP25+C3mMPj/FJz0sgtjPihIlTGxqIXWHjbUNoEiolFFnl1bayfV/etH/FDSe3XXiwxMYrx+3Cf33WxtBP9g0/4dQA//EiSvpgaJVLLV7zBdhLpPrxnZDEkjaFXJ6he/xzzG9ccQndz02/zeGXFA/x/s6LrDp1zsu/jrsuHcMqXP+CD6ujaGH3tBpY8dT+Xn/1Vdq1bxpycOSwr3U37vhN58IGR0dHNih/+MP97Rzqn1mwgb04Oi16voWPqLTw+dwIH57J8LBm9W7N982beb5VM6hURVRX5zMjOJjv7ccr3d98c6bpksejx/8fIM1vz4bplzMnJYdFL2zim4yDG/fJHfC06/pA5PM4vxWDLP8jJySFn0T8p/zSJQRPmsjoviy5BY2LU+oxU0oC0MX1IjK6sE0tMk2L8Ptznd12M7YRtL36sdh+FX48spiQ6SJKkZjSeIzX/OdZPHcKAXmNIYi0VdcXxl/emKzUUF8xpFH6old43noz7oksPrZLF93HL/Yv5c2E/cgtnkx4dEIt/z+Qnub244fUbuXlpVV3hM7XtJV/EcBaztNEHmhLPDdedT2LNmzw84gJuLQWYx3+e/TtX9RtNVtID3BY+iC0lLZUzWtdQ+tAf2HHNdHoPHgsPfHbp9edLElMevJ6U4yt55vqhXPnXD+vKs4nv0YfOmwv5d6P4Q+twOL8Ug/dfJTt7GgDZdCEr7yluSvkx06+bySXh49dsTPg7Z98qV63iowHJXNyvJzXdEylbtYrjBgwIHNOsmL4PY/mui6WdBtXlj5OdvTyiRJKkYKLmSM2h4M0a6NiNiyJKv9urM3Fs4tW54f+c4hk4aQkFG+uGWJSXUrwyl3H1P3c2DPkIFT3M8L5TyK8bjlFe+hKzhofvlXRh3Mx8Cko2UhY5xOK1hxuWn5UXNQRjb/M7otanbOMewzmy8mqHbmTdtZJ1ZSFCoXJK1ywJPJyqIv+P/LkwfAG8/0qnjY/4zx7gBcq2AV9tx+kRpc27gm+dHgflr7GgNFxWyv0vboK40zjrIAzR6jm8O4ls4rUFT/Da5pr6X6KDCB+LcdctZE3dEJyydSvJbehA9b6ataTp4xU5RKdsIyUF+czcSxuHjZ63kNYtjuqX/8i19UlUrap1hayr7w776s8xnl9dxpG7spjS8hCh8lLWLLyOr4abCIvp/IrhPNVnpJRpv1xKGa1IbnR7OFIsMU14fxkvl3XgrAk30qtTJSUF70dHxBazD/v+Poztu27f7TT4aOdHdE5JISWlO18P9t+AJEnAHolUFXNXb6CmVTcG10+GSiP1jNZQ9hoL6u5udLl9KQsm9qXtBy+zKCeHOcs28H/fTGfqX2bVXVSvYF5ODo8Vb4eTTuZHv7iY+MIF5Cwq5INjT+Hi39zNYKDfzHncMfJMWu9YzzNzIoZYLHyaLeHFr5hXX/6P+sLGkn66kNkT+9K++nUW5eSwaO1OTu47kdmLooaytBvMVYP/j5cW5DBnxVt8fHJfJv5+Gv0iYz4z36V7R6B8E89EVzWpDce1Aj78F2u7XEfusmUszOpLxev/YjtxtO0YNUTzgCUxplenur5QxdxXN0FiMhfvzw5sN5hfje/IW0sfJGfRGj44/gzSp87hnkZtdSb9e60pbOp41c/JymHRP99iR+szGTn1r8wZe5heFZ3flQ7AlnWP09w9gX3351jOrySmPDiV9DNOYMeri8h5cBHrT76S9M5RC4vh/IrpPNVnZ+1y3nwXWnXq1/SPGrHE7NVbLC2ppNOwYXR9fx35hdH1EFtMUNHfh/v7XRfdDtCnPYlAp9ELeCEvj7y8Z3jlzTd47p7hB2k4tCTpSLXH488rHlzFpmuu4ozUNJi/HHoOp3silC38U91DB9L41YWnE1eZx8T+4wkPjJgyaRmbJp7FyMGw/Lk1zM1ew9bcEYxITqHTjnH0Gb8ciOfT0zcxMbkjAwC6dAA2s2zi97mpsIlLyzVzyV5T+8+sszM5t2PjaujJLaP6cHzNmzw84qK6IR9/4oMVq7gm5bvc0HMaN4eflhD3Psuvu4AbVgNM5z/LNjExuQtDgdXh5j4jXSb9kG+1rmH9wrv2eLhDk9JOJRGoDBWS9qtppCcnQrtrScuqoho4LuHk6E8cmKSJDDwdKvOW1q7jgtcou2o0Z/2gJ6yOea1rxf2X1VMHcMXi2rfT33yc4lv7079RWzt49vrBTR+vinxmZOfXxQJJt/Ps6qsYeOkVMP+BhvIDlZZL4ez0pud+FN1L+/TaYVTNOuZLxAHVO5obbxlLf47h/Arf/Sr6AxddPK12mG52P2YWPMHI1hGL2+f5BUNjOU/1GdpNzSfRZdFiidm75QsKqUxPp9XaPBaTyq3RAcQWE8Qe34f7+V23RzsAVbv4sPw1Xlw0iz8sf5s2PS7j51lj6TN6Gg/8c2n9d5IkSfuyRyJFxQJeK7uK0d2H05PlvDemF52oJG9p+L+hPrRPBEhndigU8UGASo7e48nS7/LaY+F0q4qpw9ozte5d0hPP84PkQVz65JtctCPE28XF/P3x+5nx50JiHzx3Nh1PBraV8vf6IR8VLC4u55punTjtQmj4H/Q93qnPmKr4uCb8789W/PBc/jIhmWMrlvDbIJOaXihjG5Dcvg/Lb/gjeR0u5isrZ7H8az9lBrDz/3ZHf+KA1M6V+4i3jhnA5MkDgFbs2gk9oubUxWYLr0dcsFQ9vIZNt/ane9fzaThg+zhebYZyy+8yuTC5B4knALs/5Rig1XHBnk+2TyWLeSTnbSLzj0Y2r4gu2buPP6EGaPP1nkR0yihB+jM0eX6l5TIG2LohP+K4rOad94AO9QUxmdsi56k+t5aPp0/7un+npTaqqhdLTIz2+n24H991e20HYOaldJ/Z8JaiIv7+yTdYP30IZ6QNhsX+jTlJUmz2TKRYy9KSSkan92JMUjw7eneF7f9kRdSc3J0F0xk9JfoCcjdbN0QV8Qk1e/4fB0DFA6PpuaAz3/3+Txg14iySU87n2nPSufrGv3LNt66vv9t1JOsybg7zpqSSWPl3Jn3/2mDbXLWNXdVAq6+QVDqN8cNqZ5rHT/oqramhdEPLXhBc8a3TieM4Tk3L5NTI8UFde3N5PEw7lDcr4scy57k7SW27m9DGEkrfBTiRziedyPHRsQcq+s7X/npmE+U/70OH5JH7kXg2penzC+C/u96LLgrM8/QwlzSELolQU7SRF4C9To2MijlcNfl9GPC7rsl2aEPnlE603l5G0eaInwH+XXtnK27PXwIlSWrSXv8gb+1j0LvSa8x36dU5Luqx5/lsKIOEM1MZ9p8iiooiXyX8K+jF9IebeWLWjVwx7BxSTu3Or1/cybEdBjIm5oH8L7FlK9CuC0PqJ0QlMTK5A1DGhha4/t1/XbjkZz9j9N7+qFObPvxi4ausuGMIrTc8zJjBlzG7/g5EtKbaeZLishroOpCJ9dvehVtTuwObeG1BROgBG8vgbq2oKbqXru3b0z78mrKK6rjTOfuqyHXbys6PgNZt+WZEaWMdOTPiicTxV/WlK1D5zisNhc05J5Ue7eIofiCZvkPr/k7UzS8SfJr7IbT2z7xcVkNct8t4KKuph2K0UH/eupOPgI49LomY99GPb+zxtIkYHfB5qoOjDd+740JOp4YNq+c2MfeuuZimvlsOhmaWtc/vwxi/6/bZzoXcPj+PvMW/azRXLP60r9Ea+Gjn1ohSSZKat5c7UtQ/Br3byOupaV3Dm40ee76WuxYVMvznfbj+6TUMe/FFnt2wDRJOoefRT3HpzxZB38uZfGFnEju0AqDDJZOZPGA7a/40g/yIn+FHTf8bY1qXsPbtnQC0O+08vt03AapLePUFgCQuvPFq+taNqerRFqAtvSdPZjLA5nyy566pX58rH3uSE/63APp9j4u7xbGr6AlmNjWCaj/1vXwyF3YGSKRDK6BtbyZPngzsuX0975nD/aM7wcgOvDHw5ogRWYOZtXw+FycB5S/w6D8/IvVnkwkPiNmcn83cunkr0Fw7FUzL/Scjpw/hysee5uT8f1LV41JGnB7HrlV/4faWueVRa2wGvVvDplejLsTmFPDmpAG1TwO7LzwvaS3/LH2f0Z36cd2TMzipYBvtTuvJh49eyq/rfxqOo/cvVrFw8FKKSSbjwv60qinjhT/GeBetLlHoPnohM44qYFu7ZIZf8A2OKgc6ZjBnRgX33jiXiN14GFjN/9y+lLPvu5iUm1bw6rDVvLJ6LW/vTOCUfoNoX5JJ+i8bzq8m+3Ms59famTz75kiu6n8LLyw5nb+urua084dwxjHV9WsT6/m17/NUh1T4OyfhFAamnseZ7Vuxq+hefnxbBdA9hpgGTX+3tLymlxXL92Es33WxtDOfxWtuZUjqMGauWsjTS4upPmUgF5zfi1a7Cll018HcA5KkI83eEynmUPDmJAakdAbe5In6x57Xqrj7IvoV3caD2aM4a8goMlMBaqjeuJ1vsYiC1MvIzEypj08ekUkyleStikw0vkbXU8+gX9+zOCdctHsX71Y8zwOTf0ztnzrpzsgfZpLeaJZ/R87NzORcgKLdZM9dQ8XdoxkX/xd+P64nozL7wO5dlK+5n598fxpN3uTZT6mXZRKxadD6XDIzz4U9tg82LS+hYmQHTnhnPZsaioFjOTqu7p8dzmF8Zv0eAKBod+NEqul2oGr+eMYkPsCD479N+hVn1m7783dx9Q8faOLX6f2TlnoGrSljWfjRjWFVc3l1002kdBvMWB6ov3O5eEIW337yTi7pM4raQ/Ihq1+GhjE2m8l7dCdDf/pjBrWKY/cHb5A39RpujvWpH2v/h9sX9uS3Gb0YldmHmuoQry+8jRd6PcTEDt8kddRlvH7YJVJQtfRazitbw7TfXUPaaQNIP+McoIbqHSHe3ngasHbf/Tmm86uUW8dP4uSHfs55vUeR2bua9159kN9tHMMd6eGYWM6vshjOUx1SHcPfObvZ9W4FL829lym/Wdj4uy6WGJr/bmlpTS8rtu/DfX/XxdbO4iu+S8LMPzDxO/0ZlTkIaqp5b8vz3H/LD7m7JX98kiQd8Y5KSEj4NLpQX1B1T6drV72D//y37hFf254mc/DNxHifKCZZeSFuSini3vbpxPCsuwMy+J7nyLmgXe2bL32ZE77Sim154afcSZIkSfuniTtS+kLaup7XXzmZEyPLPijng8j3nzMflL9NaemOxmXrnQchSZKkA+MdKR1yh/KOlCRJknQw7PWpfZIkSZKkpnlHSpIkSZIC8o6UJEmSJAVkIiVJkiRJAZlISZIkSVJAJlKSJEmSFJCJlCRJkiQFZCIlSZIkSQGZSEmSJElSQCZSkiRJkhTQ0Y3epeVSODudxEaFEYrupX36tOjSPdlO82ynebbTPNtpnu00z3aa11LtSJKOeI0TqZLFPJLzNq0bFUbYvCK6ZO9sp3m20zzbaZ7tNM92mmc7zWupdiRJR7yjEhISPo0ulCRJkoJM0HgAACAASURBVCQ1zTlSkiRJkhSQiZQkSZIkBWQiJUmSJEkBmUhJkiRJUkAmUpIkSZIUkImUJEmSJAVkIiVJkiRJAZlISZIkSVJAJlKSJEmSFJCJlCRJkiQFZCIlSZIkSQGZSEmSJElSQCZSkiRJkhSQiZQkSZIkBWQiJUmSJEkBmUhJkiRJUkBHN3qXlkvh7HQSGxVGKLqX9r8/1ZjoujBjjImuCzPGmOi6MGOOzJj0adGlkqQjTONEqmQxj+S8TetGhRE2r4CStcZE14UZY0x0XZgxxkTXhRlzZMZIko54RyUkJHwaXShJkiRJappzpCRJkiQpIBMpSZIkSQrIREqSJEmSAjKRkiRJkqSATKQkSZIkKSATKUmSJEkKyERKkiRJkgIykZIkSZKkgEykJEmSJCkgEylJkiRJCshESpIkSZICMpGSJEmSpIBMpCRJkiQpIBMpSZIkSQrIREqSJEmSAjKRkiRJkqSAjm70Li2XwtnpJDYqjFB0L+1/f6ox0XVhxhgTXRdmjDHRdWHGHJkx6dOiSyVJR5jGiVTJYh7JeZvWjQojbF4BJWuNia4LM8aY6LowY4yJrgsz5siMkSQd8Y5KSEj4NLpQkiRJktQ050hJkiRJUkAmUpIkSZIUkImUJEmSJAVkIiVJkiRJAZlISZIkSVJAJlKSJEmSFJCJlCRJkiQFZCIlSZIkSQGZSEmSJElSQCZSkiRJkhSQiZQkSZIkBWQiJUmSJEkBmUhJkiRJUkAmUpIkSZIUkImUJEmSJAVkIiVJkiRJAZlISZIkSVJAJlKSJEmSFJCJlCRJkiQFZCIlSZIkSQGZSEmSJElSQCZSkiRJkhSQiZQkSZIkBWQiJUmSJEkBmUhJkiRJUkAmUpIkSZIUkImUJEmSJAVkIiVJkiRJAZlISZIkSVJAJlKSJEmSFJCJlCRJkiQFZCIlSZIkSQGZSEmSJElSQCZSkiRJkhSQiZQkSZIkBWQiJUmSJEkBmUhJkiRJUkAmUpIkSZIUkImUJEmSJAVkIiVJkiRJAZlISZIkSVJAJlKSJEmSFJCJlCRJkiQFZCIlSZIkSQGZSEmSJElSQCZSkiRJkhSQiZQkSZIkBWQiJUmSJEkBmUhJkiRJUkAmUpIkSZIUkImUJEmSJAVkIiVJkiRJAZlISZIkSVJAJlKSJEmSFJCJlCRJkiQFZCIlSZIkSQGZSEmSJElSQCZSkiRJkhSQiZQkSZIkBWQiJUmSJEkBmUhJkiRJUkAmUpIkSZIUkImUJEmSJAVkIiVJkiRJAZlISZIkSVJAJlKSJEmSFJCJlCRJkiQFZCKlL4gkJswvoKRgPhOSouskSZKkYEykdBjKIi8UIhQKsX7e2NqitFwK68ryshpHx2YMGYM60KbDIDLGRNe1hIOxzpIkSTpcHR1dIB1OWp+RShrzYUwfEqMrA7mbm37bnXsGlHHHrOi6ltVy6yxJkqTDlYmUDluVq1bx0YBkLu7Xk5ruiZStWsVxAwZEh8Ws9L7xZNwXXdqyWnqdJUmSdHhyaJ8OX+8v4+WyDpw14UZ6daqkpOD9xvURQ+dCZRspKchn5rgujWOy8mrr6195RI+yy8oLESrMJeuulawrCxEKlVO6ZgmTBsZHRcZgX+tMPAMnLaFgY1nt+pSXUrwyl8jV3vf6pJFbWBuTVv+pvZVJkiTpYDGR0mHsLZaWVNJp2DC6vr+O/MKo6pLFPJKTQ05ODov++RY7Wp/JyKl/Zc7YiARoxTxy6mL+saWheA/tBnPV4P/jpQU5zFnxFh+f3JeJv59Gv+i4fWp+nbvcvpQFE/vS9oOXWZSTw5xlG/i/b6Yz9S+zGidALbY+kiRJOhgc2qfD2vIFhVSmp9NqbR6LSeXWyMqKfGZk5ze8T7qdZ1dfxcBLr4D5D9SWrZlL9praf2adncm5HRvCG4l7n+XXXcANqwGm859lm5iY3IWhwOqo0H1pep3T+NWFpxNXmcfE/uNZXlc6ZdIyNk08i5GDYflzdYUtuD6SJElqeSZSOrwtH0+f9nX/TkttVEWbodzyu0wuTO5B4gnA7k85Bmh1XJvGcTF5j3fqM5QqPq6JrAuoyXXuQ/tEgHRmh0IR5QCVHH1s5PsWXB9JkiS1OBMpfT7Fj2XOc3eS2nY3oY0llL4LcCKdTzqR46NjDzM7C6YzesqKqNLdbN0QVSRJkqTDlomUPp/OSaVHuziK709m2NSq2rIud/KPf36Tto0jDyP5bCi7iZQzUxn2n+lMK42uD+hLcdTfxEoaQpdEoDKiXpIkSQeNiZQ+n7bu5COg++iFzDiqgG3tkhl+wTc4qhzomMGcGRXce+OztLvxavq2rv1Ij7YAbek9eTKTATbnkz23bgLVIbGWuxYVMvznfbj+6TUMe/FFnt2wDRJOoefRT3HpzxZFf6AJL/DqlmrS+5/PHU/OoE8B9DvvVD6pBFqnkDnjcj64cS6HcsskSZK+aEyk9Pm09n+4fWFPfpvRi1GZfaipDvH6wtt4oddDTOzwTVJHXcbrN27l1B9mkt7or+J25NzMTM4FKNp9iBMpqLj7IvoV3caD2aM4a8goMlMBaqjeuJ1vsYiC6A/sVRX3/ez/0fuhX3B+n1H8uFuIl+4ex8sXL6dbYnsGjLqMVBMpSZKkg+qohISET6MLJUmSJElN8+9ISZIkSVJAJlKSJEmSFJCJlCRJkiQFZCIlSZIkSQGZSEmSJElSQCZSkiRJkhSQiZQkSZIkBWQiJUmSJEkBmUhJkiRJUkAmUpIkSZIUkImUJEmSJAVkIvWZiGfgpIW8UFRCSUE+M8f3IB6ALPJCIUJ5WVHxTbGd5tlO82yneS3VjiRJOhIdHV2gQyApi+wJg+hcs4sPP+7GyP/3FGlX/J0nir5KR6AyVBj9ib2znebZTvNsp3kt1Y4kSToieUfqs9A9iRPjoDi3F91P7U7aXX/nw5OHcMWlKbStqeDlBcujP7F3ttM822me7TSvpdqRJElHpKMSEhI+jS7UQZZ0ITde3Zf387OZuyZc2IbOKZ1otXUDJf+qioxumu00z3aaZzvNa6l2JEnSEclESpIkSZICcmifJEmSJAVkIiVJkiRJAZlISZIkSVJAJlKSJEmSFJCJlCRJkiQFZCIlSZIkSQGZSEmSJElSQCZSkiRJkhSQiZQkSZIkBWQiJUmSJEkBmUhJkiRJUkAmUpIkSZIUkImUJEmSJAVkIiVJkiRJAZlISZIkSVJAJlKSJEmSFJCJlCRJkiQFZCIlSZIkSQGZSEmSJElSQCZSkiRJkhSQiZQkSZIkBWQiJUmSJEkBmUhJkiRJUkAmUpIkSZIUkImUJEmSJAVkIiVJkiRJAZlISZIkSVJAJlKSJEmSFNDBSaTScikMhQiFX4W5pEXHHOa6jJtJfsFGyuq2ofzpyXwtOuhzIisvRCiUR1Z0xUG23/swlv4TS8xBkcSE+QWUFMxnQlJ03ZGuiW1vwWOxz77agss6fDWxnyVJ0mHl6OgCaMP37pxP1ohudDj+WKipZkdoHUvu+Am/eLw0OnjvShbzSM7btCaRQZeNIDm6/mAYNZ2/jTuNDbMz+Nmi6MqA0mbxl6kXk7hrCy8tepTibZDw3ir+HR13uGjJbW8pB7IPY+k/scQcFGPIGNSBNnHtyRgDD9wdXX8ka2LbD+WxOJTLamkxn6dN7GdJknRY2SORSpqymHsv78ZH7zzPokeLqT5lIKnn9ebyex7ivyVDmbwh+hN7UZHPjOx8II3cEYfoYqdLN846K4W456MrgpuQmUZSXDmLrxjADaujaw9DLbjtLeWA9mEs/SeWmIPibm76bXfuGVDGHbOi6450TWz7oTwWh3JZLS3m87SJ/SxJkg4reyRSl/frRhzFzB4ymqlVdYXxAxmaUsTKWJKoz700+nVqBZXFLAmaAKjOkb0PS+8bT8Z90aVfDF/kbT+U3M+SJB3+9pgj9fEnNUA7upwX31BY9SIrXwxnVQDxDJy0hIKNZbXzFMpLKV6Zy7guESExia2dNkNvY0nBG5SW186LKNtYQP7McXQB0nILaz97UwoAKTdFzJ9obq7FfskiL9x20cMM7zuF/HW1615e+hKzhof3WdR2lW2kYMkkBoar6+Z5PDvvYQrKQpS/8TR33LGQN8pr2/lDjJM+gm77V7OWsK4sRChUTumaJUyqXyHYY52bOBYtYx/7p0U1v6yk258lFCokNw0Y/jBFoRCrZw0G0sgtDBF68R56AmTlRezbve/frLwQocJcsu5a2fR+7jKO3JXFdX25jHUr72HSw4V7ba9ZkXOFyjZSUpDPzMiDNXIOr4dCrJ83tqFsb+X7agdi2vaYxLIsAOI4456IfVi8kty9xjWnpfpz8/0HGo77uOsWsqa0nFAoRNm6hnWO+TyNaT/Hvj7N9kO6MG5mPgUlDXMYQ6EQodce5qKIKID4y+awtrycNxZO4KCcopIkfU7tcUdqVs4yxs5KZ9h9q1n5/Ue48xf38dS/IpMo6HL7UhZcdXqj4X8XnJ/O1L/MItTvWpY3im5aLO3ED89l+az02rk2j/2Z4m3tSM64kEEjp/KnXS9x2eJHyHm7NfQYTua5HdnyjxyWrgsvYTMrIpbXnKQLb+Tqvq2BRDq0AujAJZMnMwCA7az50wzyK1YwL+dYNg+6jBHJJ/OjX6QQX7iAnA96cOmIPlz8m7uZv/RaNv10IbMn9uG4fxey6NEC6Pc9Lu47kdmLPuY76dMIzzTrekoV1096htvuPJ+Mbr8na3Zr7r46mYFj0mD5vvdiSaBt70z6996lcEEOofbn890hfZn4+2ks+9YNrCa2Y7Evse1DSIpx/7SEfS7rvV3UkEj814COJ/PVmhp2n3QG0Ib2iVC9aj1rAVbMI+fYlwDoMTyTcztGLCRSu8FcNXgzzy/I4b099nMSUx6cSvoZNWxds4hHVldz2vkXcWm/PX7P2Lf6uULQ7rRB9O93JiOn/pU2u8/mivlVsHgGz/4ilZG9MxjLfObXfWzkJb1py/usWFxXsq92IPZt35dYlgVAR/qdvZ11S3IoJpmMCweRPnUO95QM5OYY73C2RH+GGPpPOLDdYH41/j3WLn2QJ+jH9y7uW7/Od8V6nsawn4OsT9P9EPrNnMcdI9uzY8urPPO31by9s+5zn2xiS7iNOl37d+FrcXHwjW50hdrzQZIk7ZlIVS0dT9q423h0+lX0Tf0Jf3r5WkKvPsyN359K7U2pNH514enEVeYxsf/4+guSKZOWsWniWYwcDMufi2iwSbG0k0TWT4eRxJs8PPw8bg1fJWR3Yeh3jmPVUxuoYgPZ+UDW2WSe25H3X80me1pdXADdR/6QzPTEiJJkRmSGZ2BUkrdqBvkVa5ibvYatuSMYkZxCpx3j6DN+ORDPp6dvYmJyRwbQkxGj+nB8zZs8POKiunX+Ex+sWMU1Kd/lhp7TuLmu1W3rH+eJuX2YcOf58NJdPFF4OrddHfusj4r8GQG2fQfPXj+4br7SdP6zbBMTk7swFFgd07FoaKkpse3Dntyyr/3TYldqMSyruJJt9KFNR0g7NZHKDRtIOLEjSUnQCnj/3Tdqm1ozl+w1tf/MOnvvF7kAxL3P8usu2Pt+7nkLad3iqC76AxddPI0KgOxFzCx4gpFtG7Wyb/Vzheok3c6zq69i4KVXwPwHgNU8+nI5I0f2JmMszJ8PMJJLereFyjweXRxrO8S+7fsSy7KA2r7aMLdu+rgFvHLHtznnR4NhdQwdsYX6c0z9J9xX4/7L6qkDuKJuv05/83GKb+1P/x/0pOLmGM/Tfe7nIOvTTD8EhnbpAGxm2cTvc1Nh4x/Koq29+Qomll/CsU/lmERJkhRhj0QK4MOVU7i49118/Tu3cO9vxnJ234kseO4bXN3vWpbTh/aJAOnMDoWiPlnJ0cdGFTUplnYuIrlTHJS/xoJGtylKWflU5PsDt3x8H9oDtUO6ZpNOHuP6NFyE7eldXnssXFvF1GHtmQrABP56MrCtlL/Xr3MFi4vLuaZbJ067ECgMlx9K7/FO/a/5VXxcE1kXy7HYt9j24dl03Nf+abGrtRiWNbOMbUCbr/ekT/t2bH0+n53fbU9K9xpaA5WbY7rijtDMfj45geOArRvya5MoAFbzzntAh/qC2LQZyi2/y+TC5B4kngDs/pRjgFbHtakPWf3bZ3hz5FX0DmdSIy+hd1soX/xAwzGJoZ0WE/OyIvchVM0uZPMd36Z7+55ALMejZfpzTP2nvq9u4fVwcgpUPbyGTbf2p3vX8yODDlCQ9WmmHwJzn3ieHyQP4tIn3+SiHSHeLi7m74/fz4w/F/Jh41CglMenT48ulCTpC2+viVStKv711BRGP3UX4xa8wh3fHsBlw2H50tranQXTGT1lReOPsJutAR9I0Xw7O/hoN3DMcZwYFfHZ+4Sa3dFln2/NH4sjVNU2dlVDu4Tz6dyukndWbuGky3tzZvIntKOSwoOQ9P5313vRRcHEj2XOc3eS2nY3oY0llL4LcCKdTzqR4yPjKu7nH+uv5Jq64X27L+lNW8p45qG6K+xY22kJB7KstFNJJOLuYIy+kP05RhUPjKbngs589/s/YdSIs0hOOZ9rz0nn6hv/yjXfur6ZH5AkSVJY1OSMeOL3mE1cRcm7O4Av8+WvAOSzoQwSzkxl2H+KKCqKfJXQeDrVVnZ+BLRuyzcji4HY2vkHG0M1kNSfH9Y/yKF5rb6SFF10iL3Elq1Auy4MqZ/YnsTI5A5AGRsiRja1tP3f9liORUsJsn+a6z9hzcXEsqy3eH87tEscwEltt7H5uZfYsjWRM5KPIY5KNrbkFeXWnXwEdOxxScSk/X5846sNITE5J5Ue7eIofiCZvkMzyMjIIOPmF3k/Oo4Kpj1dTE3rb3HphNphfTXrl3NX+K5FzO3Eqpljsd/L6kLWTwaTyPusy488GM0sq8X6cyz9J6wjZ45seBd/VV+6ApXvvNJQWGf/z9Mg6xODDzfzxKwbuWLYOaSc2p1fv7iTYzsMZMweD7vpwiU/+xmje8T2HSxJ0hdF1B2p87jv+Rn0rd5E0SvPs2EbtDvtfIYM6QC7VvHcEwBruWtRIcN/3ofrn17DsBdf5NkN2yDhFHoe/RSXNvpLk2v5Z+n7jO7Uj+uenMFJBdtod1pPPnz0Un69PJZ2Kph29zLS6x5+8cK4FTxVvA1I4JSeR/PUpT+jfmlzV7P++hS6/eBJ8k9+mhff3gntvkpV7s1Mb6mRNX0vZ/KFnUmsfZICHS6ZzOQBDQ9RqNWwXVc+9iQn/G/dhPBucewqeoKZa4E9LlQO0AFveyzHoqXEsH8iYpvuP7HExLKs5WyshPSvJPK17RsoZC3frDyBCb2+BO++yusAJHHhjVfTt3XtEnu0BWhL78mTmQywOZ/suXWTW5qzdibPvjmSq/rfwgtLTuevq6s57fwh9P5KdOA+1CVk3UcvZMZRBWxrl8zwC77BUeVAxwzmzKjg3hvnsgaomrmUV36cQq/xv6S6bQ0bFj/YMKwwpnaepV3M297MsYhpWXPr2qlrP+EUBl5wPr1OjqMi72YmRAyda3ZZMX23xCKW/hMWR+9frGLh4KV1D8joT6uaMl74Y8RQxGbP09j6WOzr07xR0//GmNYlrK17ykS7087j230ToLqEV19oHNvznjncP7oTjOzAGwNvbrGBipIkfd5FJVJbeWNTJb17dmXIqGRSAXbv4t2Nefz6hhvJrfslt+Lui+hXdBsPZo/irCGjyEwFqKF643a+xSIKGhpk8YQsvv3knVzSZxSZfWD3rg9Z/TKwPLZ2wg+/eDB7BL37jyJzUG27u3cV86/TYFF4mE7Fbfx4UhIP/WQw3dKvoBdATTWrNsaaTMQg9TIyM2sfYQyQPCKT5PqHKDSEVdw9mnHxf+H343oyqnajKV9zPz/5fss+ka5eC2x7LMeipQTZP831n1hiYlnWlg+3Q0pXuhYtZTkw+N0PSRyQBG+GKAKgOyN/mEmj52jQkXMzMzkXoGh3bIkUpdw6fhInP/Rzzus9isze1bz36oPk7bqJyxu61b6t/R9uX9iT32b0YlRmH2qqQ7y+8DZe6PUQEzt8k9RRl/F6XSJF1X3kv/ZT+g9IolX1y+RMi+ioMbWzlVMDbHvTxyKWZc2l6qNqasLt11SzI7SevGnZ3Hjvi0TfSGp6WS3Xn2PpP7U2k/foTob+9McMahXH7g/eIG/qNY2fMtjseRpbH4t9fZrzNbqeegb9+p7FOeGi3bt4t+J5Hpj8Y+6L2tGblpdQMbIDJ7yznk2NqyRJ+kI7KiEh4dPoQkmHSjyTlm1iYnIR97ZPZ1p0tQ57WXkhbkrx+EmS9EWzH3/ARlJLie/xG1K7A2UbCDrFRZIkSZ+dZp7aJ6mljZr+N8adVvvv4086lVPaf4VWcbsoXHSXc08kSZI+R0ykpEOo4+kpnNUnDqihesd/+M+W51l816/4xeMRc5ckSZJ02HOOlCRJkiQF5BwpSZIkSQrIREqSJEmSAjKRkiRJkqSATKQkSZIkKSATKUmSJEkKyERKkiRJkgIykZIkSZKkgEykJEmSJCmgoxu9S8ulcHY6iY0KIxTdS/vfn2pMdF2YMcZE14UZY0x0XZgxR2ZM+rToUknSEaZxIlWymEdy3qZ1o8IIm1dAyVpjouvCjDEmui7MGGOi68KMOTJjJElHvKMSEhI+jS6UJEmSJDXNOVKSJEmSFJCJlCRJkiQFZCIlSZIkSQGZSEmSJElSQCZSkiRJkhSQiZQkSZIkBWQiJUmSJEkBmUhJkiRJUkAmUpIkSZIU0NHRBTEbfA/P5VxAu8iybU+TOfhmnossa8bge54j54JGLbDt6UwG3xxrC5IkSZJ06O3/HaljEzihTRu+XFVBaWlp7evtcj6IjmvGB+VvN3y2ooovt2nDCQnHRoepKWm5FIZChMKvwlzS9ifmcBc/nHtWFlG0JIsu0XWfW0lMmF9AScF8JiRF10mSJOlwt/+JVJ3tRXeSkZFR+7pyOmvryrPyIi7eG73yyKqLWTv9yobP3lnE9nCjn5FY1rlFjZrO3/72N6aPiq6IUcliHsnJISfnMYqb2nmxxMQkjdzCqP1SXkrxCwu5bWib6OCWdc4Izj3jJE7qexHXnhZd2UIO9FgENoaMQR1o02EQGWOi62J0SNY51uPehu/dmU/BxrL6mDcKlnDnJY1T3/ge45mZX8AbpeWN2po0ML5R3Nh562vrSx/nusiqrLy9nJ8Rr8/jDwWSJOlzaf+H9u3Dink5HPsSkDiIy0YkQ/FjzHu+EtjMiujgw8QhX+cu3TjrrBTino+uiFFFPjOy84E0ckeMIDm6HmKLCWJ7MY/Ne55KIOGUgVxw/iAmzF7O16/ux7XLo4NbyPI7uHdxa87f+ntu2xBd2UIO9FgEdjc3/bY79wwo445Z0XUxOpTrvI/jnjRlMfde3o2P3nmeRY8WU33KQFLP683l9zzEf0uGMnkD0CWLRY/fRMpxO9jy6jKeWP02rZKHc8HZgxj3yx8x6+KZ/BuAsWT0bs32zZup6ZxM6hVw3wN167FiHjnHvlT77z3OU2D7GkrqQiVJkg6mg5ZIrZmbzRqAtFxGjEiG8sfJzj5YV9ot4/O4zodcdTmPZ2cT3itTxs7j5elDSMucAMvDV7strZTZN1zK7Ojiz7nS+8aTcV906WFqH8f98n7diKOY2UNGM7WqLih+IENTili5ASCJKQ9eT8rxlTxz/VCu/OuHdUHZxPfoQ+fNhXVJFJCWyhmtayh96A/suGY6vQePhQfm19atmUv2mnCc56kkSfrsHPDQvi+arLza4UNZd61kXVmIUKic0jVLooYmdWHczHwKSjZSFjns6LWHuQhIyy2sfX9TCgApN0UOT4oYRhg5v6lsIyUF+cwcd3jNEqqa/zfWbodWx7UBssgLr2/RwwzvO4X8dbVDvcpLX2LW8PA+imfgpCUNw8DKNlKwZBKNR3dFtLW3fQPs0U55KcUrc4neRW2G3saSgjcoLa9tp2xjAfkzx9GFAMdiH8c0ZnsMTYvepn33sdjXOZb9vH8aH3f4+JMaoB1dzotovOpFVr5Yl1X1vIW0bnFUv/xHrq1PourC1hWyLpx8AT2HdyeRTby24P9n797joq7yx4+/ii5CGGZLEiyo4Q1tEBBMzURFNEFMAjVNY201HSq1K7ubrPnFfkWGeVnDC5t5SdMv5B1UUtfWG4KIkKhcVpSYUNZrAkZf6vfHzMAwwsxnZECs9/Px4PFgzufM+ZzPuXzmc+ZzPme2cOJsNQ7dAmS6nhBCCCFanCa7I/Wb5ujPJP+zHNgQzyXnITw30JfIT2PZ9dTrpAN+i9fxYZgz188f55tt6Zy7oXvfLwWcBy4lfUH8OQfoEYx6gBvnv41nx0l94gbTCHOT+CL+HA6AY5f+9PZ7krC5X9Omqi8T1xtced5RD9OqZn2QPayLf4Cz/ccTqmrHn9/1wi5zA/FXejA61IeR789n/Y5pFLy5kVWRPrT6byaJq9PA73lG+kayKvFnng2KpdAgLd0kLnoEqxngpt+PlvsHO9gwqWud6WRDhwQx96ulaPymkQrYBSeQujQIp/LzHN70JTlljqhChtM/bC6flx9mvMK6MFenihlMTavvmGqYaGO5CvPsoqicb5dhvcPS+F2MWxrEsCXp7H3hCz5+dwk7fzBoo0M64QoUnNyM6ZbrwtieHaBoIxtKKrh0vIAZk1SM9IPUdOO4QgghhBB3zt0/kApMIHNVEE7G4XpZC3EOijUObRyby6S+OpTX0wHi+HFXAZEqdwYD6cBgd1fgLLsiX2BGZj2XjSmLiEkBovqiHuDG5eMxxNSXxZrnm3RcPmBf+iT6jZ4I65tqGp1l7KYOQ2ULly8VABmsjcngQkIooSovOlyPwGdyKmDHr10LiFS50QdPQsN9eKj6DCtDR/BeIcDnXNlzhClez/G6Zywzs6lJSy+q6IBtEQAAIABJREFUr/GgI5C/Du+KTWkykb0n1045m7WLgshehPlD6n4Xot4chgtnWBk8SLcvIMadwc+24sjOPCrIU1QXZutUKYOpabcekwETbSxWUfvx5B1F5Xx76tY7VOyYTGDEbFbHTcI34A0+PzoNzfGVTH9hLocqgPvvxQaovF5SJ51buETSryuUJu/QLlyz4QRFk8bQ60VPSG9EhoUQQgghrOzuH0gZ3LWp19mmWCbiEt/XfDtewc/Vhttg7ZYDvKjqz+jtZxhxXcO5nBz+tfkzFn2ZSd1JTWa0Gcw7n6gZruqBU2ug6lfup3Y61R1h68qo6Gj6AI6qYIb2deOh8iwS3k8yiniRE5v0w5sK5g5zZi4AU/m6HVBWyL9qbomUkJRTzBSPDnQZDjVLP5rkg7MTQBCrNBqjbaXc9wDACFQdbKD4BBvq3H4pZO9Ow9fmWa1OFTPdxszri5tVyllHQb1f3TuHkd7zePzZd1j4/jj6+kayYf8fedlvGqk//0I10OZxT0zt2G6CN524yX/u70N0dB/AlvIb0KPnWFzIxswwTAghhBCi2dz9AynjuzYtQMmyMXhu6MhzL7xBeGgvVF5DmPZ0EC9P/5opT71Wc/fEJLtxrNn/MQFtq9Dk51J4EeAROj72CA8Zx21ODipC1bq1/6rKuZifzCevTyfhlnliv1BdZRxmfTfS4hgzx3iwXMWFPIDr3KwC7m/FI0YxLGWVOr2bKa73Cn7YOYcxO+cRseEYHz7Th/HBkPpNAcVv++CqCjM5IJr4VFdsaEXnQDWdDR+M6uTNBDuIbcTNQCGEEEIIa5LFJprK1bNsWTqdicOexqtzd/5+6AYPuPZjbD1Pzds+XM8vsj4dQA9HG3KWqfAdrPutrZmHuGwcD4AL3LgJOLTlCeNNNZTEUaA0mQhnZ5ydnXHu0BmvwZNJMFwpwKzDnL8AOLozsGZRCBfCVK5AEXmKx8Qp5BWB/ZMBDPsxi6wsw79ctI/nfEu+phpcevOnmoUuTKu3LvQsqNPmVH+erVXOOibr3Q67W4q3gtyL14EHefBhIPtLjhZVY+MxnhVRDS2YMg5/D1uqsxbSSb8vZ2ec5xyh0qYrfSfdshMhhBBCiDumye5I+U6IZnhHwMkVWwDXUbqpOmdJiVmrXWa8hbFWnsPjtjHWIZds3YoEjl0G8YyvPVTmcvygQcS16Zx6zQuPF7eT0m43h87dAMdHqUiYSdyFG9wEuo/ZyKJ70ihzVBE89I/cUwy4hbBmUQkLp+vzlM2/Cy8zpoMfr25fxGNpZTh28eTq6tH8veZWiZI4jeQ7gejhHXFytQXAdVQ00X2ukfH5IlJqbkFkMy8xk+C3fXhp03Za/69uEQQPG8qztrC44VlfRmrTeW13BsMOHWJfXhnYt8fzvp2MfisRKCF2/i6CdIsgHIzYw86cMsCe9p73sXP0WyTqkzNVF9kW1KlJLgyf/jK+unmoPdoCtMU7OppogLMpxKxV2sowk2drlbMSg1hyYBG+lQVkHTtAXhk4dhnCwIGuUH6E/VsA0vnbBzvou2QkXjP2cHxYOsfSszl3w572fv1xzlUTdCIEbwcoOL627oIUa9I4M6sPqjo/KCWEEEIIcWc12UAqYLwatXZ1Zi1VKNqZQVlUWTAoaU7WyfMf6NS5G36+vXhaH1RVzsWSAyyLfoUlhleIJbN5ZZYLK97wxyNoIj0Bqis5kj+TuMV/44ONnnwU0pNwtQ/VlRq+2zibgz1XEOn6BAHh4/muZiAFSVOjeGb7x4zyCUftA1XlV0k/CoZzzpTEaZSA8agNClAVqkZFKclHDAdSUDJ/DBF2X/FphCfh2oxQnPEZb7xg2UpyJfNH4Jc1m+Ux4fQaGI46AKCayvxrPEUiadQugrA8JhTv3uGo+2vfW1Weww9dIFH/A7+m6iLbgjo1qTthf1ITVGdlFDcGqNUMAMiqsmwgZTLP1itn8y5wuqAUb89ODAxXEQA10//+/vp0EnTlU7FjGoOKMoj9ZAqBXfoQ1O1poJrK6xrO5XchMKAbDhSxa4PRxL+KtRwvmIGXhz/jWIbuF6WEEEIIIe6oe+zt7X81DlREt1qeY+V1fvzpF21Y2W7U/jPZXzdmg/wX7Cd+qKP2xb0P0vphW8qS9Su9CaHnyYJDOxljt4spXpPYYbxZCCGEEEKIZnb7d6QunOK7Y+3qPsR/pZgrhq/NuFJ8jsLC63XDTl2o81oIu+A3GNABqrNOs894oxBCCCGEEHfA7d+REqIJ+U6I5qVhveno8jjdOztjSwlbX/ZjmtysFEIIIYQQLYAMpESLFJWsYYaqkus//sil73azcM77bLRodUAhhBBCCCGajgykhBBCCCGEEMJC8jtSQgghhBBCCGEhGUgJIYQQQgghhIVkIPVbF5hApkaDRv+XmUDg7cT5nYlK1qDRJBNlvOH3zi6YBXuzyNoahbvxtruWC1PXp5Gbtp6pLsbbRHOwSn9Tch5TEkfcdSxrP7+z/i5tXogmJQMpC2lP2PX9KT2JWyg8jm3bthEXbrxBodwkvoiPJz5+EznXjDfqKInT4gSSkKlBk2xU6lHJaDQajIObTWPrq6V7OpQB3R7jMd8RTOtivNFKmr0MxxLS35U2rv0JGWu8TaFmybOuzRued4oLyTm4kdmD2xhHbkHa8PzHKaTlF9Xk+XTaVj4eZeWhuJLzmJI4FrDrMZnFKWmcLiyuUx+z+tkZR727WLE9j1t3Sls2hZt5tUUUixX6e2PpPqca/LPmYMfKbV4IUdft/47U79SedfE8cBhw6s/4UBXkbGLdgVLgLHuMI1uDuwe9enlhc8B4g0IlKSyKSQECSQgNRWW8HZTFEco0tr5autQPWZjkwJALnzI7z3ijlTR7Gc5nxkfdWdCniA+XGm9TqDnzfC2HTesOUArYt+/H0CH9mboqlcdb6M8DuMxJYuEED25+f4DE1TlUtu9HwCBvJixYwU+5g4m2VjtSch5TEkcp9ygSN8/Aq9V1zh/fxZb0c9iqghnatz8Rf/kzS0cu5r/G77lbWK09jyPE24FrZ89S3VFFwERYssw4TnOzQn9vrD3riH/gsPb/W64lgGsZ5NbGbhxrtnkhxC1kIGWhjLUxZAAEJhAaqoLizcTEtMCrFyGaRCGrXh/NKuPgu1zhksmELDEObaEqi9kcE4P+rDNn3DqOxg0kUD0VUu/4VeotJvh5YEMOqwaOYa7+Fwzs+jHYK4u91hpENTsX5ix/Da+HSvnmtcG89PVVXXgMdj186Hg28+4dRFlTYADdHKopXPEPrk+Jw9t/HCxbbxyr2d3x/p6xlpgM3f9yLSHEXU2m9jWBqGTtrfmoeXs5WaRBoymmMGOr0XQPdyIWp5CWm0+R4S39EysZAQQmZGpfz/ACwGuG4a1/g2mEhvOfi/LJTUthcYSVp8xYxI5+s7bWTuMpyidt6yxqDz2KZH1+s1YS7DuHlJPauMWFh1kabN25H/q6iHh1Ixm66TdFJ/eSYFhG7hEk7M2hsFiDpriQjI2v8mjtVi0z5ay4vozLp7iQnL0JWFpl5o9LaTmbqy+jtOo9JrglnQaOq83g2WxNO60ta42Govw0UhZH4I4lZWi67yh2y/Qa42My35eV51lJOd+eivXbyL4Gtq300/tM78vlg31oNJkkBALBK8nSaEhf6k/N1MFDC/CsL51b6lRZG/v5l2rAEfdBBgdbcYi9h279XbhHo7bWW85a5vLTjDzfIdDDhsqj/2RazSBKq+JkJrU/eWe6LvTnlX3rVpJWpKH49G4+/HAjp4u1ZfgP3fwu8/29Ni39fozPUXrW6YPKeAZ3x4kCTmzYwomz1Th0CzCYsqas/YDpPBsy2X7M9fewNXyn0XBq3TjD0HrCm7Mdmmk/iuMIIZqK3JFqKo7+TPI/y4EN8VxyHsJzA32J/DSWXU+9Tjrgt3gdH4Y5c/38cb7Zls65G7r3/VLAeeBS0hfEn3OAHsGoB7hx/tt4dpzUJ24wjTA3iS/iz+EAOHbpT2+/Jwmb+zVtqvoycf2tFypNzeXNjayK9KHVfzNJXJ0Gfs8z0jeSVYk/82xQLIXsYV38A5ztP55QVTv+/K4XdpkbiL/Sg9GhPox8fz7rd0xjv3HCjeHoz18nXyJ7x3K24MfzI30JmruGBbn9mJnuwpzlcwnqVs2FjES+SK+ky5CXCHrMKA0z5ZyrsL7cP9jBhkld60xzGjokiLlfLUXjN63mLoMiJo9LWTkXmK0vQFdnuoko9AhWM8CtNhug7LjsghNIXRqEU/l5Dm/6kpwyR1Qhw+kfNpfPyw8zXmEZmus7ihlMr6nvmGqY6MtK6918v2iMh2n1QO0rs/u6VE41Ttj9AXBrx6PV1VQ91g1og7MTVB45RTZK6lRZG1sav4txS4MYtiSdvS98wcfvLmHnD/WdmzoS9PxFMjfEo6nnnGk+P81oSCdcgYKTm6nvSPTM1oUuXqf2Fbw26xtmfzyEEI9PiVrlwPyXVfQbGwipuiMz2d8xe44C6/VBZVwY27MDFG1kQ0kFl44XMGOSipF+kJoO+vOKufaTbibP/n/R39Y03X7M9vekRex7N4Aw7xDGsR79fbOwUd605TJ7krQhzdkOlbQfJXGEEE1HBlJNxeYyqa8O5fV0gDh+3FVApMqdwUA6MNjdFTjLrsgXmJFZz0dxyiJiUoCovqgHuHH5eAwxscaRMJj/rOPyAfvSJ9Fv9ERY39zTfDx5J9yHh6rPsDJ0BO8VAnzOlT1HmOL1HK97xjIzO4O1MRlcSAglVOVFh+sR+ExOBez4tWsBkSo3+oB1B1I2P5E+tw8Tk7Qv485sJue93vR+0RN+eln7zXLWPxgxMpYSgBg/FqdtIczBIA0z5VyiqL4C+evwrtiUJhPZe3Lt1KxZuyiI7EWYP6RacuCmjitdSTl7Emq2vgC0aelF9TW+CFFyXC5EvTkMF86wMniQbl9AjDuDn23FkZ15VJCnoAwV9B2lDKbX3HpMBkz05VhF9a6kXxi/Rzm7qcNQ2cLlSwUo2ldOKWX40MYNAjs7UZqXh/0jbri4gC1w+eJplNWpkjYG+3dMJjBiNqvjJuEb8AafH52G5vhKpr8wl7o3pa6z7zX/ess5XVF+alNqcvffiw1Qeb3EeIsBBXWhi1l2ajNb1vow9eMhcHgeWzK7Mvtlo6dZTPb3bLPnKLBSHwxMIHNVEE5GwTWyFuIcFAsukfTrCqXJO8gG2HCCoklj6KXPr+68Yrr9uDDYTJ5rmWo/KOjv6aw+WkxYmDch42D9eoAwRnm3hdJkVieBsn5Rk2AjKWg/2Uri1E1VCGFdMpBqMpf4Pl3/fwU/Vxtug7VbDvCiqj+jt59hxHUN53Jy+Nfmz1j0ZSZ1J4qY0WYw73yiZriqB06tgapfuR/DaT7NqS9u7YCyQv6l/8CjhKScYqZ4dKDLcNB+oupd5MQm/UdRBXOHOTPXcLPVnOc73cUHQMXKDAre6033TkOgnT2tgAt5KdpBFADpfH8JcK0JsFI5++DsBBDEKo3GaFsp9xncVVDGxHHVKeiGynkqX1tUXw1RclwjUHWwgeITbKjZF0Ahe3cavjbPan1HMdN92TxL+4UZtq6Mio6mD+CoCmZoXzceKs8i4f0kYKr5fS0uogxo87gnPs6OXDiQwo3nnPHqXo0DUHp2PxCloE4NNdTGtK7uncNI73k8/uw7LHx/HH19I9mw/4+8XOcbfFPlrKSNNaOff6EabRk2XHkK6j2zNrZ5Zvq72XOUlfqgwZ2vep3dA4DdBG86cZP/3N+H6Og+gC3lN6BHz7G4kG1wvoWG289UvlacZ1PtR5n0j77hTNgkvPUjqbBReLeF4qRlunbanO1QQfvJVhJHHy6EaAoykLpDSpaNwXNDR5574Q3CQ3uh8hrCtKeDeHn610x56jVl0wPsxrFm/8cEtK1Ck59L4UWAR+j42CM8ZBy3RfqF6irjsDvjp/JLxkG1rFzON9LiGDNHe7FRq4oLTfbgffOUs+njus7NKuD+VjxiFMNSVuk7dzMHFaFq3d2KqnIu5ifzyevTSahzoWlCRRnlleBoP4SOjqV8v/c8j03w5knVLzhSSqbBxb3pOjWkpI1V8MPOOYzZOY+IDcf48Jk+jA+G1B3G8RqmPD9N7JsCit/2wVUVVs+g4A5QdI6yUh80vvPVgIlPdcWGVnQOVNPZcC3vTt5MsIPYOncjG2o/VsqzUiWf8e2pl5iim95XNcqbthTxzYqaERrQgtqhEOKOk8Um7qSrZ9mydDoThz2NV+fu/P3QDR5w7cfYen5AwvZhF+MgeDqAHo425CxT4Ts4hJCQEEJmHuKycTwALnDjJuDQlieMN9VQEseUw5y/ADi6M7DmwVsXwlSuQBF55j97LVDF/1UDHX2IMHioNuxJN6CE80dqw8CNJ8NqX9lN8qUTUPr9Mbhwg5uAW49R1Cbjxx8NV5uwqJy16q0vUsgrAvsnAxj2YxZZWYZ/udT72IhJJo5LEWvVl5Lj+pZ8TTW49OZPChcUqb8MdSzoO82p/jxbq5x1SpOJcHbG2dkZ5w6d8Ro8mYSa1Q2U7Os/XL4Gjk59eKxtGWf3H+b8BSe6qe7HhlLyU0FZnSphh90t1V1B7sXrwIM8+LDxtoZYkh8l5zElcUzI/pKjRdXYeIxnRVRDqwwoqQtLmOjvis5RVu6DJo3D38OW6qyFdNK3VWdnnOccodKmK30nKdv/7eS5cUqI3Z1DtcNTjJ6qndZXfSqVeTV3dSxph42lpP0oiaPXyDYvhKiX3JGykO+EaIZ3BJxcsQVwHaWbtnCWlJi12qXRFQiP28ZYh1yydU/KO3YZxDO+9lCZy/GDBhHXpnPqNS88XtxOSrvdHDp3AxwfpSJhJnG6QUD3MRtZdE8aZY4qgof+kXuKAbcQ1iwqYeF0fZ6y+XfhZcZ08OPV7Yt4LK0Mxy6eXF09mr/XfIWvJI4p2cxLzCT4bR9e2rSd1v+bpn3w1cOG8qwtLM4GfCcQPbwjTq62ALiOiia6zzUyPl9EikVf6+7nnweLCB7zDLP+tZFe23Ko7DKE5wa2pbpoI/+sM0/dBu93j7DRfwc5qAgZ3hvb6iIO/nM/ZH/PvjNhTOr9Dge3duXr9Eq6DBlIt/sra99uSTmbqq/s2vJ5bXcGww4dYl9eGdi3x/O+nYx+K7F2n4qYOC5F5aygvhRRclwlxM7fRZBu0YGDEXvYmVMG2NPe8z52jn6LmqM3WYYW9B2TXBg+/WV8dfOTerQFaIt3dDTRAGdTiFmrtDdjJs/WKmcllOwrlfxSCHrYiT9cyyOTbJ4obc3UnvfCxeN8Z5ROg3WqqI0NYsmBRfhWFpB17AB5ZeDYZQgDB7pC+RH2b9HHM0dBfgzimj+PKYljSjp/+2AHfZeMxGvGHo4PS+dYejbnbtjT3q8/zrlqgv6ioC4sGvib6O8/hSo6R1mrD5o1LgRvByg4vrbuYhxr0jgzqw+qgImQVq6g/Vhw3jBJeX+vWLyDY6940XPyX6hsW01e0nKDO46WtMPGUtB+FMWpTa9xbV4IUR8ZSFkoYLwatXZlWC1VKNpZNllUKR5I/YFOnbvh59uLp/VBVeVcLDnAsuhXWGL4yVMym1dmubDiDX88gibSE6C6kiP5M4lb/Dc+2OjJRyE9CVf7UF2p4buNsznYcwWRrk8QED6e72oGUpA0NYpntn/MKJ9w1D5QVX6V9KNgOBdKSRxTSuaPIcLuKz6N8CRcmwDFGZ/xxgu61YMCxqM2KEBVqBoVpSQfsXQgBekzJzLLfgVvD+pLuLp/zTSnD6fM1D5cXOMsyatvMPjNV+hva0PVldMkz52iXemKQt6bPIt2K95mkHc4au9KLh1fzif5Y/kwSPf2bAvK2VR9ZUPJ/BH4Zc1meUw4vQaGow4AqKYy/xpPkUiabpfKmDiuKGXlbLa+FFJyXBW6RQeWx4Ti3TscdX/te6vKc/ihCyTqp8WYLEML+o5J3Qn7k5ogJ8MwNwao1QwAyKqybCBlMs/WK2cllOzr/NVr4NWJTlk7SAX8L17FqY8LnNGQVZOOmTpV1JcvcLqgFG/PTgwMVxEANf30769PJ0FxfSnIj0FcJecxJXFMqdgxjUFFGcR+MoXALn0I6vY0UE3ldQ3n8rsA2YrqQjkT/R2F5yir9EFdHBMCA7rhQBG7Nhid1CvWcrxgBl4e/owLaKOg/Vhw3jDJgv5esYSUE2/Su48LtpVHiY+tewyWtMPGUtJ+lMTRa2ybF0Lc6h57e/tfjQOF+K2IStYwwyuLhc5BxBpvvIvduePyZMGhnYyx28UUr0lY8HiLEOI23bn+LoQQwhR5RkoIoZhd8BsM6ADVmtPsM94ohBBCCPE7IlP7hBAm+U6I5qVhveno8jjdOztjW13C1k9jTf4QqRBCCCHEb50MpIQQJgWMVxOuquT6jz9SengtC+e8z8aTxrGEEEIIIX5f5BkpIYQQQgghhLCQPCMlhBBCCCGEEBaSgZQQQgghhBBCWEgGUkIIIYQQQghhIRlICSGEEEIIIYSFZCAlhBBCCCGEEBaSgZQQQgghhBBCWEgGUkIIIYQQQghhIRlICSGEEEIIIYSFZCAlhBBCCCGEEBaSgZQQQgghhBBCWEgGUkIIIYQQQghhIRlICSGEEEIIIYSFZCAlhBBCCCGEEBaSgZQQQgghhBBCWEgGUkIIIYQQQghhIRlICSGEEEIIIYSFZCAlhBBCCCGEEBaSgZQQQgghhBBCWEgGUkIIIYQQQghhIRlICSGEEEIIIYSF7jMOUMx/Afvjh+JoGFa2G7X/TPYbhpngv2A/8UPrpEDZbjX+M5WmIIQQQgghhBDN7/YHUg/Y07pNGx7UnCT3h5vasCvFXKkby6QrxecoLLyufdHqcbr3cKa1/QN1I/0OuEcs5h+Rz+Lh+hAPANXfxeM9NIb/GkcUQgghhBBCtAi3P5DSuZb1MSGTU41CA0nIXEWQk0FQdSWXzh8jMfoV5uy9CkB23EuExOm2ByaQucq5Nn6zU5ZnqwtcyldzR+JUfp7DiavJKQP7S0dkECWEEEIIIUQL1uiBlEnXcti07gClgH37fgwd0p+pq1J5/GU/phmPvVqKZs7zVHUgLjbFJE3sw+vpxluFEEIIIYQQLVHTDqQqi9kcE4N+/DFn3DqOxg0kUD0VUpfVidpiNGueA/HrYAulOWyVQZQQQgghhBB3jWZdta9i/Tayr4FtqzbGm1qsunmOIlmjQaPRoMlaSbDvHFJOFqHRaCguPMzSYDvdu+zoN2srafnabZriQnL2JhDhbpiyEubSsV5+opI1aDITiJq3l5NFGjSaYgoztjKrnz4NrTaDZ7M17TSFxdr9FuWnkbI4gtqkzO8L3IlYnEJabj5F+vxrNGhOrGSEYTQhhBBCCCFaqKa9I3WLh2l1160lYZjnPayLf4Cz/ccTqmrHn9/1wi5zA/FXejA61IeR789n/Y5pfP/BDjZM6srN7w+QuDqHyvb9GDokiLlfLUXjN43c4dN52dcBcMLVFsCVUdHR9AHgGhmfLyKlBNzNpJNqpfzUzFh09GeS/1kObIjnkvMQnhvoS+Snsex66nXSAbvgBFKXBmmf59r0JTlljqhChtM/bC6flx/G/y95CvIMfovX8WGYM9fPH+ebbemcu6Hb/y8FnNfnRQghhBBCiBasWQdSdlOHobKFy5cKjDfdvsAEMlcFYbhGRB1ZC3EOijUOVaxunjNYG5PBhYRQQlVedLgegc/kVMCOX7sWEKlyow+BdB7eFZvSZCJ7T66dIjhrFwWRvQjzB8L+hLrOqhYqQtUq3f+lJB9ZREpJIH81k07qfuvkJ1W/2rzNZVJfHap7ViuOH3cVEKlyZzCQjgtRbw7DhTOsDB7Ee4W698S4M/jZVhzZmQcoyTMMdncFzrIr8gVmZFboYgkhhBBCCHH3aNqBlG3tnRZHVTBD+7rxUHkWCe8nGce8fblJfBF/DgfjcL2ze4xDTFOc54uc2KQfKlQwd5gzcwGIItkJIIhVGo0+sk4p9z0AqZN90K5PqFspkGQifGoHHlo+OJtJp67bz0+tS3xf86xWBT9XG24bgaqDDRSfYIN+EAVAIXt36v9Xlue1Ww7woqo/o7efYcR1DedycvjX5s9Y9GUmTbQ2ohBCCCGEEFbVtAMpB4M7LVXlXMxP5pPXp5NQ50K8kUpSWBSTYhx6+xTn+Reqq4zDat1Ii2PMHONBXBUX8oyCzFCeTlPn5zo3q4D7W/GI8SYj5vZVsmwMnhs68twLbxAe2guV1xCmPR3Ey9O/ZspTrxkNKIUQQgghhGh5mnYgVVrfnZYWrtF5TiGvaAZeTwYw7Mc4Ym8ZgCnV0tL5lnxNNQM9evOnYDv276hvSp4F+7p6li1Lp7NlKYAdkxOz+J9+/RgbCKm3X/hCCCGEEEI0i6YdSP3W+E4genhHnLQrROA6KproPrWLQ2hlMy8xk+C3fXhtdwbDDh1iX14Z2LfH876djH4rsSY50xSk06z5KSF2/i6ClgYxbEk6ByP2sDOnDLCnved97Bz9FokK9xUet42xDrlk61aZcOwyiGd87aEyl+MHDXYphBBCCCFECyUDKUsEjEet9qp5qQpVo6pZHKI2Wsn8EfhlzWZ5TDi9BoajDgCopjL/Gk+RSFptVJPMptPM+anYMZnAiNksjwnFu3c46v7a8KryHH7oAol5Svb1Bzp17oafby+e1idcVc7FkgMsi36FJfXd6BJCCCGEEKKFucfe3v5X40BFdKvlOVZe58efftGGle1G7T8T/SJw5vgv2E/8UEfti3sfpPXDtpQl61eeE0IIIYQQQoiW6fbvSF04xXfH2tVdeOBKMVcMX5txpfgchYXX64adulDntRBCCCGEEEK0NLd/R0oIIYQQQgghfqfuNQ4QQgghhBBCCGGaDKSEEEIIIYQQwkIykBJCCCGEEEIIC8nIkJZwAAAgAElEQVRASgghhBBCCCEsJAOpu4R7xGJS0vIp0mjQaDQU747mD3ViuDB1fRq5aeuZ6lJnw10pKlmDRpNMlPEGYVVWKefABDJ17VKj0aDJTCDwduKIu45l7ee3dY4y665s84EkZLbUvDau/UhbbRqWlevtuDN10fTHZS13pnxELRlI3Qa7HpNZnJLG6cJi7QdkcSE5Bzcyq5+dcVTrCFzKV3PDeNLhEkcT44mPj2fd5iP8t06ksYT0d6WNa39CxtbZIBpNd3FheFGkq/PZg9sYR25B2vD8xymk5RfV5Pl02lY+HuVuHLFxcpP4Ij6e+PhN5Fwz3qijJI4Fmr0PNpfwOLZt20ZcuPEGy41bd0pbNoWbebVFFEsLOEdFJdftx8Z/1hxAWLnNCzPtx4p9x+y+RDOSujDtd1o+Vu3vjXP7vyP1e+UeReLmGXi1us7547vYkn4OW1UwQ/v2J+Ivf2bpyMVGA5zGm6oOxMWmmKSJfXg93Xir3nxmfNSdBX2K+HCp8TZhFddy2LTuAKWAfft+DB3Sn6mrUnn8ZT+mtcDfkHaZk8TCCR7c/P4AiatzqGzfj4BB3kxYsIKfcgcTnWf8jttUksKimBQgkITQUFTG20FZHKXuQB9sNu4e9Orlhc0B4w2WGkeItwPXzp6luqOKgImwZJlxnObWAs5Re9YR/8Bh7f9O/RkfqoKcTaw7UKoNu5ZBbm3sxrFmmxeYbT9W6ztgdl+iGUldmPY7LR+r9vfGkYGURVyYs/w1vB4q5ZvXBvPS11d14THY9fCh49nMJriAC8Svgy2U5rC1wUGUVuGSyYQsMQ4VVlNZzOaYGPRjpjnj1nE0biCB6qmQesevUm8xwc8DG3JYNXAMcyt0gXb9GOyVxV5rDaKa3Z3og3ehwAC6OVRTuOIfXJ8Sh7f/OFi23jhWs7vj56iMtcRk6P4PTCA0VAXFm4mJaYHfhIhbNGf7ac59CdOkLkyT8rmzZGqfJTzfIdDDhsqj/2RazQWcVsXJTE7qL1axo9+srbVTqorySds6C8NZR1HJ2mkkUfP2crJIg0ZTTGHGVsunJt0yVaWeOb3uESTszaGwWINGU8TJvQuYtTLTIG598+KNw6JI1u8jayXBvnNIOak9vuLCwywN1ufb6NiLC8nZm0DEbc4mezRqq4nyMV3OLh/sQ6PJJCEQCF5JlkZD+lJ/ao7t0AI8DVKzVMX6bWRfA9tW+ul91sqPuTJUVhc//1INOOI+yKDMKg6x91BNQ61hUTnfkp9mZK0+qHt+Zd+6laQVaSg+vZsPP9zI6WJtGf5D1xH0/TTi1Y1k6KYRFp3cS4LhwRs+C1OUT25aCovrKZw2g2ezNe20rh9qKMpPI2VxBO5AYEKm9v0zvADwmqFLT6Oh3j5thmdwd5wo4MSGLZw4W41DtwCDvq2s/YDpPBsy2X7MnaPC1vCdRsOpdeMMQ+sJb852aKb9KI7TeLd93rglP8rr3ZjngkNoNMVsf1Mf4k7E4hTScmuf29VoNGhOrGSE4RtNUHxcZtqPpX2nUW0V63x2u8zZQ7GmmD1zjB5q0Z1LGmzzt9Sp8ed0fWG3X++3MLyWKC4kY+OrPGocxzjP9fZTBe3HbF0oPS4F+VF0XEqY35fZ9nPLeU/HOLypyueWNqYgzwo/T2/Z122Uj6X9vTnIQMoSQzrhCpw/uZlbL0Vruby5kVWRvjhXfkdifDyJ2Tdo5xvJqsSouhcgjv5M8v8/Dm+IZ82e//BzO18iP43FD3AZPp3o6Giio0fhagvYujIqOloXNp3h+vPvnnXEx2ufm/r2vEHaNVyYs3wuQd1ac/14IvHxG8i0CWS0n61xRDP2sC4+nk051+Cxdvz53ZHYZW4gPjGTKw+0Z+T78/EH3D/YwYZIX9peOUpifDxrduXxf08EMferpQYneqU6EvS8A5n1lA+YL+eSS+VUY4vdH4An2/FodTVtH+sG+ODsBJWlp8iu3dlteJhWD9S+slZ+zJehsrpYGr+Lkmonhi1JZ++ad3j28YY+ME2Xs/n8NCMr98FO7Sv4f7O+oezhJwnxSCdqVQ5Vtu3pN9bgyBz9+etkN/6zYznxiRlceagbQXPXsEBfQDXPwsST+O//cN3hScLmfs2acbXlbRecQOqqqXg7XOXYpnji4xM5eqUtPcPm8vlHXchN+kLbj3Wd+Py32vS0f+vYU5OSEi6M7dkBik6woaSCtccLwEnFSH1+FbYfc3muZbr9mD1HJS1iXzE4eIdgeOkQNsqbtlwmI0l7J60526GS9qMkjjUoPW+Yz4+yer+VHcO7uAIFnNigDfFbvI4Pw57E4fopvllj0FY37qa+Kq6P0uMy134s6zuNbKt6Jj67lSiJ/ZpjlTZ4BL5T58s87Rcg1zi+TdvmzdepErdb78aMriWWJ3Kq3UsEdawbS0k/VdR+zNaFsuMynx9lx6WE+X3pmGo/Cs+H1iofxW3MVJ51zH2eWqN8LOvvzUOm9lni/nuxASqvlxhvMeDJO+E+PFR9hpWhI3ivEOBzruw5whSv53jdM5aZ+qt3m8ukvjpU99xTHD/uKiBS5c5gIDPsT6iDnPSJAipC1fpZ9qUkH1lESgl1pqpE9VUzwE0fX0f/DX7WPxgxMpYSgJhEFqdtIaytUVyTMlgbk8GFhFBCVV50uB6Bz+RUwI5fuxYQqXKjD4F0Ht4Vm9JkIntPrp0CN2sXBZG9CPOH1P2GaZpznX2v+ddbPulKyjmnlDJ8aOMGgZ2dKM3Lw/4RN1xcwBa4fPG04c4sZjd1GCpbuHypAEX1rig/gfzVbBkqqQvYv2MygRGzWR03Cd+AN/j86DQ0x1cy/YW51L0pZaqcleSnNqUmZ60+qItZdmozW9b6MPXjIXB4HlsyuzL7ZaOnWWx+In1uHyYmaV/GndlMznu96f2iJ6RnGzwLo+PyAfvSJ9Fv9ERYvwxwIerNYbhwhpXBg3T5AWLcGfxsK47szKOCPGJSgKi+qAe4cfl4DDGxtUkC2m/9VgVheFaoI2shzkGx4BJJv65QmrxDeyG64QRFk8bQS59fRX3ZhcFm8lzLVPvB/DmKdFYfLSYszJuQcbB+PUAYo7zbQmkyq5NAWb+oSbCRFLSfbCVx6qZ62xSdN5TkR0m938oueBHhKhuqT33LZ7puN9jdFTjLrsgXmJFp6isNExQdF2bbT0nKIvN9p0Zj26qOic9uMzPwtSqWsOaQmt4BfZnihy4d3RcglUfYvx6U1alBmg1SVu9mu0+91xJ+2msJB30kZf1UUfsxWxdKjkvBNckVJcelhLJjB8y0HyXnQ6xUPp6EKm1jJvOsZfrz1DrlE2tRf28eMpCyxM+/UA20edwTGryX0Re3dkBZIf/SX3xQQlJOMVM8OtBlOAZvvcT3NWfdCn6u1v8PqZN9cAa0t+lXEUQyET61jU+xdva0Ai7kpWhPEACk8/0lwLUmwEIXObFJn5MK5g5zZi4AUSQ7AQSxSqPRR9Yp5T6DuzfKNFw+isp5cRFlaOvLx9mRCwdSuPGcM17dq3EASs+a/eioS3dXsA/gqApmaF83HirPIuH9JGCqlfIThbNFZdhQXWhd3TuHkd7zePzZd1j4/jj6+kayYf8fedlvmkFbMlXO2m+HleeniVmrD2bWxjbvPN/pP7yAipUZFLzXm+6dhgDZ0GYw73yiZriqB06tgapfuR/DKZ8jUHWwgeITbKjJD0Ahe3cavjYjN4kv4s/R4Gf72T0A2E3wphM3+c/9fYiO7gPYUn4DevQciwvZBucBaLj9TOVrxXk21X6USf/oG86ETcJbf+UQNgrvtlCctEzXTpuzHSpoP9lK4ujDG+mgkvOGgvNPnfw0VO+BJEDNuS6kyyCeeaYb7Shh60eza9rO2i0HeFHVn9HbzzDiuoZzOTn8a/NnLPoyk7oTbk1QdFzW1vi2qtX4dJIW7ePdgDAGTQ+DiUlgNwHvTlCZvgvtE7dN0cYaqncFFF1LKOunVmk/dTR0XAquSRQdlxLKjl3LdPsxfz60VEPlM5WvFbcx03k2z3rl09LIQMoS3xRQ/LYPrqqwei5IWrafyi8ZBzXCL1RXGYfVupEWx5g52ou6WlVcaO4FDirKKK8ER/shdHQs5fu953lsgjdPqn7BkVIyLbqYBhwM7gpWlXMxP5lPXp9OQp0LTRMsyI/yMjRdF1oV/LBzDmN2ziNiwzE+fKYP44MhdYdxvIYpz08Ta2l90G4ca/Z/TEDbKjT5uRReBHiEjo89wkM1ka5zswq4vxWP1ITdBuM7Xw2Y+FRXbGhF50A1nQ3nS3TyZoIdxNb5Arih9mOlPCtV8hnfnnqJKd4hjGM9VaO8aUsR36yo+TQFWlA7bE4WnDeUa6jedfTnuupqqm2gMmcL8wyu4EqWjcFzQ0eee+ENwkN7ofIawrSng3h5+tdMeeo1ZRd7TXJcd5H0j9h5ahRT+k3kVbsklkx8iq42leTsWWMc04rM1LsCSq4lzPVTq7SfOkwfl8n8PK19peS4lDC5L6UUng+VM10+zckq5dPC3GscIEzI/pKjRdXYeIxnRVRDM5QPc/4C4OjOwJooLoSpXIEi8sxfB1nXhRvcBNx6jKL2iQ0//ljfk5T32lDzpYDLQNydDDcqkUJeEdg/GcCwH7PIyjL8y+WHBu7g3x4l5fwfLl8DR6c+PNa2jLP7D3P+ghPdVPdjQyn5lp6tS5OJcHbG2dkZ5w6d8Ro8mYSa1Q2slR9rlaEddrc8ElVB7sXrwIM8+LDxtoZYkp8L3LgJOLTlCcPgOpTEMeGO9EE3ngyrfWU3yZdOQOn3x+DpAHo42pCzTIXv4BBCQkIImXmIy7XRgW/J11SDS2/+pPDBbtuHXYyDFBqHv4ct1VkL6aRvq87OOM85QqVNV/pOUrb/28lz45QQuzuHaoenGD1VO42l+lQq82q+DbWkHTaWkvajJI5eI9u8ovOGJflRQH+ucx3IspxKbFURLHzTqE1ePcuWpdOZOOxpvDp35++HbvCAaz8MHy80TclxWe72+05zKyH262NU2vbi+SgXxvl7YFuZQ+pKSz5TdBr92a2AomsJC/ppo9uPEgryo+i4lFCwL8XMnQ+txYI21mjWLJ9a5vu7O6PeeosxPZruc0zuSFkknb99sIO+S0biNWMPx4elcyw9m3M37Gnv1x/nXDVBf8lmXmImwW/78NKm7bT+3zTwe56RHjaUZ21hsVU7ggvDp7+Mr26uT4+2AG3xjo4mGuBsCjFrF7PvTBiTer/Dwa1d+Tq9ki5DBuJd50L6IMfPVxLUewgfbl+ETxr4DerML6WAgxfqRRO4shqGD++Ik6stAK6joonuc42Mz3XPagFQe+yv7c5g2KFD7MsrA/v2eN63k9FvJeojWoGSck4lvxSCHnbiD9fyyCSbJ0pbM7XnvXDxON8ZJ9ko1sqPgjL0nUC02boYxJIDi/CtLCDr2AHyysCxyxAGDnSF8iPs36KPZ46C/BjE/XfhZcZ08OPV7Yt4LK0Mxy6eXF09mr/XXBQpiWOKlfqgRR/WNni/e4SN/jvIQUXI8N7YVhdx8J/74adQbgLdx2xk0T1plDmqCB76R+4pBtxCWLOohIXT1xI7fxdBS4MYtiSdgxF72JlTBtjT3vM+do5+i5pSXJvOqde88HhxOyntdnPo3A1wfJSKhJnEKTl3jAvB2wEKjq+lzufSmjTOzOqDKmAipJUraD8lyvNskpJzlHaif8XiHRx7xYuek/9CZdtq8pKWG9xxtKQdNpaC9qMoTm16jWvzlp03GsyPovOGsULmRn5FwL8m4aNezNSlz7OsAsLjtjHWIZfsczcAcOwyiGd87aEyl+MHjZJokJLjUt5+Gt13LNmXlVQsWcMhdW8GDljCeCcHqs8cpmYcpaROrfbZrUB2/dcS3e6vNIykqJ+abz8K6uJ0NwXtWUF+FB2XEgr2ZQHT50Prl0/DbcxarFs+Svu754I1fDamA4S5crrfTKx6SDoykLJQxY5pDCrKIPaTKQR26UNQt6eBaiqvaziX3wXIpmT+GCLsvuLTCE/C1T5QVU5xxme88UIshcYJNkp3wv6kps6aFLgxQK1mAEBWFTFrY3lv8izarXibQd7hqL0ruXR8OcnlM5igXT0SqGDJW/+D94p3GeITziseGg7Pj+DoyFQ8nJzpEz6egBJQq2vegCpUjQqDRS90SuaPwC9rNstjwuk1MBx1AEA1lfnXeIpE0mqjNpqScj5/9Rp4daJT1g5SAf+LV3Hq4wJnNGQZJmYF1sqP2TIMGK+gLi5wuqAUb89ODAxXEQA10xH//vp0Eiz49sdsfgziJk2N4pntHzPKJxxtEVwl/SgYztVQEseU5u+DZ0lefYPBb75Cf1sbqq6cJnnuFGamA/yNDzZ68lFIT8LVPlRXavhu42wO9lxBpOsTBISP57vpa8nQLfyxPCYU797hqPtrU64qz+GHLpCon9ZQMptXZrmw4g1/PIIm0hOgupIj+couBgMDuuFAEbs2GF0hVazleMEMvDz8GRfQRkH7gQqleTZJyTlKd3FasYSUE2/Su48LtpVHiY+tewyWtMPGUtJ+lMTRa2ybV3beMJMfReeNehS+x7tJg/h6TB/eXjuVNc8n0alzN/x8e+lnRWnPLSUHWBb9CkssOLeYPy4L2k8j+45F+7KaJBbte5eAsN70opqs/YvrfAFitk6t+NltXmG91xKf5I/lw6DaWOb76R8UtB8FdbHfX9Fxmc+PsuNSwvy+LGDyfGjN8jHXxqzHquWjsL8XpOZSEuZK6+9PUVAbbFX32Nvb/2ocKH7r7Ji1q4BIVRYLnYOINd4shAC0v2kxw0v6iRCiqdgxbt1R4p4q4APVKIsGokKIO0+ekfodsuvxPgHdgaI8rDoFVgghhBCKtXl+CW8+05bSfUtkECXEXUim9v0OhMdtI6KL9v+HHutMe+eHsbUpJzNxXpPMFxVCCCFE/VyGTydqfCBdn3iCrh0fwaYkmWnTFc7zFEK0KDKQ+h1w6+pFLx8btM+R/MiP5w+QNO+vvLvZognSQgghhGikTs9NJLRfa3788RJH185hzvsbqVkAVghxV5FnpIQQQgghhBDCQvKMlBBCCCGEEEJYSAZSQgghhBBCCGEhGUgJIYQQQgghhIVkICWEEEIIIYQQFpKBlBBCCCGEEEJYSAZSQgghhBBCCGEhGUgJIYQQQgghhIVkICWEEEIIIYQQFpKBlBBCCCGEEEJYSAZSQgghhBBCCGEhGUgJIYQQQgghhIVkICWEEEIIIYQQFpKBlBBCCCGEEEJYSAZSQgghhBBCCGEhGUgJIYQQQgghhIVkICWEEEIIIYQQFpKBlBBCCCGEEEJYSAZSQgghhBBCCGEhGUgJIYQQQgghhIVkICWEEEIIIYQQFrrPOEAx/wXsjx+Ko2FY2W7U/jPZbxhmgv+C/cQPrZMCZbvV+M9UmoIQQgghhBBCNL/bvyP1gD2t27ThwYoSCgsLtX/nirliHM+EK8Xnat9bUsGDbdrQ2v4B42h3l8AEMjUaNPq/zAQCjeOIu5gLU9enkZu2nqkuxtuEEEIIIcTvxe0PpHSuZX1MSEiI9u+lOLL1G9oMZvbGg+QUFmsHFMWF5OxNIMK99r3ZcS/VvvfjLK7VbroDAknI1KBJjqobHJWMRqPBOLhBuUl8ER9PfPwmcpr8gHR5rhm4FZGfdZCNswfTxjjqb1V4HNu2bSMu3HiDhRSnM5aQ/q60ce1PyFjjbUIIIYQQ4vei0QOp+r3I+iNrmdrXiZ/ydrEmPp7E49dp3S2Iucvn8Jv+Ir8khUUxMcTEbKa40nhjEzn/LfHx8cQn/pviX13oP3Ut6clRGIxZf7vcPejVqxcejT1YxenMZ8ZHyRzbs4z/t9R4mxBCCCGE+L24/WekTPqSP7/VkXce/Adzvr6qC8ukddYKhj3iQnegxDC6aJzLx4mJiQUgBneikncyw+sV4l5dzKglFUaRRWMVLplMyBLjUCGEEEII8XvSRHekoGLHXINBFNgFh9PzMag8f5yDBvHuPnb0m7WVtPyiBqcsKhGVrH1+KuLVjWTopj8WndxLgqUJ3aKQ2L/soAhbVAETdWFGeS7KJ23rLPrZ1XkjbQbPZmvaaQqLtVMFi/LTSFkcobuzpZtGWOeZL6Mw3fNh+9atJK1IQ/Hp3Xz44UZOF2soLjzMP2reaL4M9eUTNW8vJ4s0aDTFFGZsZZYu04EJmdr3zvACwGuG4RTHZGpmYho+s1aUT25aCosNdqQ4Hd0Uz3q31TBfzuaOSwghhBBC3B2a6I6UITuCF6QQF9aZh/57hI/eWkKLvkfS1pvo6Oja1z3a1v4PuH+wgw2TunLz+wMkrs6hsn0/hg4JYu5XS9H4TSO1TmwzHP356+RLZO9Yzhb8eH6kL0Fz17Agtx8z040jWyA7lTMXx9Chgx+BLCP3zY2sivSh1X8zSVydBn7PM9I3klWJP/NsUCyFgF1wAqlLg3AqP8/hTV+SU+aIKmQ4/cPm8nn5Yfz/YryThnVqX8Frs75h9sdDCPH4lKhVDsx/WUW/sYGQmqq8DB39meR/lgMb4rnkPITnBvoS+Wksu556ndykL4g/5wA9glEPcOP8t/HsOKl/41n26P/NTeKL+HM4AI5d+tPb70nC5n5Nm6q+TFxfoTydPeuIf+AwAD2C1Qxw02+o5aKgnAGTx9WYahdCCCGEEM2n6QdSYcuIHdMZm6zPeDZ8LietPYoKTCBzVRBOxuF6WQtxDtJOe1PEbQBq9QDjUJ1A/jq8KzalyUT2nlxzwT9n1i4KInsR5g+plqzcbvMT6XP7MDFJ+zLuzGZy3utN7xc9Ib1m2Y7bUEX1L/r/PXkn3IeHqs+wMnQE7xUCfM6VPUeY4vUcr3vGMjPbhag3h+HCGVYGD9LFAWLcGfxsK47szAPa6xM0q+zUZras9WHqx0Pg8Dy2ZHZl9ssq3VYLytDmMqmvDuX1dIA4ftxVQKTKncFAbMoiYlKAqL6oB7hx+XgMutmNdZWksCgmpfa1ywfsS59Ev9ETYf0ySpSmk7GWmAztv1F96xtIKSlnXVQTxyUDKSGEEEKIu0PTD6Q6PUpbSkn+tAkGUVDnjkO9ztbcU1DGeOAVlVwz7Qt8cHYCCGKVRlMbB4BS7rN45fbzfKcbRAFUrMyg4L3edO80BGrXP2ykvri1A8oK+VfNLZESknKKmeLRgS7DgewRqDrYQPEJNtTEAShk707D19ZgSRle4vuakUUFP1cbblOozWDe+UTNcFUPnFoDVb9yP2DbytrrGiopZ324FY5LCCGEEELcUU0/kFr2KkG7bLmQZ7zBSozvODSDG2lxjJljPECrarpjtJTLQNydoDorn4OA2nj7La5zswq4vxWPGG9qIs1ShnbjWLP/YwLaVqHJz6XwIsAjdHzsER4yjiuEEEIIIYQFmmyxiRqP9iQg4EnqPml0t0ohrwjsnwxg2I9ZZGUZ/uXyQ507bhe4cRNwaMsThsF1uPFkWO0ru0m+dAJKvz9WG2ixNjz/4XC6Uk1e+loqOMz5C4CjOwNr1lhwIUzlChSRlwLwLfmaanDpzZ+CzSx6cK8NNTeNdAM2y1hShsrZPlzPovpPB9DD0YacZSp8B+t+r2zmIS4bxzNQbzqKKClnIYQQQgjxW9HEd6RcmLN8MVM8bHih8wX8plnyAFFLlM28xEyC3/bhtd0ZDDt0iH15ZWDfHs/7djL6rcQ6cf9deJkxHfx4dfsiHksrw7GLJ1dXj+bvNasp2OD97hE2+u8gBxUhw3tjW13EwX9aWE76BTLs29MvYBBPOttSnrWQV2aXACU1eX5p03Za/69uEQQPG8qztrA4G6CE2Pm7CFoaxLAl6RyM2MPOnDLAnvae97Fz9FskcpDj5ysJ6j2ED7cvwicN/AZ15pdSwMEL9aIJXNlWJ1cNsKQMFVibzqnXvPB4cTsp7XZz6NwNcHyUioSZxF24wU2g+5iNLLonjTJHFcFD/8g9xYBbCGsWlbBw+loyzKWT7cLw6S/jq5s/ql1/pC3e0dFEA5xNIWZthoJyFkIIIYQQvxVNPJAq4cApDRFdHPghr8B4412pZP4I/LJmszwmnF4Dw1EHAFRTmX+Np0gkzSBu0tQontn+MaN8wlH7QFX5VdKPQu2ydGdJXn2DwW++Qn9bG6qunCZ57hTLV+yrWSCjivKLJRxeu5A572+sWSWuZP4YIuy+4tMIT8K1GaE44zPeeKF2JbmKHZMJjJjN8phQvHuHo+6vDa8qz+GHLpCYV8GSt/4H7xXvMsQnnFc8NByeH8HRkal4ODnTJ3w8AduMn3mqnyVlaFbJbF6Z5cKKN/zxCJpIT4DqSo7kzyRu8d/4YKMnH4X0JFztQ3Wlhu82zuZgzxVEuj5BQPh4vtMPpEylk92dsD+pCapz982NAWo1AwCyqohZm6GonIUQQgghxG/DPfb29r8aByqiWy3PsfI6P/6kWyKubDdq/5kovZ/iv2A/8UMdtS/ufZDWD9tSlhyBz2SLFhG/K0Ula5jhlcVC5yDqWyROCCGEEEII0XLd/h2pC6f47li7uosTXCnmiuFrM64Un6Ow8HrdsFMX6rwWQgghhBBCiJbm9u9IiUaRO1JCCCGEEELcvZp+1T4hhBBCCCGE+I2RO1JCCCGEEEIIYSG5IyWEEEIIIYQQFpKBlBBCCCGEEEJYSAZSwqqikjVoNMlEGW8QTcSFqevTyE1bz1QXw/BAEjI1aDITCDQMblBD6dw+aQtNyfr1dccEJpCp0aDR/5lts7+hY///7N19XNRV/v//R1EmRGG2rASBtniFNoQopmaiIpoglomapsvaWjpkapfsbrLmB/uUubhepGjyyUxX0y+al5CxWrZeEYQISaWQKDGhrpqmUPajfn/MDAyjwnsMzex5v93mdps55zXnfXHeg/Pyfc4ZERH5VVMidYmGL//M+o9+8Vqe9MtxqvYAACAASURBVHCuvYbFJrNhwwaSY50rrjRbouD4Bay0mIIdq5jSu4lDXBMefi2DrAMl1TGfZ63ntYcCHWLAo/0Y5mZk8Xlxaa22Jner3bkX7feE9Nr74vyo98shQDgLsi8eG5mai8WSS2qtymHEdPeniX93YoY5lruqodr5jWqoz4Xhdq6h/ipczVspKaSkvEvBKefKC7mGjl1ERH7VLv13pH7ThhPTwYtTBw9SdZeJiFEwb6FzzDUqMIiOHUNw2+5c8Qs5VcC7y7dTDng270bfPt0ZuySTOx4LY1wm+E1dzeyRQXz31XbS3i6gsnk3Inp1YOSsRXxf2JvE/UBgAmlrJxLS+DSH92xmXfYh3E3R9O3anbi//JkFA+fyX6DOft+ynJRGu6zPfbozYpAJCt5l+fZya9mpHAptoRe3jYPHAJMPJsD5Z6l/5+EOHKZkh2PpTCa+2o5ZXUp4ZYFjuasaqp3fqIb6XBhu5xrqr7IM5iRlAJGkDhqEybn+PNfQsYuIyK+aEqlLERlBW68qihe9zunHk+kQPhwWrnCOkiuhspS1SUnVScfU4cv5OLknkeaxkLmQkWFBuFHAkp5DmVZhC/LoRu+QPLbuB/Bj6hvjCbm5nH+P780f13xjC0rCo30odx3MtSVR1N3vOctIyrHHpTJokAlK15KU5JwO1e3TI0ch5HpuBPC4g3atm8GR/RR+XUFAEy+oPMsx+3HYFM8bQ8y82mWXoqHakSvjt9xfv+VjFxGRq4eG9l2C4Oh2+FDE3pXr2HuwCq+2EecNxWrSewrrsz6nuNQ6tKvkQBYZc+NwHFBWf4wH3SavrzUsrWBrKnG1RqUFEjc3g6zCA5Q4DiXbu5gBLsXUzTqszIJlYggAIRMdh66dPw/m9oT17CuxYLGUUpyz3mmInJHjujQVKzaQfwrcG1uH9/3wYxXgTWAvh+1X7GTrTls2Evw8kUFuVH78f4yrTqJsYfty2eeQtBjp95/rzPc/AD60igTuS2JZejob5o0CgrmjCXDqBF/CBYYSnt8HFxI8aycWSykbn7EVXGI75wmMI3VrgfVaLi0mZ9WT3O4c49zvJQfIWj8Zp9GT9XwuLjT3y6nMNufmg+WLySqxUPr5+7zyyio+L7VQWryL16vfWP91mJBubTdhxtYLXs+GPxeO84BKDlCYlcFchw0ZbsdQf9V/nus7LuOu4LYMHLuxbdXf7yIiIkbojpTL/Bh2TwsoWcXKsgqO7yli4mgTA8MgM9sa4RGdSuaCKHzOHmbXu/+i4Jg3ppj+dB88jTfP7iL8L/sNxQS+vImVo9vUGpbWt08U095ZgCVsHJlA2NzlvDLYl9OH9/DvDdkcOmPbzR+LOGx7aiSmPoWr3yLlkBe0j8bcI4DDH6WwaZ+99iBbHIO5i6iHj5K7MgWLbx8e7NmJ+H9OZ/O9T5ENho7r0t1K40Y1rxakbGb4gij6zctm6yNv8doL83jva4fsqE9L/IGifWtxutHjpP5+bwjbDh4DfHFrBNzti/eJE5y5LQA/vsSzMXCshB1Qayhh+2gzPQJq2rg4D/q39geK2LvSVnRJ7TjzY+ob04hqW8WRnDTeyq6kdZ8/EvV7p6hnVrEkPpTG/80l7e0sCHuYgZ3iWZL2Aw9ETacYI5+d2m3WpWXzCsZP/jdTXutDTNA/SVjixczHTHQbFgmZmcavQ+9wRocfZPvKFI47Xc+GPxeFq3kr5RBegHfr7nQOu5vB09bQ5FxXRq2oMN6Ogf4ycp6BOo/L6CV9Jbdl5NiBerdluN9FRETqoUTKVX7xdGsD5embyAdYuZeS0UPp+GgwZOcDfiQ80w8/vmBxdC9etH+TSAqk9wON2f3efoMxkfy1fxvcytOJ7zymZuja5M0UxXdkcDhkboPegf7AQTbHP8LE3AunAkZi6lOWMYekDCChK+YeAZzYk0TSdOcou9N8MD6cp7IBkvl2cxHxpkB6A9kGj+tSeYzth8kdThwvAqBi0xgi46bwdvJoOkU8zZsfj8OyZzETHpnGzgrgxutxAypPl9Vq5zz19nsD+fQIRwmh2d0Q2cqHYyUlVN3pSwgmfLyhsuSYNeFzGEqY0LWOL5UOPKLnEGtyo+qzj5hvP9xLaOc89rt6ea8zYOB0ygCSwpibtY7BXtVBPB8bys1VX7B40ADbNf8mJ7fs5vGQB3kqeDqT8o18LprbG6zXsc/Wsm5ZKGNf6wO7ZrAutw1THrPPwHHhOnQ7QeaTfS94PU83+rmongdk4/cyH2SPptuQUbBiofHPV739ZeQ820LrOC5jyc2V3BYGjt2mzm250O8iIiL1UCLlIo+RHWjJd3x5YxcSE7sA7pw9A+3vGYYf+ZQxAFMLNyjdy8rq/44FKGbre/bnRmJC8fUBiGKJxVITAkA5N9juuixbt51HTd0ZsvELBpy2cKiggA/XzmfOv3KxD1QzEtOwjvNV9bejCn6ocqwzdlyGufvzUGIiXQBvUzR9uwZw89k8Ul9aXR3yzdapDOwwgzseeJ7ZLw2na6d4Vm67k8fCxpH5w49UAU3uCAZrinRB9fd7Ayk9RQXW/TH5eHNs9xqq4rtxN59zvRucOvGl8zvqZjs/Ma17cf/9bWlGGetfndJw+wvQzJPGwJH9GQ7tZvPVccDf/rorAc2AY8V8WH3Nl7G6oJTHg1rQuj+Qb+Rz0VBcuQ7rup4NatKb5/9hpr+pPT63AOd+4kZqhqA2HCPn2V7+c4/rSm7LFXVty5V+FxERqZsSKReNurcNbjSmVaTZOo/FrmUHRnrA9IrTfHcOuLExtzlU12YkxupMVjJDp25xKj3Hkf3WZ2ULhxK88i4efORpYgd1xBTSh3H3RfHYhDU8fu94Mg3GXGn1HZdhXiYGmW13Gc6d5eiBdP7x1ARSa30RB6jg6/emMvS9GcSt/IRX7u/CiGjI/HcRpc+F4m8aXGdCVH+/O5T9HPlf8w3g49mVgKbnOHtsD6eOPkyrhFb4AOUHXOwt+/mpqqLKDSoL1jHDxSaM+v7sceciFxn/XDSUBrsO6+IxnKXbXiOi6TksBwopPgpwG3f9/jZudo6VK+KK9LuIiFzztNiES4YTHuROVd5sWvr64mt/TN1NpVsbuo72AD7igKUK/Drzp+iLTaY2EpPB/hLwvDuCft/mkZfn+CjEcZoP3xxk3YIJjOp3HyGt2vH3nWdo5N+NYY5f+I3EuMD9Vj/nIoNcOC4jytOJs/dDi1aE9B5DavUKER54nHd6Kyg8ehq4iZtuBfL/xcclVbgFjWBRwsVmmxvp94byKUeOgrdPBAHNTnHiyzwsJ73xudsDdyr5ztVbiPbz49+ThQWVuJvimP3MpfbdRRw5w3dAQPuHqDkTYdxZa7WJXRw+AngH0rP6NPsx2OQPlLA/A4x9Lmyud6P65oFfTwJ9HCuNaODr0OaCn4v7Imjv7UbBQhOdescQExNDzKSdnHCOc3DBdgwxcp4bSkNv6whnvgO8mvIH56oG42q/B/LQs88ytH0916OIiPwm6Y6UK4bH0MELivYsq70wwdIsvpjcBZPth4Wmz9xMlG2Bgx1xW3iv4BjgSfPgG3hvyLOkUWYgJp8ZablEPxfK+Pdz6LdzJx/sPwaezQm+4T2GPJsGQGzyBoZ5FZJvW0HCu3Uv7u/kCZWF7Nlh3T0jMYYty+az8SEEPbqRjGbvs/PQGfC+nYrUSSRffGScA2PH1TB6MW/7HDpVFpH3yXb2HwPv1n3o2dMfzu5m2zqAbP728ia6zhtIyMQt7OmXzSfZ+Rw640nzsO74FpqJ2mus3xtGKacqwO1WH37nXk5WZhk/TATv1oF4cQrryD4/+k94jE62+UftmwI0pUNiIokABzNIWmZvz66YafHvEPHhaELNcxm74GEWVhhpx76mex3y5/LBF4MZ3fl5dqxvw5rsSlr36UnbGysdg6r7/Y/vbuSW/2dbmCDIjbN565ibDxj6XOxgz+FKojr34ZWNcwjNgrBerfixHPAKwTxnJCc3OGz2ohr4Oqzrc2FLNNsNXcWc67I45m0iuu+dXFcKBMSwdE4ZsycsI6e+dvKN9Vf957mhGOlTV+Tzn+ITDG0RxpMb5/D7rGN4tw7mm7eH8PdMY8deP9f6PXjWUuYPbQGD/fm826Q6Bv+KiMhvkRIpF0RGtMWLEjavdBoAVrGMPUUTCQkKZzgLWWFb4OCNpEF06ByLubs17NzZAr5uDWn7axZBqCumbOYAwvKm8EZSLB17xmKOAKii8sAp7iWNLH5Hy1ZtCevUkfvs+3LuLEfLtrMw8QnmVQCGYlxQNoUnJvux6OlwgqJGcQ9AVSW7DxhNpIwcV0M5wudF5XQIbknPWBMRUD387+9PTSDVduwVm8bRqySH6f94nMjWXYhqex9QReVpC4cOtDbe77VrL1E+X38DhLSk5dHNfAqcKz/Gc6H+QB7WkX3tGPwnM1G17sIE0MNspgdA3jmSluU6VloVv8gLq3uxZmgXnls2lqUPf2mgHSNfTot5ccxkmi16jl4dYjF3qOT4njf4x4FhvBJVE1U2cyhxHu/wz7hgYs2hcO4spTnzefqRmtXd6v9cVDDv2f+hw6IX6BMayxNBFnbNjOPjgZkE+fjSJXYEERuc575cWINeh3V9Lub+jZdXBfNqzD3EmkOpqrTw6aop7LhnEfH+fyAidgSf2hOputrJN9LvOYbOc0Np6G2tHpvA/Rtf46HQWKzNfUP2x0CmsWM3wpV+L8ospGywP7d89RnW5WtERERqXOfp6fmTc6GIiIiIiIhcnOZIiYiIiIiIuEiJlIiIiIiIiIuUSImIiIiIiLhIiZSIiIiIiIiLlEiJiIiIiIi4SImUiIiIiIiIi5RIiYiIiIiIuEiJlIiIiIiIiIuUSImIiIiIiLhIiZSIiIiIiIiLlEiJiIiIiIi4SImUiIiIiIiIi5RIiYiIiIiIuEiJlIiIiIiIiIuUSImIiIiIiLhIiZSIiIiIiIiLlEiJiIiIiIi4SImUiIiIiIiIi5RIiYiIiIiIuEiJlIiIiIiIiIuUSImIiIiIiLhIiZSIiIiIiIiLlEiJiIiIiIi4SImUiIiIiIiIi25wLjAsfBbbUvri7Vh27H3M4ZPY5lhWh/BZ20jpW6sFjr1vJnyS0RZERERERESuvEu/I9XIk1uaNOGmijKKi4utj0OlnHSOq8PJ0kM17y2r4KYmTbjFs5FzmFyz/Bi7IovCrBWM9XOuE6MC4+aSkXWAEosFi8VC6fuJ/M45SEREREQa1KXfkbI5lfcaMWMynYutntlI6XNNWf1ANyblR5Kau4TQ3DhCbfH5yX8kJtkWG5lK7hLfmvdecdb9i/JxLDvH2dJ8lv31j0zd+o1jxdUlNpkNca3ZvySGZ9OcK69mw4jp7k8TN19ihsHCmc71Uq/IBbwzbSA+Zw+zK+1tCo6B5/Hd/Nc57uf61V5jIiIiIpfHz06k6nTj9bjxDV/nA4Ti6wPfnTniHHV1OfwRKZv2WZ97h/HwwE6MXfIujXr24sXi2qFXjcAgOnYMwW27c8XVbiYTX23HrC4lvLLAuU6MGGuOxM+tlNWjuvBUtnNtA/rVXmMiIiIil8flSaT8+jPhsU4Edg0AztAhMZFE2tMUwOdBEkc2ImlZjtObrhIn9pCUNL36ZfIXayl4sTO9ngqGSfkOgdIQiueNIWaec6kYE0lYC3coL2D95UyiREREROQ8lz5Hqi7tBvMns5khIU2BAHqYzZjNPQgAAnqYMY+IcH7HVati/385BTT2bGYr8aDb5PVkHSjBYrFgKS2mYGsqcYE170lIt2DJTSXuyVXkFJdisVgo2beVVMcg53ZKDpC1fjLdPKpbId0258WSt5joTlPJ2GeNLS3exYJoDyJTc631E0MACJloi7dYsFjSSajelgGRqeTa31tygMKsDObW2t+a40qYsZV9JRYsllKKc9YzuWanjUlId9jPi+1rIHFzM8gqrJn7Y7FYsOxdzADDMZGk5lr3ObL6PRcqq79Pjfn5fdqwDBxXPf1u7Bq70Dl1LjN67Ab2WUREROQqcHnuSGWOIdTX+sV7YpNVPNBtEvmRqeQuCSU3LpSLTam6Gnm0/h1ewOEjhQAEvryJlaPb8N1X20l7u4DK5t3o2yeKae8swBI2jupD8w7nr2OOk7/pDdZhHSIYNW0pswq7MSkb/J5ZxZL4UBr/N5e0t7Mg7GEGdopnSdoPPBA1nWK2sDylEQe7j2CQqRl/fiEEj9yVpJxsz5BBoQx8aSbv//0tUg55QftozD0COPxRCvZRiXCQLfanRhSu5q2UQ3gB3q270znsbgZPW0OTc10ZtaKiJs47nNHhB9m+MoXjvn14sGcn4v85nc33PoXhmyJblpPSaBcA7aPN9AhwqgfC5i7nlcG+nD68h39vyObQGVvFj0UcdiHGCMN9Wo+G6NMVm8bVu+qlX/8JPNbJC/DB3x3An4cSE+kCwCly3pxDRpnB46qn3wtXN9Q1ZuzYvzKyzyIiIiJXgcuTSDn65musU6R88eEUtnyk4USmkrskilprRDjKm41vVM1QvXo17UBiYqL1uW2OlPvZXDbMLwMi+Wv/NriVpxPfeUz1l7qpkzdTFN+RweGQaf8W7PY92dO6MGq19aV9iGDnR4MhG56PDeXmqi9YPGiAbe7Vm5zcspvHQx7kqeDpTMrPYVlSDkdSBzHIFEKL0/ZFOjz4qU0R8aYAWmWMIykDSOiKuUcAJ/Yk4TAq0TVlGcxJyqh57fcyH2SPptuQUbBiYU252wkyn+xrm4+TzLebi4g3BdIbjCdSOctIso3sTOh64USqd6A/cJDN8Y8wMdchkXNgJKZ+LvRpnYIbpE+7QL2JVLvBf8Jca1UUE4PMJtvzctJ3zyGjzOBx1dPvZRlzGugaM3LskbQyss8iIiIiV4HLmEhF0soHKkscV7ur5HSZw8uG4PA/6hd00Pj/mQMQ0AOzuUfN6xN5zH9iKDPLwL5gBkSxxGKpiQGgnBtqrdx+mE9tSRRAxeIcil7sTLuWfYCzBDQDjhXzYfUCFmWsLijl8aAWtO4P1uzT7ih737V/raxgWj9fpjlWN4QmvXn+H2b6m9rjcwtw7iduBNwbN3EKPM5X1RlTBT9UOdY1nGXrtvOoqTtDNn7BgNMWDhUU8OHa+cz5Vy72K8pITP1c6dO6dL1ifZo5JhTr+pa2lSZJJy60JvGwMnhchvu9IV3s2BNIN7LPIiIiIleBy5NIOd4l8pmCxTKlumqixcJEV+8S1cX5f9R/rup982Pqlt083tod9yO173acyUpm6FTnBO0cR/Y7FTWYH6k651zWgDyGs3Tba0Q0PYflQCHFRwFu467f38bNzrFXSNnCoQSvvIsHH3ma2EEdMYX0Ydx9UTw2YQ2P3zueTIMxRl1zfWpT53H9Yv1e97HXuc8iIiIiV4nLk0gVruatFE9GmHuAbU7FnT1GEXPnQd5dvp1yV+8S/SLKmDL/QwbPjWDojLG8/PBCKshgf8lEQu6OoN+3yUyvvvNwIQHcPRiw3ZXyGN2JlkD5V58AJzl8BLr4B9IzEDKLAfwYbPIHSth/iXmh+61+wCXc8rsvgvbebhTMN9Fvmi1pDHyNj/7zB+tKi7+Ubw6ybsEE1i0A8GBMWh7/060bwyIh054lGYm53o3qmxl+PQn0AcrtBa70aV12XZY+vXQGjivS9X6v8xqr8zwbYWCfRURERK4SlyeRKstgTlIwD5h7gG1ORUK6Gcpz+N+kpIt9Dbv6rP4Lq+N383hYHP8btpBJ2fnMSMsl+rlQxr+fQ7+dO/lg/zHwbE7wDe8xpNYvlbrR4YXdrArfRAEmYvp3xr2qhB3/Z53kYW/nj+9u5Jb/Z1uYIMiNs3nrmJsPdBpJYv+78LGuJoD/Q4kkdqlZSKCWZdl8Nj6EoEc3ktHsfXYeOgPet1OROolkIyu2HznDd0C7oauYc10Wx7xNRPe9k+tKgYAYls4pY/aEZc7vukR+9J/wGJ1sYzHbNwVoalsiHziYQdKyHGKTNzDMq5B82woS3q17cX8nT6gsZM8O63vrj9nBnsOVRHXuwysb5xCaBWG9WvFjOeAVgnnOSE5OWOZCn9al5tpokD792Qxcqwb7PQfqucYMnOe3oX+9x25gn0VERESuEpcnkQKIbIUPp/j8MIAHN7oBlad/PUkU4HhXKmZqAjOiplM2cwBheVN4IymWjj1jMUcAVFF54BT3kkZW9XsPkv72GXo/8wTd3d04d/Jz0qc9ziTb/KKymUOJ83iHf8YFE2sOhXNnKc2Zz9OPTKcYIGIEZrN1yWkA0yAzpuqFBKqLrcqm8MRkPxY9HU5Q1CjuAaiqZPcBg4lU/t94eVUwr8bcQ6w5lKpKC5+umsKOexYR7/8HImJH8GmDJVLtGPwnM7XWSrAtkd8DIO8cSctKaNmqLWGdOnKfPeTcWY6WbWdh4hPMqwD4nYGYCuY9+z90WPQCfUJjeSLIwq6ZcXw8MJMgH1+6xI4gYsIyphvu07o1aJ82gHqvVYP9ngP1XGMGznMZho693n2uCRURERH5RV3n6en5k3OhIbZ5UN6Vp/n2+x+tZcfexxw+qd5Vx+zCZ20jpa+39cX1N3HLre4cS7ev5vXrlZBuYWJIHrN9o2igmWAiIiIiInIVufQ7Ukc+49NPmnGbY9nJUk46vq7HydJDFBefrl322ZFar0VERERERK42l35HSi5Kd6RERERERK5t1zsXiIiIiIiISN10R0pERERERMRFuiMlIiIiIiLiIiVSIiIiIiIiLlIiJQ0qId2CxZJOgnOFXFmRqeRaLFjsj9xUIp1javFj7IosCrNWMNbPuU6uDpGk5hrpSxEREbkSlEhdouHLP7N+QS1ey5MezrXXsNhkNmzYQHKsc8WVZvtS6ZgslBZTsGMVU3o3cYhrwsOvZZB1oKQ65vOs9bz2UKBDDHi0H8PcjCw+Ly6t1dbkbrU796L9npBee1+cHy59+W1C7ynra/a55ABZGa/xsONh1adwNW+lpJCS8i4Fp5wrL2QYMd39aeLfnZhhznVXygX6tOQAWRlziavdXVdGg/apiIiIXGsu/XekftOGE9PBi1MHD1J1l4mIUTBvoXPMNSowiI4dQ3Db7lzxCzlVwLvLt1MOeDbvRt8+3Rm7JJM7HgtjXCb4TV3N7JFBfPfVdtLeLqCyeTcienVg5KxFfF/Ym8T9QGACaWsnEtL4NIf3bGZd9iHcTdH07dqduL/8mQUD5/JfoM5+37KclEa7rM99ujNikAkK3mX59nJr2akcCm2h9YlckMmbA/2q9xlTDP27j2R25q18GzYOQz9XXZbBnKQMIJLUQYMwOdefZyYTX23HrC4lvLLAue4Kc+hTb1MM/bsPZtrSKgq7TSLbOfZyasA+FRERkWuPEqlLERlBW68qihe9zunHk+kQPhwWrnCOkiuhspS1SUnVycXU4cv5OLknkeaxkLmQkWFBuFHAkp5DmVZhC/LoRu+QPLbuB/Bj6hvjCbm5nH+P780f13xjC0rCo30odx3MtSVR1N3vOctIyrHHpTJokAlK15KUZCjtqeHxJE9G+uFWvplJPUezqQIgibC5WawbHM3TCR5kTrcfSMMqnjeGmHnOpb+AWn2azJNrC3ixc2t6w5VNpBqqT0VEROSapKF9lyA4uh0+FLF35Tr2HqzCq23EeUN8mvSewvqszykutQ4DKjmQRcbcOBxHKNUf40G3yQ5DvEqLKdia6jTMKZC4uRlkFR6gxHHY0d7FDHAppm6RqbnW90wMASBkouMwp/PnRN2esJ59JRYsllKKc9Y7DZEzclyXpmLFBvJPgXtj6zi4H36sArwJ7OWw/YqdbN1pS0aCnycyyI3Kj/+PcdVJlC1sXy77HHIWI/3+sz14H23coezjt2xJlFX2ol2U4Eabe0cBtrlouakkzNhax3k24Lzha+f3pbFtXb4+9WzUCKp+5AfgwvOELlAWGEfq1gLbZ6uEfVtnMXlx7gWP7+dJIN1+7vIWE91pKhn7rOegtHgXC6Jt58hxzlrJAQqzMph7gZNT/9+E8wXP2onFUsrGZ+wl9fWFwX0WERGROumOlMv8GHZPCyhZxcqyCo7vKWLiaBMDwyDT9t/lHtGpZC6IwufsYXa9+y8KjnljiulP98HTePPsLsL/st9QTODLm1g5uk2tYWl9+0Qx7Z0FWGxDvMLmLueVwb6cPryHf2/I5tAZ227+WMRh21MjMfUpXP0WKYe8oH005h4BHP4ohU377LUH2eIYzF1EPXyU3JUpWHz78GDPTsT/czqb732KbDB0XJfuVho3qnm1IGUzwxdE0W9eNlsfeYvXXpjHe187ZCh9WuIPFO1bS933eerv9wYR0AQv4ODBbbXL8z+jvBJa3BZA9VoQ3uGMDj/I9pUpHL/AeTbEYfha+2gzPQKc6u3q2VaD9qm7Pw8lJtIF29A+01lyX5/ITOe4i/Jj6hvTiGpbxZGcNN7KrqR1nwEMCbsc/2+0heUpjTjYfQSDTM348wsheOSuJOVke4YMCmXgSzNZsWkc2wpX81bKIbwA79bd6Rx2N4OnraHJua6MWmG98ur/m1B7y1Ye9G/tDxSxd6W1pP6+MLjPtbYjIiIizpRIucovnm5toDx9E/kAK/dSMnooHR8Nhux8wI+EZ/rhxxcsju7Fi8W29yUF0vuBxux+b7/BmEj+2r8NbuXpxHceUzN0bfJmiuI7MjgcMrdB70B/4CCb4x9hYu6FUwEjMfUpy5hDUgaQ0BVzjwBO7EkiabpzlN1pPhgfzlPZAMl8u7mIeFOgbWiWseO6VB5j+2FyhxPHiwCo2DSGyLgpvJ08mk4RT/Pmx+Ow7FnMhEemsbMCuPF63IDK02W12jlPvf1+uX3JiVOAVzPa2YvcTpD5ZN+LnGeDHIavJXStI5Gqc1sN3KdeJgaZrbO6vj9RwoHs7WzLPu4UVAf7Xca8psMIDwAAIABJREFU1xkwcDplAElpzM1ax+CmzsE/Vw7LknI4kjqIQaYQWpyOI3RMJuDBT22KiDcF0AXYVj1nzcbvZT7IHk23IaNgxUKM/U1oXvN+G4/oOcSa3Kj67CPml4GxvxsG97l6KyIiInIhSqRc5DGyAy35ji9v7EJiYhfAnbNnoP09w/AjnzIGYGrhBqV7WWn/MgRAMVvfsz83EhOKrw9AFEsslpoQAMq5wXbXZdm67Txq6s6QjV8w4LSFQwUFfLh2PnP+lYt9oJqRmIZ1nK+qv8lX8EOVY52x4zKs1t2LaPp2DeDms3mkvrS6OuSbrVMZ2GEGdzzwPLNfGk7XTvGs3HYnj4WNI/OHH6kCmtwRDNYU6YLq7/fL7Q809QIOH6EQCAXqPs8Nra5tNXCflqcTF2pLAjzu4IGXljF3WTa9Zj9A1EWTdwfNPGkMHNmf4dAv2Xx1HPCvLrgMjrL3XXvqUsG0fr5Ms1c16c3z/zDT39Qen1uAcz9xIzVDUI39TbCxXfMxrXtx//1taUYZ61+dYjtWV/uijn0WERGROimRctGoe9vgRmNaRZpp5ThBpmUHRnrA9IrTfHcOuLExtzlU12YkxupMVjJDp25xKj3Hkf3WZ2ULhxK88i4efORpYgd1xBTSh3H3RfHYhDU8fu94Mg3GXGn1HZdhDncvOHeWowfS+cdTE0it9WUUoIKv35vK0PdmELfyE165vwsjoiHz30WUPheKv2lwnQlR/f3uUPZzHP6GU1wgsfML4DZ3qDx5+KL7+EtrsD51VPE1773wKtv6LCEq9nnCp9ckyPX5/qwLd7EaxI9UnXMuAzyGs3Tba0Q0PYflQCHFRwFu467f38bN1UHG/yZUX/NVVVS5QWXBOmY4fYiN98VF9llERETqdTkmDVzDhhMe5E5V3mxa+vria39M3U2lWxu6jvYAPuKApQr8OvOni07aNhKTwf4S8Lw7gn7f5pGX5/goxHGaD98cZN2CCYzqdx8hrdrx951naOTfjWGOX/iNxLjA/dbqmToucuG4jChPJ87eDy1aEdJ7DKnVK0R44HHe6a2g8Ohp4CZuuhXI/xcfl1ThFjSCRQkXm9JvpN8byLodfFEJLXo8jeOlEfaXPrShipKCjTWFhhzhzHeAV1P+4FzVYBq4T515+HKLO+B2A9U3VK53q3nu15NAH/sL4MgZvgMC2j9EzSkM487ba0KuqPsiaO/tRsFCE516xxATE0PMpJ2cqBVk5G+Cjf2a9+/JwoJK3E1xzH7G/nm8HH0RyEPPPsvQ9vXsl4iIyG+M7ki5YngMHbygaM+y2gsTLM3ii8ldMNl+WGj6zM1E2RY42BG3hfcKjgGeNA++gfeGPEsaZQZi8pmRlkv0c6GMfz+Hfjt38sH+Y+DZnOAb3mPIs2kAxCZvYJhXIfm2FSS8W/fi/k6eUFnInh3W3TMSY9iybD4bH0LQoxvJaPY+Ow+dAe/bqUidRPLFR8Y5MHZcDaMX87bPoVNlEXmfbGf/MfBu3YeePf3h7G62rQPI5m8vb6LrvIGETNzCnn7ZfJKdz6EznjQP645voZmovcb6vUFUzGNe5p/oOLAfsz5cRb8NBWCKpm9Xf6rK0pk53dX7Ufn8p/gEQ1uE8eTGOfw+6xjerYP55u0h/D3Tj/4THqOTlzWyfVOApnRITCQR4GAGScvs63/XpYH71GG4Jp7N6da3D/d4wYmcDDLZQevDlUR17sMrG+cQmgVhvVrxYzngFYJ5zkhOTpjLB18MZnTn59mxvg1rsitp3acnHW512k5D6DSSxP534ePvDoD/Q4kkdjlFzptzyLB3lS2xazd0FXOuy+KYt4novndyXSkQEMPSOWXMnrDMwN8EZ8VMi3+HiA9HE2qey9gFD7OwwkBfGNlnB8GzljJ/aAsY7M/n3SbVMQBWRETkt0WJlAsiI9riRQmbVzp926hYxp6iiYQEhTOchaywLXDwRtIgOnSOxdzdGnbubAFft4a0/TWLINQVUzZzAGF5U3gjKZaOPWMxRwBUUXngFPeSRha/o2WrtoR16sh99n05d5ajZdtZmPgE8yoAQzEuKJvCE5P9WPR0OEFRo7gHoKqS3QeMJlJGjquhHOHzonI6BLekZ6yJCKge/vf3pyaQajv2ik3j6FWSw/R/PE5k6y5Etb0PqKLytIVDB1ob7/fatZcsc1wkE0+vIGFQZ2LN3eHcWUo/Xc0r45+qtSS6UavHJnD/xtd4KDQWcyicO/sN2R8Dme0Y/CczUY53cwigh9lMD4C8cwYTqQbuU8fhmkBV5XEObnmTJ8Zah/XNe/Z/6LDoBfqExvJEkIVdM+P4eGAmQT6+dIkdQcSEZbw4ZjLNFj1Hrw6xmDtUcnzPG6SfnchI6+r9DSdiBGZzTaOmQWZMlJO+2yEpyf8bL68K5tWYe4g1h1JVaeHTVVPYcc8i4v3/QETsCD6dsIwcA38TzlP8Ii+s7sWaoV14btlYlj68sP6+MLLPDooyCykb7M8tX32GdQkXERERAbjO09PzJ+dCEZFriweTNxcRb8pjtm8URtasEBEREamL5kiJyDXPo/1LRLQDSvbjsAi5iIiIyCXT0D4RuebEJm8grrX1+c2/b0Vz31txdztLbtoMzfERERGRBqFESkSuOQFtQugY6oZ1rtu3fHt4O6tn/JUX1l5gEpCIiIjIJdAcKRERERERERdpjpSIiIiIiIiLlEiJiIiIiIi4SImUiIiIiIiIi5RIiYiIiIiIuEiJlIiIiIiIiIuUSImIiIiIiLhIiZSIiIiIiIiLlEiJiIiIiIi4SImUiIiIiIiIi5RIiYiIiIiIuEiJlIiIiIiIiIuUSImIiIiIiLhIiZSIiIiIiIiLlEiJiIiIiIi4SImUiIiIiIiIi5RIiYiIiIiIuEiJlIiIiIiIiIuUSImIiIiIiLhIiZSIiIiIiIiLlEiJiIiIiIi46AbnAsPCZ7EtpS/ejmXH3sccPoltjmV1CJ+1jZS+tVrg2PtmwicZbUFEREREROTKu/Q7Uo08uaVJE26qKKO4uNj6OFTKSee4OpwsPVTz3rIKbmrShFs8GzmH/Yr5MXZFFoVZKxjr51wnIiIiIiK/VpeeSNmcynuNmJgY6+OPyeQDHtGLybVYOLBmLB4OsR7Dl/OpxcKny4fjAeQn/7Hmva/lccoh9sqLJDXXgsVykUd6gvMbDBhGTHd/mvh3J2aYcx0Qm8yGDRtIjnWuEBERERGRq9mlD+2rQ8WmJ5nx4cck9xzLnMiFjMkECON/n7qfpmd3M3XMCiqc33S1OFXAu8u3U+5cfnCLc4kBM5n4ajtmdSnhlQXOdUBgEB07huC23blCRERERESuZpclkYIKVoyZy5C9U+j3t5cJzHyR7xKmEtPiHAXzn2fhVZtFAZWlrE1KItO5/BIVzxtDzDznUhERERER+TX72UP7LqpiIc8vKeBcm6HMeDKOGaNCaPTFO8RPK3aO/PXwiCY1uxRL8WYmB9oLA0lIP4ClNJvUaNtAxoR0p6GB6TgODIxMzbWWTwwBIGTixWNFREREROTqc5nuSFkVT4vnnYgPGf2XaVRRwurRL3LVp1Hu/jyUmEiX6oJT5Lw5h4wyoGITYx55mw8+HM3YpbPY3G0SJybP54mQxpSsimfMJtutti3LSWm0C4D20WZ6BFQ3BkDh6rdIOeQF7aMx9wjg8EcpbNpnrz3IpQwiFBERERGRK+eyJlJQzItzP2Dg6324aeeb/C3bub4BRKaSuyQKH+dyu7zZ+EZNdy69OC8Tg8wmh4Jy0nfbEimA4hcZ83oH3ps4mPlrAvghzMSPebMZNcnh4HKWkZRjfZrQ9fxEqixjDkkZQEJXzD0COLEniSQXdlFERERERH5ZlzmRCmTy2Pu4HeDeR3kxMJUXG/qWVOFq3ko5hJdzuZ2ri0SUpxMXOqbOOVLF0x8n5f4Pea5LFzjxIc/GTr/677SJiIiIiEiDuayJlN8zs4kzQd782XwXN5FH5k/mzX7TGjbpKMtgTlKGc+lldpIvjn0L3Aw3NeZW52oREREREbmmXb7FJjzGMtccSuOSDUyZNp3nV31BI1Mcs5/59f8ybWBCGrP6eVOWm0tZ4y48l5ZA9doTl8D91l//ORERERER+S25THekPBie+hRdbi4nPX4S2QAvvsDqXmsYap7L2AUPX71LoJ+32ITNwQySluVA4GTmPxFC45JVxA+YBLN2smboeJbO2kq3SdmAH/0nPEYn21jD9k0BmtIhMZFEx3YAlmXz2fgQgh7dSEaz99l56Ax4305F6iSS860hIiIiIiJy9bksiZRH9Dye79mUs7unMqF6slE2f5v7H/ok9+Sp1OEsHXGV/ijveYtN2OSdI2lNM1LfGYuJAuaPsiWIk0bxeuv3mDh4PqmZ4YzZ1I7BfzITVWv1iwB6mM30sLdjT6TKpvDEZD8WPR1OUNQo7gGoqmT3ASVSIiIiIiJXs+s8PT1/ci40xLZannflab79/kdr2bH3MYdPYlvtyIsKn7WNlL7e1hfX38Qtt7pzLD2O0DF1LfUgIiIiIiLyy7r0O1JHPuPTT5pxm2PZyVJOOr6ux8nSQxQXn65d9tmRWq9FRERERESuNpd+R0pEREREROQ36vKt2iciIiIiInKNUiIlIiIiIiLiIiVSIiIiIiIiLlIiJSIiIiIi4iIlUg0tMpVciwWL/ZGbSqRzzK9UQroFiyWdBOcKEREREZHfGCVSl8Cj/RjmZmTxeXGpNVkqLaZgxyomd/OAwtW8lZJCSsq7FJxyfudVLjaZDRs2kBzrXHGlRZKa65CMOpzjKb2bOMQ14eHXMsg6UFId83nWel57KNAhpp7+cjB8+WfW+uK1POlYlZBee1+cH9dQsiwiIiIixlz670j9VgUmkLZ2IiGNT3N4z2bWZR/C3RRN367difvLn1kwcC5zkjKASFIHDcLk/P6rWWAQHTuG4LbdueIXcqqAd5dvpxzwbN6Nvn26M3ZJJnc8Fsa4TPCbuprZI4P47qvtpL1dQGXzbkT06sDIWYv4vrA3ifsx1F//BWA4MR28OHXwIFV3mYgYBfMW2vZjy3JSGu2yPvfpzohBJih4l+Xby61lp3IotIWKiIiIyG+DEimX+DH1jfGE3FzOv8f35o9rvrGVJ+HRPpS7DubavpRLg6gsZW1SEpm2l1OHL+fj5J5EmsdC5kJGhgXhRgFLeg5lWoUtyKMbvUPy2LofXOqvyAjaelVRvOh1Tj+eTIfw4bBwhbUuZxlJOfa4VAYNMkHpWpKS7HsmIiIiIr81GtrniuDniQxyo/Lj/2Nc9Zdyq4p9ueyzf5k3xINuk9fXDEsrOUDW+snUHm0WSNzcDLIKD1DiOJRs72IGVMc4tVNaTMHWVOJqj26rU2RqrvW9E0MACJnoOHTt/DlRtyesZ1+JBYullOKc9U5D5H7+/lxMxYoN5J8C98bW4X0//FgFeBPYy2H7FTvZutPWES70V3B0O3woYu/Kdew9WIVX24jLMlwvId06FDDuyVXk2IYaluzbSmr1CUog3X7u8xYT3WkqGfus57K0eBcLou3HauD6CYwjdWsBxaUWLJYS9m2dxeTFuQ59anBbjvP+Sg5QmJXBXMcOtdV/sHwxWSUWSj9/n1deWcXnpdZ2Xr8cJ1JERETkF6ZEyhV9WuIPHN63Fpdypgvwe2YVS+I74Vv5KWkpKaTln6FZp3iWpCVg/4oaNnc5rwy+G6/Tn/HvpSmkpNgeq97nsC0m8OVNrIzvRNOTH5OWksLSzfv5//4QxbR3FhhOBApXv2Vt9yNrq4c/cthWynK21Iq+i6iHvchdmcLSLV/yQ7NOxP9zOmG22obYn4u7lcaNal4tSNlMWZUP/eZls3Xp8zxwR+05T8b7y49h97SAkr2sLKtg2Z4i8DEx0H5QDc07nL+OCeDLTW+QkpbDyZvbEjVtKbPCALawPCWFdwtOwe+b8ecXBuKRu5KUtFxONmrOwJdmEo6R68ePqW9MI6rtLZzek0ZKykpy3SIZEubusCPGtlUz7y+FtP98yWmvuxk8bQ1Lh9c+3y2bV/C/k//NsVvvJiYom4QlBZxzb063YT+/50VERESuNhra54obr8cNqDxd5lzjomCejw3l5qovWDxoAC8WA7zJyS27eTzkQZ4Kns6kfOgd6A8cZHP8I0zMvVAqEMlf+7fBrTyd+M5jaobATd5MUXxHBodD5rZab7igsow5JGUACV0x9wjgxJ4kkqY7R9md5oPx4TyVDZDMt5uLiDcF0hvIbqD9uRiPsf0wucOJ40UAVGwaQ2TcFN5OHk2niKd58+NxWPYsZsIj09hZgfH+8ounWxsoT99EPsDKvZSMHkrHR4MhO985+udz+57saV0Ytdr6MvmLtRS82JnOjwZDdg7LknI4kjqIQaYQWpyOI3RMJuDBT22KiDcF0IVgBtV3/WC7G5f3OgMGTqcMICmNuVnrGNzUviNGtgXbyjJs8/5s/F7mg+zRdBsyClbYJ5LBsc/Wsm5ZKGNf6wO7ZrAutw1THvtVzRIUERERMUyJlCt++JEqoMkdwWD9yn2JuhLQDDhWzIfF9rIyVheU8nhQC1r3B/Jh2brtPGrqzpCNXzDgtIVDBQV8uHY+c/6Vi3WgWii+PgBRLLFY7A3ZlHODw92bhnOcr7Ltzyv4ocqxroH3x92fhxIT6QJ4m6Lp2zWAm8/mkfqSLQMBvtk6lYEdZnDHA88z+6XhdO0Uz8ptd/JY2DgyDfaXx8gOtOQ7vryxC4mJXQB3zp6B9vcMw498axLSoA7zac0hULE4h6IXO9OuZR9q7+dR9r5rT0crmNbPl2kAjGVNfddPrieNgSP7Mxz2P5uvjgP+1QUOLrYtoElvnv+Hmf6m9vjcApz7iRupGWIpIiIi8lukRMoV/y6i9LlQ/E2DL9MX7NrKFg4leOVdPPjI08QO6ogppA/j7ovisQlrePze8dV3fM5kJTN0au0BeHCOI/udiq6QBtsfLxODzLY7GufOcvRAOv94agKp1cmDXQVfvzeVoe/NIG7lJ7xyfxdGREOmwf4adW8b3GhMq0gzrRxHobXswEgPmH6hm4FXxI9UnXMuc833Z487F13ERbblMZyl214jouk5LAcKKT4KcBt3/f42bnaOFREREfkN0RwpV+T/i49LqnALGsGihPpWTzjCme8Ar6b8wbmKXRw+AngH0rO6GT8Gm/yBEvY7jKLim4OsWzCBUf3uI6RVO/6+8wyN/LthnXaSwf4S8Lw7gn7f5pGX5/go5OtLTADcb/VzLjKogfenPJ04X198fX3xbdGKkN5jSK1eIcIDD6cpUVBB4dHTwE3cdCsG+2s44UHuVOXNpqV9W76++E7dTaVbG7qOPm8jDSCAuwfXvPIY3YmWQPlXn9QU1snA9XPkDN8BAe0fouYIwrjz9uoXxtwXQXtvNwoWmujUO4aYmBhiJu3khHOcSwJ56NlnGdr+cpxbERERkStDd6Rcks3fXt5E13kDCZm4hT39svkkO59DZzxpHtYd30IzUX+xD83K5z/FJxjaIownN87h91nH8G4dzDdvD+HvmfnMSMsl+rlQ/vjuRm75f1kQ9jADg9w4m7eOubYmYpM3MMyrkPxDZwDwbt2L+zt5QmUhe3ZYt2FvZ/z7OfTbuZMP9h8Dz+YE3/AeQ55Ns+2LQcuy+Wx8CEGPbiSj2fvsPHQGvG+nInUSyRcfGeeggfenTr2Yt30OnSqLyPtkO/uPgXfrPvTs6Q9nd7NtHRjqr70xdPCCoj3Lai9IsTSLLyZ3wVTrB6UaihsdXtjNqvBNFGAipn9n3KtK2PF/26DTSBL734WPv3VRCP+HEknscoqcN+eQUX1Lzcj1M5cPvhjM6M7Ps2N9G9ZkV9K6T0863GpvA2PbsiVk7YauYs51WRzzNhHd906uKwUCYlg6p4zZG+wNGhM8aynzh7aAwf583m1SHYMuRURERK5eSqRcVLFpHL1Kcpj+j8eJbN2FqLb3AVVUnrZw6EBrHOe4rB6bwP0bX+Oh0FjMoXDu7DdkfwxkQtnMocR5vMM/44KJtVZSmjOfpx+ZjnXk2u9o2aotYZ06cp+9wXNnOVq2nYWJTzDP9q2/bOYAwvKm8EZSLB17xmKOAKii8sAp7iWNLPt7jSibwhOT/Vj0dDhBUaO4B6Cqkt0HjCZSDbw/dTrC50XldAhuSc9YExFQPfzv709NINV2furrr8iItnhRwuaVTgP/Kpaxp2giIUHhDGchtl+UaiAHSX/7DL2feYLu7m6cO/k56dMeZ1I2kDACs9m6DD2AaZAZE+Wk73ZMpIxcP8W8OGYyzRY9R68OsZg7VHJ8zxukn53ISHvzEQa2lf83Xl4VzKsx9xBrDqWq0sKnq6aw455FxPv/gYjYEXy6wXk+XN2KMgspG+zPLV99hnXZEBEREZFfn+s8PT1/ci4UkcsjId3CxJA8ZvtGcdGFES8bDyZvLiLe9EttX0REROTaoTlSIr8RHu1fIqIdULIfx2l4IiIiIuI6De0TuUbFJm8grrX1+c2/b0Vz31txdztLbtoMzUsSERER+ZmUSIlcowLahNAx1A3rnLBv+fbwdlbP+CsvrL3YQvAiIiIiYpTmSImIiIiIiLhIc6RERERERERcpERKRERERETERUqkREREREREXKRESkRERERExEVKpERERERERFykREpERERERMRFSqRERERERERcpERKRERERETERUqkREREREREXKRESkRERERExEVKpERERERERFykREpERERERMRFSqRERERERERcpERKRERERETERUqkREREREREXKRESkRERERExEVKpERERERERFykREpERERERMRFSqRERERERERcpERKRERERETERUqkREREREREXKRESkRERERExEVKpERERERERFykREpERERERMRFSqRERERERERcpERKRERERETERUqkREREREREXKRESkRERERExEVKpERERERERFykREpERERERMRFSqRERERERERcpERKRERERETERUqkREREREREXKRESkRERERExEVKpERERERERFykREpERERERMRFSqRERERERERcpERKRERERETERUqkREREREREXKRESkRERERExEVXIJHyY+yKLAqzVjDWz7nOFQ3VjoiIiIiIyM9TK5FakG3BkptKpGOhTWRqLhZLLqkXqqzTMGK6+9PEvzsxw5zrgNhkNmzYQHKsc4WzetoRERERERG5Qm5wfHHwGGDywQRkOlYAv/NwBw5TssOpol4zmfhqO2Z1KeGVBc51QGAQHTuG4LbducJZPe2IiIiIiIhcIbUSqU+PHIWQ67kRwOMO2rVuBkf2U/h1BQFNvKDyLMcqHN9hTPG8McTMcy51XUO1IyIiIiIi8nPUGtp35vsfAB9aRQL3JbEsPZ0N80YBwdzRBDh1gi8BIlPJtViwWCxYSg5QmJXB3LhAx6YgId1aX/1IJ8Gh2jpU0IJlYggAIRMvEltPO9YQ65DEhBlb2VdiwWIppThnPZO7edQEBcaRurWA4lILFksJ+7bOYvLi3Au2VzcPuk1eT9aBkurjz1o/GcdNGdqfevhN3UKppZQtU50mhNnO/WfLh9sK6tufSFJzrftTMyrTuSyBdPv5zVtMdKepZOyztldavIsF0Ub322g7TvtcWkzB1lRqX0KBxM3NIKvwACWO/b93MQNsEfbzHPfkKnKKS7FYLJTs20pqrYbqOz9G+6v+/TlvWxc8LhERERG5FtS6I7Xt4DHAF7dGwN2+eJ84wZnbAvDjSzwbA8dK2AFQuJq3Ug7hBXi37k7nsLsZPG0NTc51ZdQK2y2rLctJabQLgPbRZnoEWIvtCle/RcohL2gfjblHAIc/SmHTPnvtQbbYn9bTTjXvcEaHH2T7yhSO+/bhwZ6diP/ndDbf+xTZ+DH1jWlEta3iSE4ab2VX0rrPAIaEub7Wht8zq1gSH0rj/+aS9nYWhD3MwE7xLEn7gQeiplNsD6xzf+pXNn0Nn4x8kc6RzxM8ZRL5tvLg6Hb4cIoP///27jW6qvLO4/iXxmGZGLm1kZiYKHIrl8QQIApWuQRUoiiYiIowjI44BC1gFahVKjbYlrrwAoNWZbQK1YpgyyhEmrEMaxTBREiBiQJBEAhyGW5yicYVnRcJuRwkOdvVZjLh+1kra53z7P95zrP3yZvfevbz7DdfBQKMp07v8Mozzdn2o5EMT2rLP09JIWrtazxzqBs3DU/l+umP8+rScawM/dgpwutn16NLee32znyx610WvbyB0gv7ctWgDGb84bfs7j2OPKD3nFf4VWYcn+9Yx3+8mc+nxyq/4utidtT8yph+PHDnAdYvfY4l9ObG63uRMWM+Txb1ZVJ+gOtTz+8Vznjah3FekiRJahpqBSk27mUfKbTtDoM7xrJ/+3bKL4gjhSRiY6B0+35OAJTkMjsnt/pz8Y+yIv92+t40Gl59tqKtYAE5BRUvp/Y5NQCV5M4mJxeY2ofsKxM5uC6HnJm1a4B6+6kScZC8u6/ix/kAszi6vJjxSe0ZCOQnT2ZwlwhKC/+V666fSQlAziLmrFlCZptavdQjmclZqZxTvokXh1/Hg1sBXuDQO6sZm3IDP06eyaSTiaeu8Zzsri4n5jJ/VTZp6X0Y25vKfuK5+ZKLoHQ1K1+FQOOpUwELcgrYO284w5NSuOjzMaTemQdE8U3nYsYnJXIZhBGkwulnMB2HdCZizzLGp91ZFS4eeWg5xeN7ktkP8lbCwPYJwDaWj7+FiWvruJ804kvyZ1zG6MUVb2dt+hMbHkwj7bZkyCf861PP71X/eAbzQBjnJUmSpKah9pTMziOcAFqdn0xSbAz7V69m/3lt6c4/8L0IOHLwk4q6VgOZPO91/rKmiKKiIoqWDuMCIPLsVjV7a2AH2FWVUE7wVXmNQ22jORvYuzm3IkQBkM+uA9Ul4elDYluykZJEAAAIQUlEQVRg/1b+s2oqo4TFG3YCF9FpSHVlneMJ0+LZK9hJAgMmZFY0RI2iRwco/etyKuJqkPGEax9//ePJGHCCGVfHEReXwbdl3Lqdrp9U4mKB2AxeqnGLXPH4JCCCs5pXfGLBknf5n/J23PTWJrZ+vIa/vD6Pn9+Wyqn/YTvYWBmiAE68WEAxkNBhEMGuT92/V/3jCe+8JEmS1DTUnpFa/xmHgdjoPiS2KeP4/nUc2XcjHad2JBbYsyUPom5l/srfkN6mjN1biti6D6A17c5rzTm1Omt8vjweODn938r/NW9/NIyxfUdzd9Ri5o6+lM4RpWx4Z35o5d/Q15SXhbZ9F3X3c2zNLEY8UnUDZ6Uy9m6ueFXy7AiSX2vHDbfcS9bwniSlDGLc5RncMeENxl56T4PfJhfueOo7L0mSJDUNIYuENrJ3H8TEppPY9ggHPylk96EYYrtHEUkpXxwGLk+nW0wEG55NotfAoQwdOpShk1ZxsHZHgUW2+Ds+ZXfvMb4AErsNo3r7gN5c8P3qkvC8z469QEx7+ldtIBBPZlICsJ3NNe52/NsoYeYbH1Ia2ZMbp8Zza78uRJZuIO/Fk7eWBRjP9yKomhSJ70/72BrHGlQum7dDdPd0rj5aSGFhzb8iPqt519zhbSz57QRGX305KR278vNVx2ie0Jebaz3LLJHulRN2AFG396IDsGfXhwS6PuGoczwBzguA9gy77z5GdAt3I4/TaWz9SJIknRlqz0ixkyMnIKJFLD+I3MOavBK+mggxndrTkiMc/ISqUNJ1xEJmN1vD/pgkrr3qAprtBBKHMn92CU9NWEHMhDvo1bKi125tANrQY9o0pgFsyyVnQeXCpwX5fHRPCl1ue4vctn9m1afHIOb7nJg3iVnr4xkSbj91WT+HFZsyuT1tMu/9e2feyC+l06D+9GgRWlif9Ty2aC3X3p/KP/7xLc59vXLzgi4RHC9cwpyw1iMFc2LufFZlp9H/yrmMjG1J+ab3qcpRYY3nPdbtKCUjbRC/ems2qWug94COfL0HaJlC9uxRHHoZhgxpR2xCJAAJw6Yx7bIjFLwwm9zqeyHr12sU0+rtp3rM9/y5gKtXrWLF5v0QfSHJZ73NTfctAiBr1pvc3LKI9ZW7OsR0GsAVvaKhtIh1tZ5lFkGPKatZ2G8pG0hi6JA0Isu3896/VSxIqv/6hKf+8YR3XiclPzmfp0dcBJkJfNy3ejORoBpbP5IkSWeKkCC1ns8OAykd6LBvORuBsj37uT81AShkSx7Az3h0YTK/HnoJWdmplJfuZuPCh3nvkucZn3Ax6Vkj2ThhLx3/KZuMWrMeiVyZnc2VAIVl1QGo5GHueiie5+/tR5eM0VwCUF7K6i2TmLW+K5nh9lOnrTx450O0ff5+BvTIIrtHKQfWPcey4xMZVbH7ethKHh/BmKg/8MSYZLKyU6HsODsLnubeW8LdIS+oxcxeMYX0zDR6Uk7hyjkVG35Uqn88J5h73y/o8fwUBqVmcVeX3bz/+Bg+uD6PLrFxXJY1kvQSyM6uvhBJw7NJYg/LVgcMUukjw+qn5PHr6F34MM/lZNGzfxbZ6QDllG45wqUsYg0/oEPHH9K7V08uP/mhsuPsK3mXZ6fdxdxaszvbWPbyMQb+5C5+FBlB2aGPWTZjLJMq1zvVf33CEd546j+vasV5RZRkJnDuro8ortEeVGPrR5Ik6UzRLDo6+pvQxjNDFA8tL2Z8UiFPfafNFBpSFLe+8gGzLi3m0aRhIUHizDV12W4mpvx/+P0kSZLU1AR/kFITEdVtOuldge2bCbpUpqG1unEuP7miDXtWzDVESZIkSY1AyK19TVfWrDcZ06ni9TnndeTCuBZERhxn7aLHGuV6kPghE5g6cjCdL76Yzu1aE1GyjHETGnqvOkmSJEnf5owJUomdU+iZGgGUU/r5UY7ueJfFjz3AlD8FWQTUcDrcMJrhfc/l6NEDfLDgER6ZvpD/djZKkiRJahTO4DVSkiRJkvTdnLFrpCRJkiTpuzJISZIkSVJABilJkiRJCsggJUmSJEkBGaQkSZIkKSCDlCRJkiQFZJCSJEmSpIAMUpIkSZIU0Fm13g2ex9qXMoit1VhD4VPEPdHRmtBjJ1ljTeixk5pyTcbM0FZJkqQmr3aQKlrM7575lJa1GmvY9g4Urbcm9NhJ1lgTeuykplwjSZJ0BmoWHR39TWijJEmSJOn0XCMlSZIkSQEZpCRJkiQpIIOUJEmSJAVkkJIkSZKkgAxSkiRJkhSQQUqSJEmSAjJISZIkSVJABilJkiRJCsggJUmSJEkBGaQkSZIkKSCDlCRJkiQFZJCSJEmSpIBCglQ8Q0Zcw/lRtVtra2w1kiRJktSwQoJUVzJ/+gIfFq0jd95krvnWBNPYaiRJkiSpYUU0b958evXbL/kqsT2d4zrQJfUKhv/LOO64tifn7F1NYfExvmqUNZIkSZLUsJpFR0d/E9oI0Cr1Nn720/Fcm9aO1s2h7NDH/NfcKYx+uqDR1kiSJElSQzhtkKpy/lX85qXZjOreAgqfIi5jZmhF46uRJEmSpL+js0IbKkRx/jV3kzPxZgZ0jyMyopzS3QUsfm5RI66RJEmSpIYRMiMVz61PPsM9g5Np17o5lJeye91inpj+S36/9nAjrZEkSZKkhhUyI9WV9Ct7kXj2bgoWPMH0X/6eU/NKY6uRJEmSpIZ1yoxU32vaUvT2Wk6fVxpbjSRJkiQ1rPo3m5AkSZIk1RLyQF5JkiRJUn0MUpIkSZIUkEFKkiRJkgIySEmSJElSQAYpSZIkSQrIICVJkiRJARmkJEmSJCmg/wXZoAzy22cP6AAAAABJRU5ErkJggg==&quot;&gt;" style="rounded=1;whiteSpace=wrap;html=1;sketch=1;hachureGap=4;jiggle=2;curveFitting=1;fontFamily=Architects Daughter;fontSource=https%3A%2F%2Ffonts.googleapis.com%2Fcss%3Ffamily%3DArchitects%2BDaughter;" parent="1" vertex="1">
          <mxGeometry x="1016" y="274" width="640" height="399" as="geometry" />
        </mxCell>
        <mxCell id="2e5F1GHSX5DQpQCDhNSY-30" value="PSCAT Main Menu" style="text;html=1;align=center;verticalAlign=middle;whiteSpace=wrap;rounded=0;fontFamily=Architects Daughter;fontSource=https%3A%2F%2Ffonts.googleapis.com%2Fcss%3Ffamily%3DArchitects%2BDaughter;fontStyle=1;fontSize=24;" parent="1" vertex="1">
          <mxGeometry x="1206.5" y="232" width="259" height="30" as="geometry" />
        </mxCell>
        <mxCell id="agJgPbNk82VkGmNzE8Ct-17" value="PSCAT Main Menu" style="shape=table;startSize=30;container=1;collapsible=0;childLayout=tableLayout;strokeColor=default;fontSize=17;sketch=1;hachureGap=4;jiggle=2;curveFitting=1;fontFamily=Architects Daughter;fontSource=https%3A%2F%2Ffonts.googleapis.com%2Fcss%3Ffamily%3DArchitects%2BDaughter;fontStyle=1" vertex="1" parent="1">
          <mxGeometry x="1136" y="820" width="400" height="280" as="geometry" />
        </mxCell>
        <mxCell id="agJgPbNk82VkGmNzE8Ct-18" value="" style="shape=tableRow;horizontal=0;startSize=0;swimlaneHead=0;swimlaneBody=0;strokeColor=inherit;top=0;left=0;bottom=0;right=0;collapsible=0;dropTarget=0;fillColor=none;points=[[0,0.5],[1,0.5]];portConstraint=eastwest;fontSize=16;sketch=1;hachureGap=4;jiggle=2;curveFitting=1;fontFamily=Architects Daughter;fontSource=https%3A%2F%2Ffonts.googleapis.com%2Fcss%3Ffamily%3DArchitects%2BDaughter;" vertex="1" parent="agJgPbNk82VkGmNzE8Ct-17">
          <mxGeometry y="30" width="400" height="83" as="geometry" />
        </mxCell>
        <mxCell id="agJgPbNk82VkGmNzE8Ct-19" value="&lt;b&gt;Compile Project&lt;/b&gt;" style="shape=partialRectangle;html=1;whiteSpace=wrap;connectable=0;strokeColor=inherit;overflow=hidden;fillColor=none;top=0;left=0;bottom=0;right=0;pointerEvents=1;fontSize=16;sketch=1;hachureGap=4;jiggle=2;curveFitting=1;fontFamily=Architects Daughter;fontSource=https%3A%2F%2Ffonts.googleapis.com%2Fcss%3Ffamily%3DArchitects%2BDaughter;" vertex="1" parent="agJgPbNk82VkGmNzE8Ct-18">
          <mxGeometry width="200" height="83" as="geometry">
            <mxRectangle width="200" height="83" as="alternateBounds" />
          </mxGeometry>
        </mxCell>
        <mxCell id="agJgPbNk82VkGmNzE8Ct-20" value="&lt;b&gt;Update PSCAT&lt;/b&gt;" style="shape=partialRectangle;html=1;whiteSpace=wrap;connectable=0;strokeColor=inherit;overflow=hidden;fillColor=none;top=0;left=0;bottom=0;right=0;pointerEvents=1;fontSize=16;sketch=1;hachureGap=4;jiggle=2;curveFitting=1;fontFamily=Architects Daughter;fontSource=https%3A%2F%2Ffonts.googleapis.com%2Fcss%3Ffamily%3DArchitects%2BDaughter;" vertex="1" parent="agJgPbNk82VkGmNzE8Ct-18">
          <mxGeometry x="200" width="200" height="83" as="geometry">
            <mxRectangle width="200" height="83" as="alternateBounds" />
          </mxGeometry>
        </mxCell>
        <mxCell id="agJgPbNk82VkGmNzE8Ct-22" value="" style="shape=tableRow;horizontal=0;startSize=0;swimlaneHead=0;swimlaneBody=0;strokeColor=inherit;top=0;left=0;bottom=0;right=0;collapsible=0;dropTarget=0;fillColor=none;points=[[0,0.5],[1,0.5]];portConstraint=eastwest;fontSize=16;sketch=1;hachureGap=4;jiggle=2;curveFitting=1;fontFamily=Architects Daughter;fontSource=https%3A%2F%2Ffonts.googleapis.com%2Fcss%3Ffamily%3DArchitects%2BDaughter;" vertex="1" parent="agJgPbNk82VkGmNzE8Ct-17">
          <mxGeometry y="113" width="400" height="84" as="geometry" />
        </mxCell>
        <mxCell id="agJgPbNk82VkGmNzE8Ct-23" value="&lt;b&gt;Access Project Page&lt;/b&gt;" style="shape=partialRectangle;html=1;whiteSpace=wrap;connectable=0;strokeColor=inherit;overflow=hidden;fillColor=none;top=0;left=0;bottom=0;right=0;pointerEvents=1;fontSize=16;sketch=1;hachureGap=4;jiggle=2;curveFitting=1;fontFamily=Architects Daughter;fontSource=https%3A%2F%2Ffonts.googleapis.com%2Fcss%3Ffamily%3DArchitects%2BDaughter;" vertex="1" parent="agJgPbNk82VkGmNzE8Ct-22">
          <mxGeometry width="200" height="84" as="geometry">
            <mxRectangle width="200" height="84" as="alternateBounds" />
          </mxGeometry>
        </mxCell>
        <mxCell id="agJgPbNk82VkGmNzE8Ct-24" value="&lt;b&gt;Help Documentation&lt;/b&gt;" style="shape=partialRectangle;html=1;whiteSpace=wrap;connectable=0;strokeColor=inherit;overflow=hidden;fillColor=none;top=0;left=0;bottom=0;right=0;pointerEvents=1;fontSize=16;sketch=1;hachureGap=4;jiggle=2;curveFitting=1;fontFamily=Architects Daughter;fontSource=https%3A%2F%2Ffonts.googleapis.com%2Fcss%3Ffamily%3DArchitects%2BDaughter;" vertex="1" parent="agJgPbNk82VkGmNzE8Ct-22">
          <mxGeometry x="200" width="200" height="84" as="geometry">
            <mxRectangle width="200" height="84" as="alternateBounds" />
          </mxGeometry>
        </mxCell>
        <mxCell id="agJgPbNk82VkGmNzE8Ct-26" value="" style="shape=tableRow;horizontal=0;startSize=0;swimlaneHead=0;swimlaneBody=0;strokeColor=inherit;top=0;left=0;bottom=0;right=0;collapsible=0;dropTarget=0;fillColor=none;points=[[0,0.5],[1,0.5]];portConstraint=eastwest;fontSize=16;sketch=1;hachureGap=4;jiggle=2;curveFitting=1;fontFamily=Architects Daughter;fontSource=https%3A%2F%2Ffonts.googleapis.com%2Fcss%3Ffamily%3DArchitects%2BDaughter;" vertex="1" parent="agJgPbNk82VkGmNzE8Ct-17">
          <mxGeometry y="197" width="400" height="83" as="geometry" />
        </mxCell>
        <mxCell id="agJgPbNk82VkGmNzE8Ct-27" value="&lt;b&gt;Load Project&lt;/b&gt;" style="shape=partialRectangle;html=1;whiteSpace=wrap;connectable=0;strokeColor=inherit;overflow=hidden;fillColor=none;top=0;left=0;bottom=0;right=0;pointerEvents=1;fontSize=16;sketch=1;hachureGap=4;jiggle=2;curveFitting=1;fontFamily=Architects Daughter;fontSource=https%3A%2F%2Ffonts.googleapis.com%2Fcss%3Ffamily%3DArchitects%2BDaughter;" vertex="1" parent="agJgPbNk82VkGmNzE8Ct-26">
          <mxGeometry width="200" height="83" as="geometry">
            <mxRectangle width="200" height="83" as="alternateBounds" />
          </mxGeometry>
        </mxCell>
        <mxCell id="agJgPbNk82VkGmNzE8Ct-28" value="&lt;b&gt;Exit&lt;/b&gt;" style="shape=partialRectangle;html=1;whiteSpace=wrap;connectable=0;strokeColor=inherit;overflow=hidden;fillColor=none;top=0;left=0;bottom=0;right=0;pointerEvents=1;fontSize=16;sketch=1;hachureGap=4;jiggle=2;curveFitting=1;fontFamily=Architects Daughter;fontSource=https%3A%2F%2Ffonts.googleapis.com%2Fcss%3Ffamily%3DArchitects%2BDaughter;" vertex="1" parent="agJgPbNk82VkGmNzE8Ct-26">
          <mxGeometry x="200" width="200" height="83" as="geometry">
            <mxRectangle width="200" height="83" as="alternateBounds" />
          </mxGeometry>
        </mxCell>
        <mxCell id="agJgPbNk82VkGmNzE8Ct-31" value="" style="endArrow=classic;html=1;rounded=0;sketch=1;hachureGap=4;jiggle=2;curveFitting=1;fontFamily=Architects Daughter;fontSource=https%3A%2F%2Ffonts.googleapis.com%2Fcss%3Ffamily%3DArchitects%2BDaughter;exitX=1;exitY=0.5;exitDx=0;exitDy=0;" edge="1" parent="1" source="agJgPbNk82VkGmNzE8Ct-18">
          <mxGeometry width="50" height="50" relative="1" as="geometry">
            <mxPoint x="1540" y="890" as="sourcePoint" />
            <mxPoint x="1670" y="890" as="targetPoint" />
          </mxGeometry>
        </mxCell>
        <mxCell id="agJgPbNk82VkGmNzE8Ct-32" value="" style="endArrow=classic;html=1;rounded=0;sketch=1;hachureGap=4;jiggle=2;curveFitting=1;fontFamily=Architects Daughter;fontSource=https%3A%2F%2Ffonts.googleapis.com%2Fcss%3Ffamily%3DArchitects%2BDaughter;exitX=1;exitY=0.595;exitDx=0;exitDy=0;exitPerimeter=0;" edge="1" parent="1" source="agJgPbNk82VkGmNzE8Ct-22">
          <mxGeometry width="50" height="50" relative="1" as="geometry">
            <mxPoint x="1540" y="984" as="sourcePoint" />
            <mxPoint x="1670" y="980" as="targetPoint" />
          </mxGeometry>
        </mxCell>
        <mxCell id="agJgPbNk82VkGmNzE8Ct-33" value="" style="endArrow=classic;html=1;rounded=0;sketch=1;hachureGap=4;jiggle=2;curveFitting=1;fontFamily=Architects Daughter;fontSource=https%3A%2F%2Ffonts.googleapis.com%2Fcss%3Ffamily%3DArchitects%2BDaughter;exitX=0;exitY=0.5;exitDx=0;exitDy=0;" edge="1" parent="1" source="agJgPbNk82VkGmNzE8Ct-26">
          <mxGeometry width="50" height="50" relative="1" as="geometry">
            <mxPoint x="1050" y="1120" as="sourcePoint" />
            <mxPoint x="1000" y="1060" as="targetPoint" />
          </mxGeometry>
        </mxCell>
        <mxCell id="agJgPbNk82VkGmNzE8Ct-34" value="" style="endArrow=classic;html=1;rounded=0;sketch=1;hachureGap=4;jiggle=2;curveFitting=1;fontFamily=Architects Daughter;fontSource=https%3A%2F%2Ffonts.googleapis.com%2Fcss%3Ffamily%3DArchitects%2BDaughter;exitX=0;exitY=0.5;exitDx=0;exitDy=0;" edge="1" parent="1" source="agJgPbNk82VkGmNzE8Ct-22">
          <mxGeometry width="50" height="50" relative="1" as="geometry">
            <mxPoint x="1030" y="990" as="sourcePoint" />
            <mxPoint x="1000" y="975" as="targetPoint" />
          </mxGeometry>
        </mxCell>
        <mxCell id="agJgPbNk82VkGmNzE8Ct-35" value="" style="endArrow=classic;html=1;rounded=0;sketch=1;hachureGap=4;jiggle=2;curveFitting=1;fontFamily=Architects Daughter;fontSource=https%3A%2F%2Ffonts.googleapis.com%2Fcss%3Ffamily%3DArchitects%2BDaughter;exitX=0;exitY=0.5;exitDx=0;exitDy=0;" edge="1" parent="1" source="agJgPbNk82VkGmNzE8Ct-18">
          <mxGeometry width="50" height="50" relative="1" as="geometry">
            <mxPoint x="1030" y="920" as="sourcePoint" />
            <mxPoint x="1000" y="892" as="targetPoint" />
          </mxGeometry>
        </mxCell>
        <mxCell id="agJgPbNk82VkGmNzE8Ct-36" value="&lt;div&gt;{Only Avail. when Project Loaded}&lt;/div&gt;&lt;div&gt;&lt;br&gt;&lt;/div&gt;Compiles the desired project&lt;div&gt;&lt;br&gt;&lt;/div&gt;&lt;div&gt;Uses path from PSCAT.Proj in Project Source Dir.&lt;/div&gt;" style="rounded=1;whiteSpace=wrap;html=1;sketch=1;hachureGap=4;jiggle=2;curveFitting=1;fontFamily=Architects Daughter;fontSource=https%3A%2F%2Ffonts.googleapis.com%2Fcss%3Ffamily%3DArchitects%2BDaughter;fontSize=16;fontStyle=1" vertex="1" parent="1">
          <mxGeometry x="730" y="720" width="270" height="182" as="geometry" />
        </mxCell>
        <mxCell id="agJgPbNk82VkGmNzE8Ct-37" value="" style="endArrow=classic;html=1;rounded=0;sketch=1;hachureGap=4;jiggle=2;curveFitting=1;fontFamily=Architects Daughter;fontSource=https%3A%2F%2Ffonts.googleapis.com%2Fcss%3Ffamily%3DArchitects%2BDaughter;exitX=1;exitY=0.5;exitDx=0;exitDy=0;" edge="1" parent="1" source="agJgPbNk82VkGmNzE8Ct-26">
          <mxGeometry width="50" height="50" relative="1" as="geometry">
            <mxPoint x="1536" y="1063" as="sourcePoint" />
            <mxPoint x="1670" y="1060" as="targetPoint" />
          </mxGeometry>
        </mxCell>
        <mxCell id="agJgPbNk82VkGmNzE8Ct-38" value="Access the GitHub PSCAT Releases Page" style="rounded=1;whiteSpace=wrap;html=1;sketch=1;hachureGap=4;jiggle=2;curveFitting=1;fontFamily=Architects Daughter;fontSource=https%3A%2F%2Ffonts.googleapis.com%2Fcss%3Ffamily%3DArchitects%2BDaughter;fontSize=16;fontStyle=1" vertex="1" parent="1">
          <mxGeometry x="1670" y="830" width="200" height="72" as="geometry" />
        </mxCell>
        <mxCell id="agJgPbNk82VkGmNzE8Ct-39" value="Destroy Program" style="rounded=1;whiteSpace=wrap;html=1;sketch=1;hachureGap=4;jiggle=2;curveFitting=1;fontFamily=Architects Daughter;fontSource=https%3A%2F%2Ffonts.googleapis.com%2Fcss%3Ffamily%3DArchitects%2BDaughter;fontStyle=1;fontSize=16;" vertex="1" parent="1">
          <mxGeometry x="1670" y="1050" width="200" height="72" as="geometry" />
        </mxCell>
        <mxCell id="agJgPbNk82VkGmNzE8Ct-40" value="Access the GitHub&lt;div&gt;PSCAT Wiki Page&lt;/div&gt;" style="rounded=1;whiteSpace=wrap;html=1;sketch=1;hachureGap=4;jiggle=2;curveFitting=1;fontFamily=Architects Daughter;fontSource=https%3A%2F%2Ffonts.googleapis.com%2Fcss%3Ffamily%3DArchitects%2BDaughter;fontStyle=1;fontSize=16;" vertex="1" parent="1">
          <mxGeometry x="1669" y="940" width="200" height="72" as="geometry" />
        </mxCell>
        <mxCell id="agJgPbNk82VkGmNzE8Ct-41" value="&lt;div&gt;Open PSCAT.Proj if Found; otherwise nothing todo&lt;/div&gt;&lt;div&gt;&lt;br&gt;&lt;/div&gt;&lt;div&gt;User Selects Directory in Windows Directory Selection Dialog Box&lt;/div&gt;&lt;div&gt;If PSCAT.Proj found; load file.&lt;/div&gt;&lt;div&gt;Else, or error, abort operation.&lt;/div&gt;" style="rounded=1;whiteSpace=wrap;html=1;sketch=1;hachureGap=4;jiggle=2;curveFitting=1;fontFamily=Architects Daughter;fontSource=https%3A%2F%2Ffonts.googleapis.com%2Fcss%3Ffamily%3DArchitects%2BDaughter;fontStyle=1;fontSize=16;" vertex="1" parent="1">
          <mxGeometry x="720" y="1050" width="280" height="210" as="geometry" />
        </mxCell>
        <mxCell id="agJgPbNk82VkGmNzE8Ct-42" value="Access the HTTP Source defined in PSCAT.Proj" style="rounded=1;whiteSpace=wrap;html=1;sketch=1;hachureGap=4;jiggle=2;curveFitting=1;fontFamily=Architects Daughter;fontSource=https%3A%2F%2Ffonts.googleapis.com%2Fcss%3Ffamily%3DArchitects%2BDaughter;fontStyle=1;fontSize=16;" vertex="1" parent="1">
          <mxGeometry x="800" y="940" width="200" height="72" as="geometry" />
        </mxCell>
        <mxCell id="agJgPbNk82VkGmNzE8Ct-43" value="&lt;div&gt;&lt;b style=&quot;background-color: initial;&quot;&gt;&lt;font style=&quot;font-size: 18px;&quot;&gt;&lt;br&gt;&lt;/font&gt;&lt;/b&gt;&lt;/div&gt;&lt;div&gt;&lt;b style=&quot;background-color: initial;&quot;&gt;&lt;font style=&quot;font-size: 18px;&quot;&gt;&lt;br&gt;&lt;/font&gt;&lt;/b&gt;&lt;/div&gt;&lt;div&gt;&lt;b style=&quot;background-color: initial;&quot;&gt;&lt;font style=&quot;font-size: 18px;&quot;&gt;&lt;br&gt;&lt;/font&gt;&lt;/b&gt;&lt;/div&gt;&lt;div&gt;&lt;br&gt;&lt;/div&gt;&lt;div&gt;&lt;b style=&quot;background-color: initial;&quot;&gt;&lt;font style=&quot;font-size: 18px;&quot;&gt;&amp;nbsp; Keeping Everything&lt;/font&gt;&lt;/b&gt;&lt;/div&gt;&lt;div&gt;&lt;b style=&quot;background-color: initial;&quot;&gt;&lt;font style=&quot;font-size: 18px;&quot;&gt;&amp;nbsp; &amp;nbsp; &amp;nbsp; &amp;nbsp;Contained&lt;/font&gt;&lt;/b&gt;&lt;br&gt;&lt;/div&gt;&lt;div&gt;&lt;b&gt;&lt;font style=&quot;font-size: 18px;&quot;&gt;&lt;br&gt;&lt;/font&gt;&lt;/b&gt;&lt;/div&gt;&lt;div&gt;&lt;b&gt;&lt;font style=&quot;font-size: 18px;&quot;&gt;&amp;nbsp;1. Microsoft dotNET Core&lt;/font&gt;&lt;/b&gt;&lt;/div&gt;&lt;div&gt;&lt;b style=&quot;&quot;&gt;&lt;font style=&quot;font-size: 18px;&quot;&gt;&amp;nbsp;2. PowerShell Core&lt;/font&gt;&lt;/b&gt;&lt;/div&gt;" style="html=1;whiteSpace=wrap;shape=isoCube2;backgroundOutline=1;isoAngle=16.428571428571427;sketch=1;hachureGap=4;jiggle=2;curveFitting=1;fontFamily=Architects Daughter;fontSource=https%3A%2F%2Ffonts.googleapis.com%2Fcss%3Ffamily%3DArchitects%2BDaughter;align=left;" vertex="1" parent="1">
          <mxGeometry x="-440" y="690" width="410" height="490" as="geometry" />
        </mxCell>
        <mxCell id="agJgPbNk82VkGmNzE8Ct-44" value="&lt;b&gt;&lt;font style=&quot;font-size: 25px;&quot;&gt;Easy to install&lt;/font&gt;&lt;/b&gt;&lt;div&gt;&lt;span style=&quot;font-size: 25px;&quot;&gt;&lt;b&gt;&amp;amp;&lt;br&gt;&lt;/b&gt;&lt;/span&gt;&lt;div&gt;&lt;b&gt;&lt;font style=&quot;font-size: 25px;&quot;&gt;Easy to Use&lt;/font&gt;&lt;/b&gt;&lt;/div&gt;&lt;/div&gt;" style="shape=cube;whiteSpace=wrap;html=1;boundedLbl=1;backgroundOutline=1;darkOpacity=0.05;darkOpacity2=0.1;sketch=1;hachureGap=4;jiggle=2;curveFitting=1;fontFamily=Architects Daughter;fontSource=https%3A%2F%2Ffonts.googleapis.com%2Fcss%3Ffamily%3DArchitects%2BDaughter;size=30;" vertex="1" parent="1">
          <mxGeometry x="70" y="820" width="450" height="270" as="geometry" />
        </mxCell>
      </root>
    </mxGraphModel>
  </diagram>
</mxfile>
